<?xml version="1.0" standalone="no"?>
<!DOCTYPE svg PUBLIC "-//W3C//DTD SVG 1.1//EN" "http://www.w3.org/Graphics/SVG/1.1/DTD/svg11.dtd" >
<svg>
<metadata>
Created by FontForge 20090622 at Fri Jul 25 10:48:13 2014
 By ffonts
Copyright (c) 2014 Indian Type Foundry (info@indiantypefoundry.com)
</metadata>
<defs>
<font id="Rajdhani-Regular" horiz-adv-x="231" >
  <font-face 
    font-family="Rajdhani"
    font-weight="400"
    font-stretch="normal"
    units-per-em="1000"
    panose-1="2 0 0 0 0 0 0 0 0 0"
    ascent="750"
    descent="-250"
    x-height="510"
    cap-height="643"
    bbox="-416 -314 2020 888"
    underline-thickness="50"
    underline-position="-50"
    unicode-range="U+000D-U+F6C3"
  />
<missing-glyph horiz-adv-x="600" 
d="M170 536v-490h260v490h-260zM120 0v582h360v-582h-360z" />
    <glyph glyph-name=".notdef" horiz-adv-x="600" 
d="M170 536v-490h260v490h-260zM120 0v582h360v-582h-360z" />
    <glyph glyph-name=".null" horiz-adv-x="0" 
 />
    <glyph glyph-name="nonmarkingreturn" horiz-adv-x="333" 
 />
    <glyph glyph-name="NULL" horiz-adv-x="0" 
 />
    <glyph glyph-name="NULL" horiz-adv-x="0" 
 />
    <glyph glyph-name="CR" unicode="&#xd;" horiz-adv-x="0" 
 />
    <glyph glyph-name="space" unicode=" " horiz-adv-x="267" 
 />
    <glyph glyph-name="exclam" unicode="!" horiz-adv-x="237" 
d="M90 533v98q0 12 10 12h37q11 0 11 -12v-98q0 -78 -5 -183.5t-7 -123.5t-10 -18h-15q-8 0 -11 13q-2 20 -6 126.5t-4 185.5zM145 131v-119q0 -12 -10 -12h-32q-11 0 -11 12v119q0 11 11 11h32q10 0 10 -11z" />
    <glyph glyph-name="quotedbl" unicode="&#x22;" horiz-adv-x="330" 
d="M91 435h-5q-12 0 -12 13l-11 183q0 12 11 12h30q12 0 10 -12l-11 -183q0 -13 -12 -13zM244 435h-5q-12 0 -12 13l-11 183q-2 12 11 12h29q11 0 11 -12l-11 -183q-1 -13 -12 -13z" />
    <glyph glyph-name="numbersign" unicode="#" horiz-adv-x="677" 
d="M611 477q11 0 11 -11v-22q0 -11 -11 -11h-101l-63 -223h97q12 0 12 -11v-22q0 -11 -12 -11h-109l-43 -153q-3 -13 -14 -13h-22q-11 0 -7 16l42 150h-190l-43 -153q-3 -13 -14 -13h-22q-11 0 -7 16l42 150h-91q-11 0 -11 11v22q0 11 11 11h103l62 223h-98q-12 0 -12 11v22
q0 11 12 11h110l43 153q3 13 15 13h19q14 0 10 -16l-42 -150h189l43 153q4 13 16 13h18q14 0 10 -16l-42 -150h89zM403 210l62 223h-189l-63 -223h190z" />
    <glyph glyph-name="dollar" unicode="$" horiz-adv-x="504" 
d="M275 -98h-23q-11 0 -11 12v86h-32q-64 0 -102 38.5t-38 103.5v31q0 11 11 11h29q10 0 10 -11v-28q0 -100 97 -100h72q97 0 97 101v59q0 53 -26.5 74t-79.5 22l-63 1q-70 2 -108.5 32t-38.5 106v63q0 65 38 103.5t102 38.5h32v86q0 12 11 12h23q11 0 11 -12v-86h9
q63 0 100.5 -38.5t37.5 -103.5v-28q0 -12 -10 -12h-29q-11 0 -11 12v24q0 100 -97 100h-70q-97 0 -97 -102v-58q0 -50 25.5 -70.5t78.5 -21.5h72q65 -2 102.5 -33t37.5 -106v-66q0 -66 -38 -104t-102 -38h-9v-86q0 -12 -11 -12z" />
    <glyph glyph-name="percent" unicode="%" horiz-adv-x="717" 
d="M550 259h-18q-44 0 -60.5 -18.5t-16.5 -64.5v-56q0 -45 17 -64t60 -19h18q43 0 59.5 19t16.5 64v56q0 46 -16.5 64.5t-59.5 18.5zM528 296h25q59 0 86.5 -29t27.5 -89v-60q0 -118 -114 -118h-25q-115 0 -115 118v60q0 118 115 118zM186 610h-18q-43 0 -59.5 -18.5
t-16.5 -63.5v-57q0 -45 16.5 -64t59.5 -19h18q43 0 59.5 19t16.5 64v57q0 45 -16.5 63.5t-59.5 18.5zM165 647h25q114 0 114 -117v-60q0 -119 -114 -119h-25q-115 0 -115 119v60q0 117 115 117zM230 0h-19q-12 0 -6 16t132.5 306.5t133.5 307.5q7 13 16 13h19q14 0 6 -15
l-266 -615q-6 -13 -16 -13z" />
    <glyph glyph-name="ampersand" unicode="&#x26;" horiz-adv-x="597" 
d="M216 45h76q78 0 90 70l-178 204q-83 -5 -83 -98v-80q0 -96 95 -96zM292 0h-80q-65 0 -103 37t-38 102v85q0 50 26 87t80 39q-46 56 -46 118v36q0 65 38.5 102t103.5 37h24q65 0 103 -37t38 -102v-46q0 -12 -11 -12h-29q-11 0 -11 12v45q0 96 -92 96h-19q-46 0 -70 -24.5
t-24 -71.5v-35q0 -31 9.5 -53t33.5 -49l63 -72h239q12 0 12 -11v-24q0 -11 -12 -11h-201l207 -239q6 -9 -3 -9h-38q-10 0 -17 8l-59 67q-28 -75 -124 -75z" />
    <glyph glyph-name="quotesingle" unicode="'" horiz-adv-x="186" 
d="M96 443h-6q-12 0 -12 12l-11 170q0 11 11 11h29q13 0 11 -11l-10 -171q-4 -11 -12 -11z" />
    <glyph glyph-name="parenleft" unicode="(" horiz-adv-x="283" 
d="M216 634v-22q0 -10 -11 -10h-3q-48 0 -74 -28.5t-26 -81.5v-443q0 -53 26 -81.5t74 -28.5h3q11 0 11 -10v-22q0 -9 -11 -9h-3q-67 0 -106.5 40.5t-39.5 113.5v437q0 73 39.5 113.5t106.5 40.5h4q10 0 10 -9z" />
    <glyph glyph-name="parenright" unicode=")" horiz-adv-x="283" 
d="M56 -93v22q0 10 12 10h3q48 0 74 28.5t26 81.5v443q0 53 -26 81.5t-74 28.5h-3q-12 0 -12 10v22q0 9 12 9h3q66 0 105.5 -40.5t39.5 -113.5v-437q0 -73 -39.5 -113.5t-105.5 -40.5h-3q-12 0 -12 9z" />
    <glyph glyph-name="asterisk" unicode="*" horiz-adv-x="406" 
d="M181 617v15q0 11 11 11h22q11 0 11 -11v-15q0 -68 -22 -112q57 46 115 60q10 4 13 -7l7 -21q4 -10 -8 -14l-15 -4q-65 -21 -112 -14q55 -39 83 -77l10 -13q5 -8 -3 -15l-18 -12q-9 -7 -15 2l-9 13q-40 54 -48 102q-26 -73 -48 -102l-9 -14q-6 -8 -15 -2l-18 13
q-9 5 -2 16q50 66 92 89q-77 0 -128 19q-10 3 -7 13l8 21q2 10 13 6q75 -20 114 -59q-22 66 -22 112z" />
    <glyph glyph-name="plus" unicode="+" horiz-adv-x="523" 
d="M285 343h156q12 0 12 -11v-22q0 -11 -12 -11h-156v-158q0 -12 -12 -12h-23q-12 0 -12 12v158h-156q-12 0 -12 11v22q0 11 12 11h156v158q0 12 12 12h23q12 0 12 -12v-158z" />
    <glyph glyph-name="comma" unicode="," horiz-adv-x="191" 
d="M123 131v-78q0 -19 -11 -57l-29 -91q-1 -7 -8.5 -7t-7.5 9v224q0 11 11 11h35q10 0 10 -11z" />
    <glyph glyph-name="hyphen" unicode="-" horiz-adv-x="312" 
d="M260 298h-208q-12 0 -12 11v22q0 11 12 11h208q12 0 12 -11v-22q0 -11 -12 -11z" />
    <glyph glyph-name="period" unicode="." horiz-adv-x="191" 
d="M123 131v-119q0 -12 -10 -12h-35q-11 0 -11 12v119q0 11 11 11h35q10 0 10 -11z" />
    <glyph glyph-name="slash" unicode="/" horiz-adv-x="396" 
d="M99 0h-27q-15 0 -10 12t109 305t112 313q4 13 16 13h27q13 0 8 -15l-219 -615q-5 -13 -16 -13z" />
    <glyph glyph-name="zero" unicode="0" horiz-adv-x="514" 
d="M211 45h92q46 0 70 25.5t24 73.5v355q0 48 -24 73.5t-70 25.5h-92q-46 0 -70 -25.5t-24 -73.5v-355q0 -48 24 -73.5t70 -25.5zM307 0h-100q-65 0 -103 38t-38 104v359q0 66 38 104t103 38h100q65 0 102.5 -38t37.5 -104v-359q0 -66 -37.5 -104t-102.5 -38z" />
    <glyph glyph-name="one" unicode="1" horiz-adv-x="317" 
d="M36 522v22q0 13 12 21l126 71q10 7 21 7h26q11 0 11 -12v-619q0 -12 -11 -12h-29q-10 0 -10 12v577l-129 -73q-17 -11 -17 6z" />
    <glyph glyph-name="two" unicode="2" horiz-adv-x="478" 
d="M60 11v88q0 70 60 115l197 150q51 39 51 100v39q0 96 -95 96h-72q-94 0 -94 -96v-45q0 -12 -11 -12h-29q-11 0 -11 12v46q0 65 38 102t103 37h81q65 0 102.5 -36.5t37.5 -102.5v-42q0 -78 -63 -126l-199 -153q-42 -32 -42 -79v-58h296q11 0 11 -11v-24q0 -11 -11 -11
h-338q-12 0 -12 11z" />
    <glyph glyph-name="three" unicode="3" horiz-adv-x="496" 
d="M225 346h60q95 0 95 95v62q0 96 -95 96h-77q-95 0 -95 -96v-36q0 -11 -10 -11h-29q-11 0 -11 11v37q0 65 38 102t103 37h85q65 0 103 -37t38 -102v-64q0 -92 -83 -116q83 -23 83 -117v-68q0 -65 -38 -102t-103 -37h-85q-65 0 -103 37t-38 102v45q0 12 11 12h29
q10 0 10 -12v-44q0 -96 95 -96h77q95 0 95 96v66q0 96 -95 96h-60q-11 0 -11 11v22q0 11 11 11z" />
    <glyph glyph-name="four" unicode="4" horiz-adv-x="520" 
d="M351 176v427l-252 -427h252zM389 0h-27q-11 0 -11 12v119h-290q-15 0 -15 14v18q0 9 7 23l262 442q9 15 24 15h47q14 0 14 -15v-452h75q11 0 11 -10v-24q0 -11 -11 -11h-75v-119q0 -12 -11 -12z" />
    <glyph glyph-name="five" unicode="5" horiz-adv-x="482" 
d="M280 362h-86q-24 0 -40 -8t-21 -18q-13 -25 -24 -25h-32q-10 0 -10 11v309q0 12 10 12h325q12 0 12 -11v-25q0 -11 -12 -11h-285v-240q18 49 86 49h84q65 0 102 -36t37 -102v-125q0 -66 -38 -104t-103 -38h-80q-65 0 -102.5 38t-37.5 104v35q0 12 10 12h29q11 0 11 -12
v-34q0 -47 24 -73t70 -26h72q46 0 70.5 25.5t24.5 73.5v120q0 99 -96 99z" />
    <glyph glyph-name="six" unicode="6" horiz-adv-x="497" 
d="M203 45h85q46 0 70 25.5t24 73.5v96q0 47 -24 72.5t-70 25.5h-179v-194q0 -48 24 -73.5t70 -25.5zM292 0h-93q-65 0 -103 38t-38 104v359q0 66 38 104t103 38h190q11 0 11 -11v-24q0 -10 -11 -10h-186q-46 0 -70 -25.5t-24 -73.5v-116h183q65 0 103 -38t38 -103v-100
q0 -66 -38 -104t-103 -38z" />
    <glyph glyph-name="seven" unicode="7" horiz-adv-x="380" 
d="M122 0h-28q-14 0 -7 15l219 582h-279q-11 0 -11 10v25q0 11 11 11h322q11 0 11 -11v-25q0 -10 -5 -23l-215 -573q-4 -11 -18 -11z" />
    <glyph glyph-name="eight" unicode="8" horiz-adv-x="519" 
d="M211 45h97q95 0 95 96v65q0 96 -95 96h-97q-94 0 -94 -96v-65q0 -96 94 -96zM211 345h97q46 0 70.5 25t24.5 72v60q0 96 -95 96h-97q-94 0 -94 -96v-60q0 -97 94 -97zM312 0h-105q-65 0 -103 36.5t-38 101.5v66q0 91 73 120q-73 29 -73 119v62q0 65 38 101.5t103 36.5
h105q65 0 102.5 -36.5t37.5 -101.5v-62q0 -92 -72 -119q72 -28 72 -120v-66q0 -65 -37.5 -101.5t-102.5 -36.5z" />
    <glyph glyph-name="nine" unicode="9" horiz-adv-x="497" 
d="M201 303h180v196q0 48 -24.5 73.5t-70.5 25.5h-85q-46 0 -70 -25.5t-24 -73.5v-97q0 -48 24 -73.5t70 -25.5zM290 0h-191q-12 0 -12 11v24q0 10 12 10h187q46 0 70 25.5t24 73.5v114h-183q-65 0 -103 38t-38 104v101q0 66 38 104t103 38h93q65 0 103 -38t38 -104v-359
q0 -66 -38 -104t-103 -38z" />
    <glyph glyph-name="colon" unicode=":" horiz-adv-x="191" 
d="M123 499v-120q0 -11 -10 -11h-35q-11 0 -11 11v120q0 11 11 11h35q10 0 10 -11zM123 131v-119q0 -12 -10 -12h-35q-11 0 -11 12v119q0 11 11 11h35q10 0 10 -11z" />
    <glyph glyph-name="semicolon" unicode=";" horiz-adv-x="191" 
d="M123 131v-78q0 -19 -11 -57l-29 -91q-1 -7 -8.5 -7t-7.5 9v224q0 11 11 11h35q10 0 10 -11zM123 499v-120q0 -11 -10 -11h-35q-11 0 -11 11v120q0 11 11 11h35q10 0 10 -11z" />
    <glyph glyph-name="less" unicode="&#x3c;" horiz-adv-x="513" 
d="M448 480v-24q0 -12 -9 -14l-330 -120l330 -119q9 -2 9 -14v-25q0 -12 -14 -8l-356 136q-13 4 -13 17v27q0 12 13 17l356 135q14 6 14 -8z" />
    <glyph glyph-name="equal" unicode="=" horiz-adv-x="531" 
d="M86 432h359q12 0 12 -11v-21q0 -11 -12 -11h-359q-12 0 -12 11v21q0 11 12 11zM86 253h359q12 0 12 -11v-21q0 -11 -12 -11h-359q-12 0 -12 11v21q0 11 12 11z" />
    <glyph glyph-name="greater" unicode="&#x3e;" horiz-adv-x="531" 
d="M74 456v24q0 14 14 8l357 -135q12 -5 12 -17v-27q0 -13 -12 -17l-357 -136q-14 -4 -14 8v25q0 11 10 14l329 119l-329 120q-10 2 -10 14z" />
    <glyph glyph-name="question" unicode="?" horiz-adv-x="473" 
d="M271 131v-119q0 -12 -10 -12h-36q-10 0 -10 12v119q0 11 10 11h36q10 0 10 -11zM268 256v-36q0 -12 -10 -12h-28q-11 0 -11 12v33q0 41 11.5 63.5t46.5 52.5l36 31q39 33 39 74v28q0 96 -95 96h-41q-94 0 -94 -96v-42q0 -12 -11 -12h-29q-11 0 -11 12v43q0 65 38 102
t103 37h49q65 0 103 -37t38 -102v-31q0 -54 -48 -93l-46 -39q-27 -22 -33.5 -38t-6.5 -46z" />
    <glyph glyph-name="at" unicode="@" horiz-adv-x="753" 
d="M515 -58h-182q-101 0 -175.5 67.5t-74.5 183.5v158q0 115 73.5 183.5t173.5 68.5h194q67 0 107.5 -40t40.5 -106v-239q0 -61 -37 -98t-97 -37h-30q-15 0 -25.5 9.5t-10.5 24.5v20h-4q-27 -52 -107 -52q-61 0 -97.5 37.5t-36.5 102.5v93q0 66 37 104t100 38h142
q11 0 11 -12v-318q0 -9 11 -9h9q46 0 71 26t25 74v234q0 52 -29.5 81.5t-80.5 29.5h-193q-86 0 -147 -59.5t-61 -156.5v-155q0 -97 61.5 -156.5t148.5 -59.5h183q11 0 11 -10v-16q0 -11 -11 -11zM472 225v184q0 9 -10 9h-94q-46 0 -70 -25.5t-24 -73.5v-94q0 -48 24 -73.5
t70 -25.5h1q48 0 75.5 26t27.5 73z" />
    <glyph glyph-name="A" unicode="A" horiz-adv-x="533" 
d="M68 0h-31q-11 0 -7 12l199 619q3 12 14 12h47q10 0 14 -12l199 -619q3 -12 -7 -12h-32q-10 0 -13 12l-54 160h-262l-54 -160q-4 -12 -13 -12zM264 588l-115 -371h235l-116 371h-4z" />
    <glyph glyph-name="B" unicode="B" horiz-adv-x="546" 
d="M145 44h186q95 0 95 96v69q0 95 -104 95h-177q-10 0 -10 -8v-243q0 -9 10 -9zM145 348h176q47 0 72.5 25t25.5 71v59q0 96 -95 96h-179q-10 0 -10 -9v-233q0 -9 10 -9zM85 12v619q0 12 10 12h233q65 0 103 -37t38 -102v-61q0 -91 -86 -117q37 -2 65 -34t28 -83v-70
q0 -65 -38 -102t-103 -37h-240q-10 0 -10 12z" />
    <glyph glyph-name="C" unicode="C" horiz-adv-x="542" 
d="M341 0h-126q-65 0 -102.5 38t-37.5 104v359q0 66 37.5 104t102.5 38h126q65 0 102.5 -38t37.5 -104v-49q0 -12 -11 -12h-28q-11 0 -11 12v47q0 48 -24.5 73.5t-70.5 25.5h-117q-46 0 -70 -26t-24 -73v-355q0 -47 24 -73t70 -26h117q46 0 70.5 25.5t24.5 73.5v47
q0 12 11 12h28q11 0 11 -12v-49q0 -66 -37.5 -104t-102.5 -38z" />
    <glyph glyph-name="D" unicode="D" horiz-adv-x="557" 
d="M145 45h192q46 0 70.5 25.5t24.5 73.5v355q0 48 -24.5 73.5t-70.5 25.5h-192q-10 0 -10 -9v-535q0 -9 10 -9zM85 12v619q0 12 10 12h247q65 0 102.5 -38t37.5 -104v-359q0 -66 -37.5 -104t-102.5 -38h-247q-10 0 -10 12z" />
    <glyph glyph-name="E" unicode="E" horiz-adv-x="481" 
d="M404 0h-309q-10 0 -10 12v619q0 12 10 12h309q12 0 12 -11v-23q0 -11 -12 -11h-259q-10 0 -10 -9v-230q0 -9 10 -9h231q11 0 11 -11v-23q0 -11 -11 -11h-231q-10 0 -10 -9v-242q0 -9 10 -9h259q12 0 12 -11v-23q0 -11 -12 -11z" />
    <glyph glyph-name="F" unicode="F" horiz-adv-x="459" 
d="M124 0h-29q-10 0 -10 12v619q0 12 10 12h308q12 0 12 -11v-23q0 -11 -12 -11h-258q-10 0 -10 -9v-243q0 -8 10 -8h231q11 0 11 -11v-24q0 -11 -11 -11h-231q-10 0 -10 -8v-272q0 -12 -11 -12z" />
    <glyph glyph-name="G" unicode="G" horiz-adv-x="539" 
d="M324 0h-109q-65 0 -102.5 38t-37.5 104v359q0 66 37.5 104t102.5 38h109q65 0 103 -38t38 -104v-45q0 -12 -11 -12h-29q-11 0 -11 12v43q0 48 -24 73.5t-70 25.5h-101q-46 0 -70 -26t-24 -73v-355q0 -47 24 -73t70 -26h101q46 0 70 25.5t24 73.5v132q0 9 -9 9h-115
q-11 0 -11 11v23q0 11 11 11h156q19 0 19 -20v-168q0 -66 -38 -104t-103 -38z" />
    <glyph glyph-name="H" unicode="H" horiz-adv-x="570" 
d="M124 0h-29q-10 0 -10 12v619q0 12 10 12h29q11 0 11 -12v-273q0 -9 10 -9h280q10 0 10 9v273q0 12 10 12h29q11 0 11 -12v-619q0 -12 -11 -12h-29q-10 0 -10 12v283q0 9 -10 9h-280q-10 0 -10 -9v-283q0 -12 -11 -12z" />
    <glyph glyph-name="I" unicode="I" horiz-adv-x="230" 
d="M140 631v-619q0 -12 -11 -12h-29q-10 0 -10 12v619q0 12 10 12h29q11 0 11 -12z" />
    <glyph glyph-name="J" unicode="J" horiz-adv-x="499" 
d="M380 643h28q11 0 11 -11v-490q0 -66 -37.5 -104t-102.5 -38h-100q-65 0 -103 38t-38 104v83q0 11 11 11h29q11 0 11 -11v-81q0 -48 24 -73.5t70 -25.5h91q46 0 70.5 25.5t24.5 73.5v487q0 12 11 12z" />
    <glyph glyph-name="K" unicode="K" horiz-adv-x="530" 
d="M124 0h-29q-10 0 -10 12v619q0 12 10 12h29q11 0 11 -12v-369h4q6 16 18 33l254 336q9 12 21 12h35q13 0 4 -12l-201 -269l232 -350q8 -12 -6 -12h-28q-15 0 -22 12l-208 312l-103 -124v-188q0 -12 -11 -12z" />
    <glyph glyph-name="L" unicode="L" horiz-adv-x="451" 
d="M413 0h-318q-10 0 -10 12v619q0 12 10 12h29q11 0 11 -12v-575q0 -9 10 -9h268q12 0 12 -11v-25q0 -11 -12 -11z" />
    <glyph glyph-name="M" unicode="M" horiz-adv-x="696" 
d="M547 643h54q10 0 10 -12v-619q0 -12 -10 -12h-29q-11 0 -11 12v554h-4l-177 -415q-6 -11 -15 -11h-33q-10 0 -14 11l-180 416h-4v-555q0 -12 -10 -12h-29q-10 0 -10 12v619q0 12 10 12h54q7 0 9 -6l188 -439h4l188 439q2 6 9 6z" />
    <glyph glyph-name="N" unicode="N" horiz-adv-x="579" 
d="M124 0h-29q-10 0 -10 12v619q0 12 10 12h27q9 0 12 -6l307 -528h4v522q0 12 11 12h28q11 0 11 -12v-619q0 -12 -11 -12h-23q-9 0 -16 11l-306 524h-4v-523q0 -12 -11 -12z" />
    <glyph glyph-name="O" unicode="O" horiz-adv-x="553" 
d="M219 45h114q46 0 70.5 25.5t24.5 73.5v355q0 48 -24.5 73.5t-70.5 25.5h-114q-46 0 -70 -26t-24 -73v-355q0 -47 24 -73t70 -26zM338 0h-123q-65 0 -102.5 38t-37.5 104v359q0 66 37.5 104t102.5 38h123q65 0 102.5 -38t37.5 -104v-359q0 -66 -37.5 -104t-102.5 -38z" />
    <glyph glyph-name="P" unicode="P" horiz-adv-x="524" 
d="M124 0h-29q-10 0 -10 12v619q0 12 10 12h230q65 0 103 -38t38 -104v-117q0 -66 -38 -104t-103 -38h-180q-10 0 -10 -8v-222q0 -12 -11 -12zM145 288h176q46 0 70 25.5t24 72.5v113q0 48 -24 73.5t-70 25.5h-176q-10 0 -10 -9v-293q0 -8 10 -8z" />
    <glyph glyph-name="Q" unicode="Q" horiz-adv-x="556" 
d="M221 45h114q46 0 70.5 25.5t24.5 73.5v355q0 48 -24.5 73.5t-70.5 25.5h-114q-46 0 -70 -25.5t-24 -73.5v-355q0 -48 24 -73.5t70 -25.5zM416 -133h-28q-13 0 -20 12l-74 121h-77q-65 0 -103 38t-38 104v359q0 66 38 104t103 38h122q65 0 103 -38t38 -104v-359
q0 -63 -35.5 -101t-96.5 -40l75 -121q7 -13 -7 -13z" />
    <glyph glyph-name="R" unicode="R" horiz-adv-x="534" 
d="M124 0h-29q-10 0 -10 12v619q0 12 10 12h228q65 0 103 -38t38 -104v-95q0 -56 -28.5 -92t-77.5 -46v-4l119 -252q6 -12 -7 -12h-31q-13 0 -18 12l-118 252h-158q-10 0 -10 -9v-243q0 -12 -11 -12zM145 307h173q46 0 71 25.5t25 72.5v94q0 47 -25 73t-71 26h-173
q-10 0 -10 -9v-273q0 -9 10 -9z" />
    <glyph glyph-name="S" unicode="S" horiz-adv-x="562" 
d="M81 142v36q0 11 11 11h29q11 0 11 -11v-33q0 -100 97 -100h104q97 0 97 101v42q0 44 -36 69t-87 36l-102.5 23t-87.5 44t-36 86v55q0 66 38 104t103 38h116q65 0 103 -38t38 -104v-28q0 -11 -11 -11h-29q-11 0 -11 11v25q0 100 -97 100h-103q-96 0 -96 -102v-50
q0 -69 123 -93q51 -10 102.5 -23t87.5 -47t36 -92v-49q0 -66 -38 -104t-103 -38h-118q-65 0 -103 38t-38 104z" />
    <glyph glyph-name="T" unicode="T" horiz-adv-x="420" 
d="M225 0h-29q-11 0 -11 12v577q0 9 -10 9h-145q-12 0 -12 11v23q0 11 12 11h360q12 0 12 -11v-23q0 -11 -12 -11h-145q-10 0 -10 -9v-577q0 -12 -10 -12z" />
    <glyph glyph-name="U" unicode="U" horiz-adv-x="552" 
d="M433 643h28q11 0 11 -11v-490q0 -66 -37.5 -104t-102.5 -38h-112q-65 0 -102.5 38t-37.5 104v489q0 12 10 12h29q11 0 11 -12v-487q0 -47 24 -73t70 -26h103q46 0 70.5 25.5t24.5 73.5v487q0 12 11 12z" />
    <glyph glyph-name="V" unicode="V" horiz-adv-x="500" 
d="M273 0h-46q-10 0 -13 12l-186 619q-4 12 9 12h31q10 0 13 -12l167 -569h4l167 569q3 12 13 12h31q12 0 9 -12l-186 -619q-3 -12 -13 -12z" />
    <glyph glyph-name="W" unicode="W" horiz-adv-x="794" 
d="M233 0h-50q-11 0 -14 12l-137 619q-3 12 10 12h33q11 0 13 -12l119 -574h5l152 575q2 11 13 11h38q12 0 14 -11l153 -575h5l118 574q2 12 14 12h34q12 0 9 -12l-137 -619q-2 -12 -13 -12h-51q-11 0 -14 12l-148 564h-4l-149 -564q-3 -12 -13 -12z" />
    <glyph glyph-name="X" unicode="X" horiz-adv-x="504" 
d="M75 0h-34q-11 0 -6 12l183 327l-173 292q-3 5 -0.5 8.5t7.5 3.5h31q13 0 18 -12l150 -257h4l148 257q7 12 17 12h33q13 0 7 -12l-173 -291l182 -328q7 -12 -6 -12h-34q-9 0 -15 10l-160 290h-4l-160 -290q-6 -10 -15 -10z" />
    <glyph glyph-name="Y" unicode="Y" horiz-adv-x="493" 
d="M261 0h-29q-11 0 -11 12v231l-194 388q-6 12 7 12h36q9 0 14 -12l160 -327h5l159 327q5 12 14 12h37q11 0 7 -12l-195 -388v-231q0 -12 -10 -12z" />
    <glyph glyph-name="Z" unicode="Z" horiz-adv-x="482" 
d="M42 11v26q0 12 4 17l327 538v4h-308q-12 0 -12 11v25q0 11 12 11h353q12 0 12 -11v-33q0 -9 -5 -17l-324 -531v-4h327q12 0 12 -10v-26q0 -11 -12 -11h-375q-11 0 -11 11z" />
    <glyph glyph-name="bracketleft" unicode="[" horiz-adv-x="287" 
d="M207 -101h-133q-10 0 -10 12v720q0 12 10 12h133q11 0 11 -11v-18q0 -11 -11 -11h-89q-9 0 -9 -9v-646q0 -9 9 -9h89q11 0 11 -11v-18q0 -11 -11 -11z" />
    <glyph glyph-name="backslash" unicode="\" horiz-adv-x="396" 
d="M70 643h28q10 0 16 -15q16 -35 220 -614q6 -14 -10 -14h-26q-11 0 -16 13l-219 615q-7 15 7 15z" />
    <glyph glyph-name="bracketright" unicode="]" horiz-adv-x="287" 
d="M60 -90v18q0 11 12 11h88q10 0 10 9v646q0 9 -10 9h-88q-12 0 -12 11v18q0 11 12 11h132q11 0 11 -12v-720q0 -12 -11 -12h-132q-12 0 -12 11z" />
    <glyph glyph-name="asciicircum" unicode="^" horiz-adv-x="465" 
d="M91 364h-24q-7 0 -9.5 4t1.5 10l131 250q8 15 24 15h37q17 0 24 -15l131 -250q4 -6 1.5 -10t-9.5 -4h-24q-11 0 -17 12l-125 236l-124 -236q-8 -12 -17 -12z" />
    <glyph glyph-name="underscore" unicode="_" horiz-adv-x="372" 
d="M360 -99h-348q-12 0 -12 11v15q0 10 12 10h348q12 0 12 -10v-15q0 -11 -12 -11z" />
    <glyph glyph-name="grave" unicode="`" horiz-adv-x="269" 
d="M195 574h-20q-10 0 -16 9l-90 109q-4 4 -2 7.5t7 3.5h45q13 0 18 -11l63 -106q6 -12 -5 -12z" />
    <glyph glyph-name="a" unicode="a" horiz-adv-x="502" 
d="M269 0h-64q-65 0 -102.5 38t-37.5 104v226q0 66 37.5 104t102.5 38h212q10 0 10 -12v-486q0 -12 -10 -12h-29q-11 0 -11 12v40h-4q-26 -52 -104 -52zM377 143v313q0 9 -10 9h-158q-46 0 -70 -26t-24 -73v-222q0 -47 24 -73t70 -26h65q48 0 75.5 25.5t27.5 72.5z" />
    <glyph glyph-name="b" unicode="b" horiz-adv-x="504" 
d="M135 45h159q46 0 70.5 25.5t24.5 73.5v231q0 47 -24.5 72.5t-70.5 25.5h-66q-48 0 -75.5 -25.5t-27.5 -72.5v-321q0 -9 10 -9zM75 12v679q0 12 10 12h29q11 0 11 -12v-225h4q28 52 104 52h66q65 0 102.5 -38t37.5 -103v-235q0 -66 -37.5 -104t-102.5 -38h-214
q-10 0 -10 12z" />
    <glyph glyph-name="c" unicode="c" horiz-adv-x="394" 
d="M360 34v-23q0 -11 -11 -11h-144q-65 0 -102.5 38t-37.5 104v226q0 66 37.5 104t102.5 38h144q11 0 11 -11v-24q0 -10 -11 -10h-140q-46 0 -70 -26t-24 -73v-222q0 -47 24 -73t70 -26h140q11 0 11 -11z" />
    <glyph glyph-name="d" unicode="d" horiz-adv-x="504" 
d="M270 0h-67q-64 0 -101 38t-37 104v226q0 66 37 104t101 38h67q77 0 105 -52h4v233q0 12 10 12h29q11 0 11 -12v-679q0 -12 -11 -12h-29q-10 0 -10 12v40h-4q-28 -52 -105 -52zM379 143v224q0 47 -27.5 72.5t-75.5 25.5h-67q-46 0 -70 -26t-24 -73v-222q0 -47 24 -73
t70 -26h67q48 0 75.5 25.5t27.5 72.5z" />
    <glyph glyph-name="e" unicode="e" horiz-adv-x="492" 
d="M414 0h-209q-65 0 -102.5 38t-37.5 104v226q0 66 37.5 104t102.5 38h86q65 0 103 -38t38 -104v-127q0 -12 -12 -12h-296q-9 0 -9 -9v-77q0 -47 24 -72.5t70 -25.5h205q11 0 11 -11v-23q0 -11 -11 -11zM124 269h249q9 0 9 9v89q0 47 -24 72.5t-70 25.5h-79
q-46 0 -70 -25.5t-24 -72.5v-89q0 -9 9 -9z" />
    <glyph glyph-name="f" unicode="f" horiz-adv-x="303" 
d="M180 510h91q12 0 12 -11v-23q0 -11 -12 -11h-91q-9 0 -9 -9v-444q0 -12 -11 -12h-29q-11 0 -11 12v444q0 9 -9 9h-64q-11 0 -11 11v23q0 11 11 11h64q9 0 9 9v44q0 140 127 140h24q12 0 12 -11v-23q0 -11 -12 -11h-19q-45 0 -63 -24t-18 -73v-42q0 -9 9 -9z" />
    <glyph glyph-name="g" unicode="g" horiz-adv-x="506" 
d="M273 29h-65q-64 0 -101.5 38t-37.5 103v198q0 66 37.5 104t102.5 38h212q11 0 11 -12v-496q0 -66 -38 -104t-103 -38h-182q-11 0 -11 11v24q0 10 11 10h178q46 0 70 25.5t24 73.5v77h-4q-25 -52 -104 -52zM381 172v284q0 9 -9 9h-158q-46 0 -70.5 -25.5t-24.5 -73.5v-194
q0 -47 24.5 -72.5t70.5 -25.5h64q48 0 75.5 25.5t27.5 72.5z" />
    <glyph glyph-name="h" unicode="h" horiz-adv-x="507" 
d="M114 0h-29q-10 0 -10 12v679q0 12 10 12h29q11 0 11 -12v-233h4q28 52 104 52h66q64 0 101 -38t37 -104v-356q0 -12 -10 -12h-29q-11 0 -11 12v354q0 47 -24 73t-70 26h-65q-48 0 -75.5 -25.5t-27.5 -72.5v-355q0 -12 -11 -12z" />
    <glyph glyph-name="i" unicode="i" horiz-adv-x="210" 
d="M80 594v96q0 11 10 11h30q10 0 10 -11v-96q0 -12 -10 -12h-30q-10 0 -10 12zM80 12v486q0 12 10 12h29q11 0 11 -12v-486q0 -12 -10 -12h-30q-10 0 -10 12z" />
    <glyph glyph-name="j" unicode="j" horiz-adv-x="210" 
d="M80 594v96q0 11 10 11h30q10 0 10 -11v-96q0 -12 -10 -12h-30q-10 0 -10 12zM-11 -140h-29q-12 0 -12 11v24q0 10 12 10h21q99 0 99 103v490q0 12 10 12h29q11 0 11 -12v-496q0 -66 -38 -104t-103 -38z" />
    <glyph glyph-name="k" unicode="k" horiz-adv-x="431" 
d="M362 510h31q6 0 8 -3.5t-2 -8.5l-153 -232v-4l171 -250q4 -5 2 -8.5t-8 -3.5h-31q-15 0 -23 12l-165 243q-4 8 0 16l150 229q6 10 20 10zM114 0h-29q-10 0 -10 12v679q0 12 10 12h29q11 0 11 -12v-679q0 -12 -11 -12z" />
    <glyph glyph-name="l" unicode="l" horiz-adv-x="210" 
d="M119 0h-29q-10 0 -10 12v679q0 12 10 12h29q11 0 11 -12v-679q0 -12 -11 -12z" />
    <glyph glyph-name="m" unicode="m" horiz-adv-x="769" 
d="M114 0h-29q-10 0 -10 12v486q0 12 10 12h29q11 0 11 -12v-40h4q29 52 106 52h41q88 0 122 -70q15 35 51 52.5t74 17.5h37q65 0 102 -38t37 -104v-356q0 -12 -11 -12h-29q-11 0 -11 12v354q0 48 -24 73.5t-70 25.5h-37q-48 0 -76 -27.5t-28 -74.5v-351q0 -12 -11 -12h-29
q-11 0 -11 12v354q0 48 -24 73.5t-70 25.5h-40q-48 0 -75.5 -25.5t-27.5 -72.5v-355q0 -12 -11 -12z" />
    <glyph glyph-name="n" unicode="n" horiz-adv-x="507" 
d="M114 0h-29q-10 0 -10 12v486q0 12 10 12h29q11 0 11 -12v-40h4q28 52 104 52h66q64 0 101 -38t37 -104v-356q0 -12 -10 -12h-29q-11 0 -11 12v354q0 47 -24 73t-70 26h-65q-48 0 -75.5 -25.5t-27.5 -72.5v-355q0 -12 -11 -12z" />
    <glyph glyph-name="o" unicode="o" horiz-adv-x="496" 
d="M291 0h-86q-65 0 -102.5 38t-37.5 104v226q0 66 37.5 104t102.5 38h86q65 0 103 -38t38 -104v-226q0 -66 -38 -104t-103 -38zM209 45h78q46 0 70.5 25.5t24.5 72.5v224q0 47 -24.5 72.5t-70.5 25.5h-78q-46 0 -70 -25.5t-24 -72.5v-224q0 -47 24 -72.5t70 -25.5z" />
    <glyph glyph-name="p" unicode="p" horiz-adv-x="504" 
d="M114 -149h-29q-10 0 -10 11v636q0 12 10 12h29q11 0 11 -12v-40h4q28 52 104 52h68q64 0 101 -38t37 -104v-226q0 -66 -37 -104t-101 -38h-68q-76 0 -104 52h-4v-190q0 -11 -11 -11zM228 45h66q46 0 70.5 25.5t24.5 73.5v222q0 48 -24.5 73.5t-70.5 25.5h-66
q-48 0 -75.5 -25.5t-27.5 -72.5v-224q0 -47 27.5 -72.5t75.5 -25.5z" />
    <glyph glyph-name="q" unicode="q" horiz-adv-x="502" 
d="M377 148v308q0 9 -10 9h-158q-46 0 -70 -26t-24 -73v-222q0 -47 24 -73t70 -26h63q49 0 77 28t28 75zM265 0h-60q-65 0 -102.5 38t-37.5 104v226q0 66 37.5 104t102.5 38h212q10 0 10 -12v-636q0 -11 -10 -11h-29q-11 0 -11 11v192h-4q-13 -24 -33.5 -37t-36 -15
t-38.5 -2z" />
    <glyph glyph-name="r" unicode="r" horiz-adv-x="313" 
d="M114 0h-29q-10 0 -10 12v486q0 12 10 12h29q11 0 11 -12v-42h4q11 21 39 37.5t69 16.5h39q11 0 11 -11v-24q0 -11 -11 -10h-47q-49 0 -76.5 -30t-27.5 -81v-342q0 -12 -11 -12z" />
    <glyph glyph-name="s" unicode="s" horiz-adv-x="431" 
d="M240 0h-174q-11 0 -11 11v23q0 10 11 10h169q90 0 90 70v24q0 65 -56 85l-125 48q-51 20 -72.5 47t-21.5 75q0 117 129 117h162q11 0 11 -11v-23q0 -10 -11 -10h-157q-41 0 -61.5 -18t-20.5 -42v-23q0 -28 15.5 -44t47.5 -27l125 -50q52 -17 69.5 -50.5t17.5 -93.5
t-33.5 -89t-103.5 -29z" />
    <glyph glyph-name="t" unicode="t" horiz-adv-x="347" 
d="M97 465h-61q-11 0 -11 10v24q0 11 11 11h61q9 0 9 9v81q0 12 11 12h29q11 0 11 -12v-81q0 -9 9 -9h119q11 0 11 -11v-24q0 -10 -11 -10h-119q-9 0 -9 -9v-315q0 -46 26 -71t73 -25h39q11 0 11 -11v-23q0 -11 -11 -11h-43q-66 0 -106 37t-40 102v317q0 9 -9 9z" />
    <glyph glyph-name="u" unicode="u" horiz-adv-x="507" 
d="M274 0h-66q-64 0 -101 38t-37 104v356q0 12 10 12h29q11 0 11 -12v-354q0 -47 24 -73t70 -26h65q48 0 75.5 25.5t27.5 72.5v355q0 12 11 12h29q10 0 10 -12v-486q0 -12 -10 -12h-29q-11 0 -11 12v40h-4q-26 -52 -104 -52z" />
    <glyph glyph-name="v" unicode="v" horiz-adv-x="416" 
d="M28 510h31q10 0 13 -12l134 -442h4l133 442q4 12 13 12h32q11 0 7 -12l-151 -486q-3 -12 -14 -12h-44q-11 0 -15 12l-151 486q-3 12 8 12z" />
    <glyph glyph-name="w" unicode="w" horiz-adv-x="683" 
d="M214 0h-40q-10 0 -13 12l-140 486q-3 12 8 12h32q11 0 13 -12l118 -435h5l116 435q2 12 14 12h29q12 0 14 -12l114 -435h5l119 435q3 12 13 12h32q12 0 8 -12l-139 -486q-3 -12 -14 -12h-40q-11 0 -14 12l-111 422h-5l-110 -422q-3 -12 -14 -12z" />
    <glyph glyph-name="x" unicode="x" horiz-adv-x="413" 
d="M69 0h-37q-13 0 -5 12l145 248l-138 238q-8 12 5 12h36q11 0 17 -12l113 -204h4l108 204q7 12 17 12h36q13 0 5 -12l-135 -236l147 -250q7 -12 -5 -12h-40q-8 0 -14 12l-119 214h-4l-119 -214q-7 -12 -17 -12z" />
    <glyph glyph-name="y" unicode="y" horiz-adv-x="459" 
d="M99 -152h-37q-11 0 -11 11v24q0 11 11 11h27q30 0 51 8.5t37 31.5t21 36q14 31 23 57h-19q-11 0 -14 12l-159 459q-4 12 8 12h31q10 0 13 -12l147 -429h4l147 429q3 12 13 12h30q12 0 9 -12q-179 -524 -186.5 -542t-27.5 -49q-38 -59 -118 -59z" />
    <glyph glyph-name="z" unicode="z" horiz-adv-x="405" 
d="M34 11v14q0 11 6 19l262 417v4h-250q-11 0 -11 11v23q0 11 11 11h300q12 0 12 -11v-22q0 -9 -5 -17l-258 -411v-4h258q12 0 12 -11v-23q0 -11 -12 -11h-313q-12 0 -12 11z" />
    <glyph glyph-name="braceleft" unicode="{" horiz-adv-x="298" 
d="M223 643h5q11 0 11 -11v-19q0 -11 -11 -11h-4q-39 0 -54.5 -24.5t-15.5 -73.5v-138q0 -78 -54 -96q54 -16 54 -96v-137q0 -49 15.5 -73.5t54.5 -24.5h4q11 0 11 -11v-19q0 -11 -11 -11h-5q-56 0 -84.5 37t-28.5 105v131q0 41 -15.5 58.5t-46.5 17.5q-12 0 -12 11v24
q0 11 12 11q31 0 46.5 17.5t15.5 58.5v132q0 68 28.5 105t84.5 37z" />
    <glyph glyph-name="bar" unicode="|" horiz-adv-x="207" 
d="M124 631v-619q0 -12 -11 -12h-20q-11 0 -11 12v619q0 12 11 12h20q11 0 11 -12z" />
    <glyph glyph-name="braceright" unicode="}" horiz-adv-x="298" 
d="M166 501v-132q0 -41 15.5 -58.5t46.5 -17.5q11 0 11 -11v-24q0 -11 -11 -11q-31 0 -46.5 -17.5t-15.5 -58.5v-131q0 -68 -28.5 -105t-84.5 -37h-5q-12 0 -12 11v19q0 11 12 11h4q38 0 53.5 24.5t15.5 73.5v137q0 79 54 96q-54 19 -54 96v138q0 49 -15.5 73.5t-53.5 24.5
h-4q-12 0 -12 11v19q0 11 12 11h5q56 0 84.5 -37t28.5 -105z" />
    <glyph glyph-name="asciitilde" unicode="~" horiz-adv-x="523" 
d="M259 302.5q-66 14.5 -91.5 14.5t-56.5 -11t-32 -11q-9 0 -9 11v19q0 12 19 20q37 15 73 15t101 -15t92 -15t57 11t32 11q9 0 9 -11v-19q0 -11 -18 -19q-35 -15 -72.5 -15t-103.5 14.5z" />
    <glyph glyph-name="uni00A0" unicode="&#xa0;" horiz-adv-x="267" 
 />
    <glyph glyph-name="exclamdown" unicode="&#xa1;" horiz-adv-x="237" 
d="M135 501h-32q-11 0 -11 11v119q0 12 11 12h32q10 0 10 -12v-119q0 -11 -10 -11zM111 435h15q8 0 10 -18t7 -123.5t5 -183.5v-98q0 -12 -11 -12h-37q-10 0 -10 12v98q0 79 4 185.5t6 126.5q3 13 11 13z" />
    <glyph glyph-name="cent" unicode="&#xa2;" horiz-adv-x="414" 
d="M271 -90h-24q-11 0 -11 11v79h-33q-64 0 -101 38.5t-37 103.5v226q0 65 37 103.5t101 38.5h33v91q0 12 11 12h24q11 0 11 -12v-91h81q15 0 15 -11v-24q0 -10 -11 -10h-158q-46 0 -70 -26t-24 -73v-222q0 -47 24 -73t70 -26h158q11 0 11 -10v-24q0 -11 -11 -11h-85v-79
q0 -11 -11 -11z" />
    <glyph glyph-name="sterling" unicode="&#xa3;" horiz-adv-x="528" 
d="M127 44h321q11 0 11 -11v-22q0 -11 -11 -11h-400q-12 0 -12 11v22q0 11 12 11h11q20 0 35 20.5t15 49.5v159h-61q-12 0 -12 11v23q0 10 12 10h61v187q0 65 38 102t103 37h65q65 0 102.5 -36.5t37.5 -102.5v-28q0 -12 -11 -12h-28q-11 0 -11 12v27q0 96 -95 96h-56
q-95 0 -95 -96v-186h162q12 0 12 -10v-23q0 -11 -12 -11h-162v-154q0 -49 -19 -65q-7 -6 -13 -6v-4z" />
    <glyph glyph-name="yen" unicode="&#xa5;" horiz-adv-x="499" 
d="M263 0h-28q-11 0 -11 12v158h-176q-12 0 -12 12v17q0 11 12 11h175v35l-34 67h-141q-12 0 -12 12v17q0 11 12 11h122l-140 279q-5 12 6 12h38q8 0 13 -12l160 -330h4l160 330q5 12 13 12h38q13 0 6 -12l-139 -279h121q12 0 12 -11v-17q0 -12 -12 -12h-141l-34 -67v-35
h175q12 0 12 -11v-17q0 -12 -12 -12h-176v-158q0 -12 -11 -12z" />
    <glyph glyph-name="brokenbar" unicode="&#xa6;" horiz-adv-x="201" 
d="M122 631v-245q0 -11 -10 -11h-23q-11 0 -11 11v245q0 12 11 12h23q10 0 10 -12zM122 257v-245q0 -12 -10 -12h-23q-11 0 -11 12v245q0 11 11 11h23q10 0 10 -11z" />
    <glyph glyph-name="section" unicode="&#xa7;" horiz-adv-x="454" 
d="M345 303q0 34 -17.5 51t-54.5 24l-97 18q-43 9 -68 31v-80q0 -67 72 -81l96 -17q45 -8 69 -28v82zM256 0h-178q-11 0 -11 11v24q0 10 11 10h175q53 0 71.5 23.5t18.5 61.5t-18.5 54t-57.5 23l-106 19q-101 21 -101 119v173q0 125 130 125h161q12 0 12 -11v-24
q0 -10 -12 -10h-160q-39 0 -60 -21t-21 -58t16 -55t59 -26l106 -19q103 -20 103 -115v-170q0 -134 -138 -134z" />
    <glyph glyph-name="dieresis" unicode="&#xa8;" horiz-adv-x="345" 
d="M66 586v106q0 11 11 11h28q10 0 10 -11v-106q0 -12 -10 -12h-28q-11 0 -11 12zM230 586v106q0 11 10 11h28q10 0 10 -11v-106q0 -12 -10 -12h-28q-10 0 -10 12z" />
    <glyph glyph-name="copyright" unicode="&#xa9;" horiz-adv-x="723" 
d="M494 402v-20q0 -10 -9 -10h-22q-10 0 -10 10v16q0 47 -18.5 64t-66.5 17h-18q-48 0 -66.5 -17t-18.5 -64v-159q0 -46 19 -63.5t66 -17.5h18q48 0 66.5 17t18.5 64v22q0 10 10 10h22q9 0 9 -10v-26q0 -113 -121 -113h-27q-121 0 -121 113v167q0 114 121 114h27
q121 0 121 -114zM210 38h303q47 0 72 26t25 74v367q0 48 -25 74t-72 26h-303q-47 0 -72 -26t-25 -74v-367q0 -48 25 -74t72 -26zM205 643h313q61 0 96.5 -36t35.5 -97v-377q0 -61 -35.5 -97t-96.5 -36h-313q-61 0 -97 36t-36 97v377q0 61 36 97t97 36z" />
    <glyph glyph-name="guillemotleft" unicode="&#xab;" horiz-adv-x="431" 
d="M366 120v-24q0 -7 -3.5 -9.5t-9.5 3.5l-136 133q-11 11 -11 23v19q0 12 11 23l136 133q6 6 9.5 3.5t3.5 -9.5v-24q0 -10 -8 -17l-120 -119l120 -118q8 -8 8 -17zM226 120v-24q0 -7 -4 -9.5t-10 3.5l-136 133q-11 11 -11 23v19q0 12 11 23l136 133q6 6 10 3.5t4 -9.5v-24
q0 -9 -9 -17l-120 -119l120 -118q9 -9 9 -17z" />
    <glyph glyph-name="registered" unicode="&#xae;" horiz-adv-x="439" 
d="M236 620h-43v-64h43q18 0 18 18v28q0 18 -18 18zM165 475v159q0 12 11 12h61q21 0 33 -12t12 -33v-26q0 -33 -25 -42l27 -57q6 -12 -5 -12h-10q-9 0 -11 7l-27 60h-38v-56q0 -11 -10 -11h-7q-11 0 -11 11zM174 428h90q77 0 77 80v92q0 80 -77 80h-90q-37 0 -57 -21
t-20 -59v-92q0 -38 20 -59t57 -21zM267 400h-95q-47 0 -75.5 28.5t-28.5 76.5v98q0 48 28.5 76.5t75.5 28.5h95q47 0 75.5 -28.5t28.5 -76.5v-98q0 -48 -28.5 -76.5t-75.5 -28.5z" />
    <glyph glyph-name="macron" unicode="&#xaf;" horiz-adv-x="358" 
d="M280 620h-202q-12 0 -12 11v17q0 10 12 10h202q12 0 12 -10v-17q0 -11 -12 -11z" />
    <glyph glyph-name="degree" unicode="&#xb0;" horiz-adv-x="298" 
d="M169 511h-42q-49 0 -49 49v97q0 47 49 47h42q23 0 36.5 -12.5t13.5 -34.5v-97q0 -23 -13.5 -36t-36.5 -13zM155 540q19 0 25 6.5t6 25.5v69q0 19 -6 25.5t-25 6.5h-12q-19 0 -25.5 -6.5t-6.5 -25.5v-69q0 -18 6.5 -25t25.5 -7h12z" />
    <glyph glyph-name="plusminus" unicode="&#xb1;" horiz-adv-x="523" 
d="M285 391h156q12 0 12 -11v-21q0 -11 -12 -11h-156v-109q0 -12 -12 -12h-23q-12 0 -12 12v109h-156q-12 0 -12 11v21q0 11 12 11h156v110q0 12 12 12h23q12 0 12 -12v-110zM82 173h359q12 0 12 -11v-21q0 -12 -12 -12h-359q-12 0 -12 12v21q0 11 12 11z" />
    <glyph glyph-name="acute" unicode="&#xb4;" horiz-adv-x="269" 
d="M150 703h45q5 0 6.5 -3.5t-1.5 -7.5l-90 -109q-8 -9 -17 -9h-19q-11 0 -5 12l63 106q6 11 18 11z" />
    <glyph glyph-name="paragraph" unicode="&#xb6;" horiz-adv-x="513" 
d="M206 0h-24q-11 0 -11 12v310q-121 2 -121 118v85q0 118 129 118h236q11 0 11 -11v-620q0 -12 -11 -12h-23q-11 0 -11 12v579q0 9 -10 9h-145q-10 0 -10 -9v-579q0 -12 -10 -12z" />
    <glyph glyph-name="periodcentered" unicode="&#xb7;" horiz-adv-x="207" 
d="M131 378v-119q0 -12 -10 -12h-35q-11 0 -11 12v119q0 12 11 12h35q10 0 10 -12z" />
    <glyph glyph-name="cedilla" unicode="&#xb8;" horiz-adv-x="257" 
d="M112 -50q78 0 78 -61v-12q0 -60 -82 -60h-25q-11 0 -11 10v13q0 10 11 10h20q53 0 53 32v2q0 19 -11.5 26t-41.5 7h-13q-18 0 -23 13.5t7 25.5l56 64h44l-62 -66v-4z" />
    <glyph glyph-name="guillemotright" unicode="&#xbb;" horiz-adv-x="431" 
d="M206 391v24q0 7 3.5 9.5t8.5 -3.5l137 -133q11 -11 11 -23v-19q0 -12 -11 -23l-137 -133q-5 -6 -8.5 -3.5t-3.5 9.5v24q0 9 8 17l120 118l-120 119q-8 7 -8 17zM65 391v24q0 7 3.5 9.5t9.5 -3.5l136 -133q12 -12 12 -23v-19q0 -11 -12 -23l-136 -133q-6 -6 -9.5 -3.5
t-3.5 9.5v24q0 9 8 17l120 118l-120 119q-8 7 -8 17z" />
    <glyph glyph-name="questiondown" unicode="&#xbf;" horiz-adv-x="473" 
d="M202 511v119q0 12 11 12h35q10 0 10 -12v-119q0 -11 -10 -11h-35q-11 0 -11 11zM205 386v36q0 12 10 12h28q11 0 11 -12v-33q0 -41 -11.5 -63.5t-46.5 -52.5l-36 -31q-39 -33 -39 -74v-28q0 -96 95 -96h41q94 0 94 96v42q0 12 11 12h29q11 0 11 -12v-43q0 -65 -38 -102
t-103 -37h-49q-65 0 -103 37t-38 102v31q0 54 48 93l45 39q27 22 34 38t7 46z" />
    <glyph glyph-name="Agrave" unicode="&#xc0;" horiz-adv-x="532" 
d="M273 707h-21q-10 0 -16 9l-90 109q-4 5 -1.5 8t7.5 3h44q12 0 18 -11l63 -106q6 -12 -4 -12zM68 0h-31q-11 0 -7 12l199 619q3 12 14 12h47q10 0 14 -12l199 -619q3 -12 -7 -12h-32q-10 0 -13 12l-54 160h-262l-54 -160q-4 -12 -13 -12zM264 588l-115 -371h235l-116 371
h-4z" />
    <glyph glyph-name="Aacute" unicode="&#xc1;" horiz-adv-x="532" 
d="M336 836h45q5 0 7 -3t-2 -8l-90 -109q-6 -9 -16 -9h-20q-11 0 -5 12l63 106q6 11 18 11zM68 0h-31q-11 0 -7 12l199 619q3 12 14 12h47q10 0 14 -12l199 -619q3 -12 -7 -12h-32q-10 0 -13 12l-54 160h-262l-54 -160q-4 -12 -13 -12zM264 588l-115 -371h235l-116 371h-4z
" />
    <glyph glyph-name="Acircumflex" unicode="&#xc2;" horiz-adv-x="532" 
d="M356 707h-24q-10 0 -12 6l-54 97l-53 -97q-2 -6 -12 -6h-24q-12 0 -5 11l64 109q6 9 19 9h22q14 0 20 -9l63 -109q7 -11 -4 -11zM68 0h-31q-11 0 -7 12l199 619q3 12 14 12h47q10 0 14 -12l199 -619q3 -12 -7 -12h-32q-10 0 -13 12l-54 160h-262l-54 -160q-4 -12 -13 -12
zM264 588l-115 -371h235l-116 371h-4z" />
    <glyph glyph-name="Atilde" unicode="&#xc3;" horiz-adv-x="532" 
d="M254.5 713q-13.5 -11 -41.5 -11t-40.5 18.5t-12.5 59.5v39q0 9 8 9h14q9 0 9 -9v-33q0 -31 5.5 -42t20.5 -11t21.5 9t18 39.5t23 40t40 9.5t41 -18.5t12.5 -58.5v-41q0 -10 -8 -10h-14q-9 0 -9 10v34q0 32 -5.5 43t-21 11t-21 -7.5t-16 -38.5t-24 -42zM68 0h-31
q-11 0 -7 12l199 619q3 12 14 12h47q10 0 14 -12l199 -619q3 -12 -7 -12h-32q-10 0 -13 12l-54 160h-262l-54 -160q-4 -12 -13 -12zM264 588l-115 -371h235l-116 371h-4z" />
    <glyph glyph-name="Adieresis" unicode="&#xc4;" horiz-adv-x="532" 
d="M160 719v106q0 11 11 11h28q10 0 10 -11v-106q0 -12 -10 -12h-28q-11 0 -11 12zM323 719v106q0 11 11 11h28q10 0 10 -11v-106q0 -12 -10 -12h-28q-11 0 -11 12zM68 0h-31q-11 0 -7 12l199 619q3 12 14 12h47q10 0 14 -12l199 -619q3 -12 -7 -12h-32q-10 0 -13 12
l-54 160h-262l-54 -160q-4 -12 -13 -12zM264 588l-115 -371h235l-116 371h-4z" />
    <glyph glyph-name="Aring" unicode="&#xc5;" horiz-adv-x="532" 
d="M274 695h-19q-72 0 -72 73v31q0 73 72 73h19q35 0 54.5 -19t19.5 -54v-31q0 -35 -19.5 -54t-54.5 -19zM259 722h11q47 0 47 51v21q0 50 -47 50h-11q-46 0 -46 -50v-21q0 -51 46 -51zM68 0h-31q-11 0 -7 12l199 619q3 12 14 12h47q10 0 14 -12l199 -619q3 -12 -7 -12h-32
q-10 0 -13 12l-54 160h-262l-54 -160q-4 -12 -13 -12zM264 588l-115 -371h235l-116 371h-4z" />
    <glyph glyph-name="AE" unicode="&#xc6;" horiz-adv-x="773" 
d="M42 0h-34q-10 0 -6 12l339 619q7 12 18 12h338q11 0 11 -11v-23q0 -11 -11 -11h-260q-9 0 -9 -9v-230q0 -9 9 -9h232q11 0 11 -11v-23q0 -11 -11 -11h-232q-9 0 -9 -9v-242q0 -9 9 -9h260q11 0 11 -11v-23q0 -11 -11 -11h-309q-11 0 -11 12v160h-230l-89 -160
q-7 -12 -16 -12zM377 219v370h-4l-203 -370h207z" />
    <glyph glyph-name="Ccedilla" unicode="&#xc7;" horiz-adv-x="542" 
d="M470 440h-28q-11 0 -11 12v47q0 48 -24.5 73.5t-70.5 25.5h-117q-46 0 -70 -26t-24 -73v-355q0 -47 24 -73t70 -26h117q46 0 70.5 25.5t24.5 73.5v47q0 12 11 12h28q11 0 11 -12v-49q0 -66 -37.5 -104t-102.5 -38h-20l-46 -48v-4q40 0 59 -14t19 -47v-12q0 -60 -82 -60
h-25q-10 0 -10 11v12q0 10 10 10h20q29 0 41 7t12 25v2q0 19 -11.5 26t-41.5 7h-12q-18 0 -23.5 13.5t6.5 26.5l41 45h-63q-65 0 -102.5 38t-37.5 104v359q0 66 37.5 104t102.5 38h126q65 0 102.5 -38t37.5 -104v-49q0 -12 -11 -12z" />
    <glyph glyph-name="Egrave" unicode="&#xc8;" horiz-adv-x="481" 
d="M271 707h-21q-10 0 -16 9l-90 109q-7 11 5 11h45q12 0 18 -11l63 -106q6 -12 -4 -12zM404 0h-309q-10 0 -10 12v619q0 12 10 12h309q12 0 12 -11v-23q0 -11 -12 -11h-259q-10 0 -10 -9v-230q0 -9 10 -9h231q11 0 11 -11v-23q0 -11 -11 -11h-231q-10 0 -10 -9v-242
q0 -9 10 -9h259q12 0 12 -11v-23q0 -11 -12 -11z" />
    <glyph glyph-name="Eacute" unicode="&#xc9;" horiz-adv-x="481" 
d="M308 836h45q5 0 7 -3t-2 -8l-90 -109q-6 -9 -16 -9h-20q-11 0 -5 12l63 106q6 11 18 11zM404 0h-309q-10 0 -10 12v619q0 12 10 12h309q12 0 12 -11v-23q0 -11 -12 -11h-259q-10 0 -10 -9v-230q0 -9 10 -9h231q11 0 11 -11v-23q0 -11 -11 -11h-231q-10 0 -10 -9v-242
q0 -9 10 -9h259q12 0 12 -11v-23q0 -11 -12 -11z" />
    <glyph glyph-name="Ecircumflex" unicode="&#xca;" horiz-adv-x="481" 
d="M339 707h-24q-10 0 -12 6l-53 97l-54 -97q-2 -6 -12 -6h-24q-12 0 -5 11l64 109q6 9 20 9h21q14 0 20 -9l64 -109q7 -11 -5 -11zM404 0h-309q-10 0 -10 12v619q0 12 10 12h309q12 0 12 -11v-23q0 -11 -12 -11h-259q-10 0 -10 -9v-230q0 -9 10 -9h231q11 0 11 -11v-23
q0 -11 -11 -11h-231q-10 0 -10 -9v-242q0 -9 10 -9h259q12 0 12 -11v-23q0 -11 -12 -11z" />
    <glyph glyph-name="Edieresis" unicode="&#xcb;" horiz-adv-x="481" 
d="M144 719v106q0 11 10 11h28q11 0 11 -11v-106q0 -12 -11 -12h-28q-10 0 -10 12zM307 719v106q0 11 10 11h28q11 0 11 -11v-106q0 -12 -11 -12h-28q-10 0 -10 12zM404 0h-309q-10 0 -10 12v619q0 12 10 12h309q12 0 12 -11v-23q0 -11 -12 -11h-259q-10 0 -10 -9v-230
q0 -9 10 -9h231q11 0 11 -11v-23q0 -11 -11 -11h-231q-10 0 -10 -9v-242q0 -9 10 -9h259q12 0 12 -11v-23q0 -11 -12 -11z" />
    <glyph glyph-name="Igrave" unicode="&#xcc;" horiz-adv-x="230" 
d="M126 707h-20q-10 0 -17 9l-89 109q-9 11 5 11h44q13 0 18 -11l63 -106q6 -12 -4 -12zM140 631v-619q0 -12 -11 -12h-29q-10 0 -10 12v619q0 12 10 12h29q11 0 11 -12z" />
    <glyph glyph-name="Iacute" unicode="&#xcd;" 
d="M181 836h45q5 0 7 -3t-2 -8l-90 -109q-6 -9 -16 -9h-20q-11 0 -5 12l63 106q5 11 18 11zM140 631v-619q0 -12 -11 -12h-29q-10 0 -10 12v619q0 12 10 12h29q11 0 11 -12z" />
    <glyph glyph-name="Icircumflex" unicode="&#xce;" horiz-adv-x="229" 
d="M204 707h-24q-8 0 -12 6l-53 97l-54 -97q-2 -6 -12 -6h-23q-12 0 -5 11l63 109q6 9 20 9h22q13 0 19 -9l64 -109q7 -11 -5 -11zM140 631v-619q0 -12 -11 -12h-29q-10 0 -10 12v619q0 12 10 12h29q11 0 11 -12z" />
    <glyph glyph-name="Idieresis" unicode="&#xcf;" horiz-adv-x="230" 
d="M9 719v106q0 11 10 11h28q11 0 11 -11v-106q0 -12 -11 -12h-28q-10 0 -10 12zM172 719v106q0 11 10 11h28q11 0 11 -11v-106q0 -12 -11 -12h-28q-10 0 -10 12zM140 631v-619q0 -12 -11 -12h-29q-10 0 -10 12v619q0 12 10 12h29q11 0 11 -12z" />
    <glyph glyph-name="Eth" unicode="&#xd0;" horiz-adv-x="514" 
d="M147 45h193q46 0 70.5 25.5t24.5 73.5v355q0 48 -24.5 73.5t-70.5 25.5h-193q-9 0 -9 -9v-234q0 -9 9 -9h148q11 0 11 -11v-20q0 -11 -11 -11h-148q-9 0 -9 -8v-242q0 -9 9 -9zM345 0h-247q-10 0 -10 12v284q0 8 -10 8h-42q-11 0 -11 11v20q0 11 11 11h42q10 0 10 9v276
q0 12 10 12h247q65 0 102.5 -38t37.5 -104v-359q0 -66 -37.5 -104t-102.5 -38z" />
    <glyph glyph-name="Ntilde" unicode="&#xd1;" horiz-adv-x="579" 
d="M278 713q-13 -11 -41 -11t-41 18.5t-13 59.5v39q0 9 9 9h14q8 0 8 -9v-33q0 -30 6 -41.5t20.5 -11.5t21 9t18 39t23.5 40t40 10t41 -18.5t13 -58.5v-41q0 -10 -9 -10h-14q-8 0 -8 10v34q0 31 -6 42.5t-21 11.5t-20.5 -7t-9.5 -17.5t-4.5 -11.5t-1 -3t-1.5 -3
q-11 -35 -24 -46zM124 0h-29q-10 0 -10 12v619q0 12 10 12h27q9 0 12 -6l307 -528h4v522q0 12 11 12h28q11 0 11 -12v-619q0 -12 -11 -12h-23q-9 0 -16 11l-306 524h-4v-523q0 -12 -11 -12z" />
    <glyph glyph-name="Ograve" unicode="&#xd2;" horiz-adv-x="553" 
d="M291 707h-21q-10 0 -16 9l-90 109q-7 11 5 11h45q12 0 18 -11l63 -106q6 -12 -4 -12zM219 45h114q46 0 70.5 25.5t24.5 73.5v355q0 48 -24.5 73.5t-70.5 25.5h-114q-46 0 -70 -26t-24 -73v-355q0 -47 24 -73t70 -26zM338 0h-123q-65 0 -102.5 38t-37.5 104v359
q0 66 37.5 104t102.5 38h123q65 0 102.5 -38t37.5 -104v-359q0 -66 -37.5 -104t-102.5 -38z" />
    <glyph glyph-name="Oacute" unicode="&#xd3;" horiz-adv-x="553" 
d="M335 836h45q12 0 5 -11l-90 -109q-6 -9 -17 -9h-20q-10 0 -4 12l63 106q5 11 18 11zM219 45h114q46 0 70.5 25.5t24.5 73.5v355q0 48 -24.5 73.5t-70.5 25.5h-114q-46 0 -70 -26t-24 -73v-355q0 -47 24 -73t70 -26zM338 0h-123q-65 0 -102.5 38t-37.5 104v359
q0 66 37.5 104t102.5 38h123q65 0 102.5 -38t37.5 -104v-359q0 -66 -37.5 -104t-102.5 -38z" />
    <glyph glyph-name="Ocircumflex" unicode="&#xd4;" horiz-adv-x="553" 
d="M366 707h-24q-10 0 -12 6l-53 97l-54 -97q-2 -6 -12 -6h-24q-11 0 -4 11l63 109q6 9 20 9h22q13 0 19 -9l64 -109q7 -11 -5 -11zM219 45h114q46 0 70.5 25.5t24.5 73.5v355q0 48 -24.5 73.5t-70.5 25.5h-114q-46 0 -70 -26t-24 -73v-355q0 -47 24 -73t70 -26zM338 0h-123
q-65 0 -102.5 38t-37.5 104v359q0 66 37.5 104t102.5 38h123q65 0 102.5 -38t37.5 -104v-359q0 -66 -37.5 -104t-102.5 -38z" />
    <glyph glyph-name="Otilde" unicode="&#xd5;" horiz-adv-x="553" 
d="M264 713q-13 -11 -41.5 -11t-41 18.5t-12.5 59.5v39q0 9 9 9h14q8 0 8 -9v-33q0 -30 6 -41.5t21 -11.5t21.5 9t18 39.5t23 40t39.5 9.5t41 -18.5t13 -58.5v-41q0 -10 -9 -10h-14q-8 0 -8 10v34q0 31 -6 42.5t-21 11.5t-20.5 -7.5t-16.5 -38.5t-24 -42zM219 45h114
q46 0 70.5 25.5t24.5 73.5v355q0 48 -24.5 73.5t-70.5 25.5h-114q-46 0 -70 -26t-24 -73v-355q0 -47 24 -73t70 -26zM338 0h-123q-65 0 -102.5 38t-37.5 104v359q0 66 37.5 104t102.5 38h123q65 0 102.5 -38t37.5 -104v-359q0 -66 -37.5 -104t-102.5 -38z" />
    <glyph glyph-name="Odieresis" unicode="&#xd6;" horiz-adv-x="553" 
d="M170 719v106q0 11 11 11h27q11 0 11 -11v-106q0 -12 -11 -12h-27q-11 0 -11 12zM333 719v106q0 11 11 11h28q10 0 10 -11v-106q0 -12 -10 -12h-28q-11 0 -11 12zM219 45h114q46 0 70.5 25.5t24.5 73.5v355q0 48 -24.5 73.5t-70.5 25.5h-114q-46 0 -70 -26t-24 -73v-355
q0 -47 24 -73t70 -26zM338 0h-123q-65 0 -102.5 38t-37.5 104v359q0 66 37.5 104t102.5 38h123q65 0 102.5 -38t37.5 -104v-359q0 -66 -37.5 -104t-102.5 -38z" />
    <glyph glyph-name="multiply" unicode="&#xd7;" horiz-adv-x="493" 
d="M279 321l114 -113q8 -9 0 -17l-17 -17q-8 -8 -17 0l-113 114l-114 -114q-8 -8 -16 0l-17 17q-9 8 0 17l113 113l-113 113q-8 9 0 17l17 17q8 8 16 0l114 -113l113 113q9 8 17 0l16 -17q9 -8 0 -17z" />
    <glyph glyph-name="Oslash" unicode="&#xd8;" horiz-adv-x="559" 
d="M482 501v-359q0 -66 -38 -104t-102 -38h-125q-74 0 -111 48l-27 -37q-8 -9 -17 -3l-12 8q-8 7 -1 17l37 52q-9 25 -9 57v359q0 66 37.5 104t102.5 38h125q74 0 111 -48l26 36q7 10 17 4l12 -8q8 -7 1 -17l-36 -51q9 -26 9 -58zM127 499v-358l294 410q-20 47 -84 47h-115
q-46 0 -70.5 -25.5t-24.5 -73.5zM431 144v357l-294 -409q22 -47 85 -47h115q46 0 70 25.5t24 73.5z" />
    <glyph glyph-name="Ugrave" unicode="&#xd9;" horiz-adv-x="552" 
d="M296 707h-20q-10 0 -16 9l-90 109q-4 5 -2 8t7 3h45q12 0 18 -11l63 -106q6 -12 -5 -12zM433 643h28q11 0 11 -11v-490q0 -66 -37.5 -104t-102.5 -38h-112q-65 0 -102.5 38t-37.5 104v489q0 12 10 12h29q11 0 11 -12v-487q0 -47 24 -73t70 -26h103q46 0 70.5 25.5
t24.5 73.5v487q0 12 11 12z" />
    <glyph glyph-name="Uacute" unicode="&#xda;" horiz-adv-x="552" 
d="M336 836h44q5 0 7.5 -3t-1.5 -8l-90 -109q-8 -9 -17 -9h-20q-10 0 -4 12l63 106q6 11 18 11zM433 643h28q11 0 11 -11v-490q0 -66 -37.5 -104t-102.5 -38h-112q-65 0 -102.5 38t-37.5 104v489q0 12 10 12h29q11 0 11 -12v-487q0 -47 24 -73t70 -26h103q46 0 70.5 25.5
t24.5 73.5v487q0 12 11 12z" />
    <glyph glyph-name="Ucircumflex" unicode="&#xdb;" horiz-adv-x="552" 
d="M366 707h-24q-10 0 -12 6l-54 97l-53 -97q-2 -6 -12 -6h-24q-12 0 -5 11l64 109q6 9 20 9h21q14 0 20 -9l64 -109q7 -11 -5 -11zM433 643h28q11 0 11 -11v-490q0 -66 -37.5 -104t-102.5 -38h-112q-65 0 -102.5 38t-37.5 104v489q0 12 10 12h29q11 0 11 -12v-487
q0 -47 24 -73t70 -26h103q46 0 70.5 25.5t24.5 73.5v487q0 12 11 12z" />
    <glyph glyph-name="Udieresis" unicode="&#xdc;" horiz-adv-x="552" 
d="M170 719v106q0 11 11 11h27q11 0 11 -11v-106q0 -12 -11 -12h-27q-11 0 -11 12zM333 719v106q0 11 11 11h28q10 0 10 -11v-106q0 -12 -10 -12h-28q-11 0 -11 12zM433 643h28q11 0 11 -11v-490q0 -66 -37.5 -104t-102.5 -38h-112q-65 0 -102.5 38t-37.5 104v489
q0 12 10 12h29q11 0 11 -12v-487q0 -47 24 -73t70 -26h103q46 0 70.5 25.5t24.5 73.5v487q0 12 11 12z" />
    <glyph glyph-name="Yacute" unicode="&#xdd;" horiz-adv-x="493" 
d="M308 836h45q5 0 7 -3t-2 -8l-89 -109q-7 -9 -17 -9h-20q-11 0 -5 12l63 106q6 11 18 11zM261 0h-29q-11 0 -11 12v231l-194 388q-6 12 7 12h36q9 0 14 -12l160 -327h5l159 327q5 12 14 12h37q11 0 7 -12l-195 -388v-231q0 -12 -10 -12z" />
    <glyph glyph-name="Thorn" unicode="&#xde;" horiz-adv-x="501" 
d="M175 178h111q46 0 70.5 25.5t24.5 72.5v90q0 48 -24.5 73.5t-70.5 25.5h-111q-9 0 -9 -9v-269q0 -9 9 -9zM155 0h-29q-11 0 -11 12v619q0 12 11 12h29q11 0 11 -12v-112q0 -9 9 -9h116q65 0 102.5 -38t37.5 -104v-94q0 -65 -37.5 -103t-102.5 -38h-116q-9 0 -9 -9v-112
q0 -12 -11 -12z" />
    <glyph glyph-name="germandbls" unicode="&#xdf;" horiz-adv-x="540" 
d="M255 347h54q47 0 74 26t27 72v55q0 47 -24.5 72.5t-70.5 25.5h-91q-46 0 -70.5 -25.5t-24.5 -72.5v-488q0 -12 -10 -12h-29q-11 0 -11 12v489q0 66 37.5 104t102.5 38h101q65 0 102.5 -38t37.5 -104v-58q0 -85 -76 -118q39 -10 62.5 -43.5t23.5 -77.5v-64
q0 -66 -37.5 -103t-102.5 -37h-94q-12 0 -12 11v23q0 10 12 10h89q46 0 70.5 25.5t24.5 73.5v61q0 45 -31 71.5t-78 26.5h-56q-11 0 -11 10v24q0 11 11 11z" />
    <glyph glyph-name="agrave" unicode="&#xe0;" horiz-adv-x="502" 
d="M293 574h-20q-9 0 -17 9l-89 109q-4 4 -2.5 7.5t7.5 3.5h44q14 0 18 -11l64 -106q4 -12 -5 -12zM269 0h-64q-65 0 -102.5 38t-37.5 104v226q0 66 37.5 104t102.5 38h212q10 0 10 -12v-486q0 -12 -10 -12h-29q-11 0 -11 12v40h-4q-26 -52 -104 -52zM377 143v313q0 9 -10 9
h-158q-46 0 -70 -26t-24 -73v-222q0 -47 24 -73t70 -26h65q48 0 75.5 25.5t27.5 72.5z" />
    <glyph glyph-name="aacute" unicode="&#xe1;" horiz-adv-x="502" 
d="M322 703h45q5 0 7 -3.5t-2 -7.5l-90 -109q-6 -9 -17 -9h-20q-10 0 -4 12l63 106q6 11 18 11zM269 0h-64q-65 0 -102.5 38t-37.5 104v226q0 66 37.5 104t102.5 38h212q10 0 10 -12v-486q0 -12 -10 -12h-29q-11 0 -11 12v40h-4q-26 -52 -104 -52zM377 143v313q0 9 -10 9
h-158q-46 0 -70 -26t-24 -73v-222q0 -47 24 -73t70 -26h65q48 0 75.5 25.5t27.5 72.5z" />
    <glyph glyph-name="acircumflex" unicode="&#xe2;" horiz-adv-x="502" 
d="M352 574h-24q-10 0 -12 6l-53 97l-54 -97q-2 -6 -12 -6h-24q-11 0 -4 11l63 109q6 9 20 9h22q13 0 19 -9l64 -109q7 -11 -5 -11zM269 0h-64q-65 0 -102.5 38t-37.5 104v226q0 66 37.5 104t102.5 38h212q10 0 10 -12v-486q0 -12 -10 -12h-29q-11 0 -11 12v40h-4
q-26 -52 -104 -52zM377 143v313q0 9 -10 9h-158q-46 0 -70 -26t-24 -73v-222q0 -47 24 -73t70 -26h65q48 0 75.5 25.5t27.5 72.5z" />
    <glyph glyph-name="atilde" unicode="&#xe3;" horiz-adv-x="504" 
d="M165 654v39q0 9 8 9h14q9 0 9 -9v-33q0 -31 5.5 -42t20.5 -11t21.5 9t18 39.5t23 40.5t40 10t41 -18.5t12.5 -59.5v-41q0 -10 -8 -10h-14q-9 0 -9 10v34q0 31 -6 42.5t-20.5 11.5t-20 -7t-9.5 -17.5t-4.5 -11.5t-1 -3t-1.5 -3q-11 -35 -24.5 -46t-41.5 -11t-40.5 18.5
t-12.5 59.5zM269 0h-64q-65 0 -102.5 38t-37.5 104v226q0 66 37.5 104t102.5 38h212q10 0 10 -12v-486q0 -12 -10 -12h-29q-11 0 -11 12v40h-4q-26 -52 -104 -52zM377 143v313q0 9 -10 9h-158q-46 0 -70 -26t-24 -73v-222q0 -47 24 -73t70 -26h65q48 0 75.5 25.5t27.5 72.5z
" />
    <glyph glyph-name="adieresis" unicode="&#xe4;" horiz-adv-x="502" 
d="M161 586v106q0 11 11 11h27q11 0 11 -11v-106q0 -12 -11 -12h-27q-11 0 -11 12zM324 586v106q0 11 11 11h28q10 0 10 -11v-106q0 -12 -10 -12h-28q-11 0 -11 12zM269 0h-64q-65 0 -102.5 38t-37.5 104v226q0 66 37.5 104t102.5 38h212q10 0 10 -12v-486q0 -12 -10 -12
h-29q-11 0 -11 12v40h-4q-26 -52 -104 -52zM377 143v313q0 9 -10 9h-158q-46 0 -70 -26t-24 -73v-222q0 -47 24 -73t70 -26h65q48 0 75.5 25.5t27.5 72.5z" />
    <glyph glyph-name="aring" unicode="&#xe5;" horiz-adv-x="502" 
d="M377 143v313q0 9 -10 9h-158q-46 0 -70 -26t-24 -73v-222q0 -47 24 -73t70 -26h65q48 0 75.5 25.5t27.5 72.5zM269 0h-64q-65 0 -102.5 38t-37.5 104v226q0 66 37.5 104t102.5 38h212q10 0 10 -12v-486q0 -12 -10 -12h-29q-11 0 -11 12v40h-4q-26 -52 -104 -52zM202 661
v-38q0 -24 10 -33.5t35 -9.5h14q25 0 35.5 9.5t10.5 33.5v38q0 24 -10.5 33t-35.5 9h-14q-25 0 -35 -9t-10 -33zM174 619v47q0 64 68 64h24q70 0 70 -64v-47q0 -65 -70 -65h-24q-68 0 -68 65z" />
    <glyph glyph-name="ae" unicode="&#xe6;" horiz-adv-x="795" 
d="M425 198v-54q0 -48 24 -73.5t70 -25.5h201q11 0 11 -11v-23q0 -11 -11 -11h-205q-90 0 -121 66q-32 -66 -128 -66h-62q-64 0 -102 37.5t-38 102.5v25q0 65 37.5 102.5t102.5 37.5h162q8 0 8 8v54q0 47 -24.5 72.5t-69.5 25.5h-154q-12 0 -12 11v23q0 11 12 11h153
q91 0 121 -66q33 66 123 66h68q65 0 102.5 -38t37.5 -104v-149q0 -12 -11 -12h-286q-9 0 -9 -9zM685 255v111q0 48 -24.5 73.5t-70.5 25.5h-64q-47 0 -74 -24t-27 -71v-115q0 -8 9 -8h241q10 0 10 8zM375 142v113q0 9 -10 9h-156q-96 0 -96 -99v-22q0 -99 96 -99h63
q48 0 75.5 25t27.5 73z" />
    <glyph glyph-name="ccedilla" unicode="&#xe7;" horiz-adv-x="394" 
d="M349 465h-140q-46 0 -70 -26t-24 -73v-222q0 -47 24 -73t70 -26h140q11 0 11 -11v-23q0 -11 -11 -11h-69l-44 -46v-4q40 0 59 -14t19 -47v-12q0 -60 -82 -60h-24q-12 0 -12 10v13q0 10 12 10h19q53 0 53 32v2q0 19 -11.5 26t-41.5 7h-12q-18 0 -23.5 13.5t6.5 25.5l39 44
h-32q-65 0 -102.5 38t-37.5 104v226q0 66 37.5 104t102.5 38h144q11 0 11 -11v-24q0 -10 -11 -10z" />
    <glyph glyph-name="egrave" unicode="&#xe8;" horiz-adv-x="492" 
d="M269 574h-20q-9 0 -17 9l-90 109q-4 4 -1.5 7.5t7.5 3.5h44q12 0 18 -11l63 -106q6 -12 -4 -12zM414 0h-209q-65 0 -102.5 38t-37.5 104v226q0 66 37.5 104t102.5 38h86q65 0 103 -38t38 -104v-127q0 -12 -12 -12h-296q-9 0 -9 -9v-77q0 -47 24 -72.5t70 -25.5h205
q11 0 11 -11v-23q0 -11 -11 -11zM124 269h249q9 0 9 9v89q0 47 -24 72.5t-70 25.5h-79q-46 0 -70 -25.5t-24 -72.5v-89q0 -9 9 -9z" />
    <glyph glyph-name="eacute" unicode="&#xe9;" horiz-adv-x="492" 
d="M299 703h45q5 0 7 -3.5t-2 -7.5l-90 -109q-6 -9 -17 -9h-19q-11 0 -5 12l63 106q5 11 18 11zM414 0h-209q-65 0 -102.5 38t-37.5 104v226q0 66 37.5 104t102.5 38h86q65 0 103 -38t38 -104v-127q0 -12 -12 -12h-296q-9 0 -9 -9v-77q0 -47 24 -72.5t70 -25.5h205
q11 0 11 -11v-23q0 -11 -11 -11zM124 269h249q9 0 9 9v89q0 47 -24 72.5t-70 25.5h-79q-46 0 -70 -25.5t-24 -72.5v-89q0 -9 9 -9z" />
    <glyph glyph-name="ecircumflex" unicode="&#xea;" horiz-adv-x="492" 
d="M339 574h-24q-10 0 -12 6l-54 97l-53 -97q-2 -6 -12 -6h-24q-12 0 -5 11l64 109q6 9 20 9h21q14 0 20 -9l64 -109q7 -11 -5 -11zM414 0h-209q-65 0 -102.5 38t-37.5 104v226q0 66 37.5 104t102.5 38h86q65 0 103 -38t38 -104v-127q0 -12 -12 -12h-296q-9 0 -9 -9v-77
q0 -47 24 -72.5t70 -25.5h205q11 0 11 -11v-23q0 -11 -11 -11zM124 269h249q9 0 9 9v89q0 47 -24 72.5t-70 25.5h-79q-46 0 -70 -25.5t-24 -72.5v-89q0 -9 9 -9z" />
    <glyph glyph-name="edieresis" unicode="&#xeb;" horiz-adv-x="492" 
d="M143 586v106q0 11 11 11h28q10 0 10 -11v-106q0 -12 -10 -12h-28q-11 0 -11 12zM307 586v106q0 11 10 11h28q10 0 10 -11v-106q0 -12 -10 -12h-28q-10 0 -10 12zM414 0h-209q-65 0 -102.5 38t-37.5 104v226q0 66 37.5 104t102.5 38h86q65 0 103 -38t38 -104v-127
q0 -12 -12 -12h-296q-9 0 -9 -9v-77q0 -47 24 -72.5t70 -25.5h205q11 0 11 -11v-23q0 -11 -11 -11zM124 269h249q9 0 9 9v89q0 47 -24 72.5t-70 25.5h-79q-46 0 -70 -25.5t-24 -72.5v-89q0 -9 9 -9z" />
    <glyph glyph-name="igrave" unicode="&#xec;" horiz-adv-x="210" 
d="M115 574h-20q-9 0 -17 9l-89 109q-4 4 -2.5 7.5t7.5 3.5h44q12 0 18 -11l63 -106q6 -12 -4 -12zM80 12v486q0 12 10 12h29q11 0 11 -12v-486q0 -12 -10 -12h-30q-10 0 -10 12z" />
    <glyph glyph-name="iacute" unicode="&#xed;" horiz-adv-x="208" 
d="M170 703h45q5 0 7 -3.5t-2 -7.5l-90 -109q-6 -9 -17 -9h-19q-11 0 -5 12l63 106q6 11 18 11zM80 12v486q0 12 10 12h29q11 0 11 -12v-486q0 -12 -10 -12h-30q-10 0 -10 12z" />
    <glyph glyph-name="icircumflex" unicode="&#xee;" horiz-adv-x="210" 
d="M194 574h-23q-9 0 -13 6l-53 97l-53 -97q-4 -6 -13 -6h-23q-12 0 -5 11l64 109q6 9 19 9h22q13 0 19 -9l64 -109q7 -11 -5 -11zM80 12v486q0 12 10 12h29q11 0 11 -12v-486q0 -12 -10 -12h-30q-10 0 -10 12z" />
    <glyph glyph-name="idieresis" unicode="&#xef;" horiz-adv-x="210" 
d="M-1 586v106q0 11 10 11h28q11 0 11 -11v-106q0 -12 -11 -12h-28q-10 0 -10 12zM162 586v106q0 11 10 11h28q11 0 11 -11v-106q0 -12 -11 -12h-28q-10 0 -10 12zM80 12v486q0 12 10 12h29q11 0 11 -12v-486q0 -12 -10 -12h-30q-10 0 -10 12z" />
    <glyph glyph-name="eth" unicode="&#xf0;" horiz-adv-x="488" 
d="M426 347v-205q0 -66 -38 -104t-103 -38h-80q-65 0 -102.5 38t-37.5 104v126q0 66 37.5 104t102.5 38h64q80 0 106 -52h4q-2 41 -27 72l-105 119l-99 -83q-9 -6 -16 1l-10 13q-6 8 2 16l97 82l-80 90q-10 11 1 19l13 11q11 7 18 -2l81 -90l102 87q9 6 15 -1l11 -14
q7 -9 -1 -16l-101 -85l110 -121q36 -43 36 -109zM375 144v123q0 47 -26.5 72.5t-74.5 25.5h-63q-46 0 -71 -26t-25 -73v-122q0 -47 24 -73t70 -26h72q46 0 70 25.5t24 73.5z" />
    <glyph glyph-name="ntilde" unicode="&#xf1;" horiz-adv-x="507" 
d="M147 654v39q0 9 9 9h14q8 0 8 -9v-33q0 -30 6 -41.5t21 -11.5t21.5 9t18 39.5t23 40.5t40 10t41 -18.5t12.5 -59.5v-41q0 -10 -9 -10h-14q-8 0 -8 10v34q0 31 -6 42.5t-21 11.5t-20.5 -7.5t-16.5 -38.5t-24 -42t-41.5 -11t-41 18.5t-12.5 59.5zM114 0h-29q-10 0 -10 12
v486q0 12 10 12h29q11 0 11 -12v-40h4q28 52 104 52h66q64 0 101 -38t37 -104v-356q0 -12 -10 -12h-29q-11 0 -11 12v354q0 47 -24 73t-70 26h-65q-48 0 -75.5 -25.5t-27.5 -72.5v-355q0 -12 -11 -12z" />
    <glyph glyph-name="ograve" unicode="&#xf2;" horiz-adv-x="496" 
d="M261 574h-20q-9 0 -17 9l-89 109q-4 4 -2 7.5t7 3.5h45q13 0 18 -11l63 -106q6 -12 -5 -12zM291 0h-86q-65 0 -102.5 38t-37.5 104v226q0 66 37.5 104t102.5 38h86q65 0 103 -38t38 -104v-226q0 -66 -38 -104t-103 -38zM209 45h78q46 0 70.5 25.5t24.5 72.5v224
q0 47 -24.5 72.5t-70.5 25.5h-78q-46 0 -70 -25.5t-24 -72.5v-224q0 -47 24 -72.5t70 -25.5z" />
    <glyph glyph-name="oacute" unicode="&#xf3;" horiz-adv-x="496" 
d="M313 703h45q5 0 7 -3.5t-2 -7.5l-89 -109q-8 -9 -17 -9h-20q-11 0 -5 12l63 106q5 11 18 11zM291 0h-86q-65 0 -102.5 38t-37.5 104v226q0 66 37.5 104t102.5 38h86q65 0 103 -38t38 -104v-226q0 -66 -38 -104t-103 -38zM209 45h78q46 0 70.5 25.5t24.5 72.5v224
q0 47 -24.5 72.5t-70.5 25.5h-78q-46 0 -70 -25.5t-24 -72.5v-224q0 -47 24 -72.5t70 -25.5z" />
    <glyph glyph-name="ocircumflex" unicode="&#xf4;" horiz-adv-x="496" 
d="M337 574h-24q-10 0 -12 6l-53 97l-54 -97q-2 -6 -12 -6h-24q-11 0 -4 11l63 109q6 9 20 9h22q13 0 19 -9l64 -109q7 -11 -5 -11zM291 0h-86q-65 0 -102.5 38t-37.5 104v226q0 66 37.5 104t102.5 38h86q65 0 103 -38t38 -104v-226q0 -66 -38 -104t-103 -38zM209 45h78
q46 0 70.5 25.5t24.5 72.5v224q0 47 -24.5 72.5t-70.5 25.5h-78q-46 0 -70 -25.5t-24 -72.5v-224q0 -47 24 -72.5t70 -25.5z" />
    <glyph glyph-name="otilde" unicode="&#xf5;" horiz-adv-x="496" 
d="M139 654v39q0 9 9 9h14q8 0 8 -9v-33q0 -30 6 -41.5t21 -11.5t21.5 9t18 39.5t23 40.5t40 10t41 -18.5t12.5 -59.5v-41q0 -10 -9 -10h-14q-8 0 -8 10v34q0 31 -6 42.5t-21 11.5t-20.5 -7.5t-16.5 -38.5t-24 -42t-41.5 -11t-41 18.5t-12.5 59.5zM291 0h-86
q-65 0 -102.5 38t-37.5 104v226q0 66 37.5 104t102.5 38h86q65 0 103 -38t38 -104v-226q0 -66 -38 -104t-103 -38zM209 45h78q46 0 70.5 25.5t24.5 72.5v224q0 47 -24.5 72.5t-70.5 25.5h-78q-46 0 -70 -25.5t-24 -72.5v-224q0 -47 24 -72.5t70 -25.5z" />
    <glyph glyph-name="odieresis" unicode="&#xf6;" horiz-adv-x="496" 
d="M142 586v106q0 11 10 11h28q11 0 11 -11v-106q0 -12 -11 -12h-28q-10 0 -10 12zM305 586v106q0 11 11 11h27q11 0 11 -11v-106q0 -12 -11 -12h-27q-11 0 -11 12zM291 0h-86q-65 0 -102.5 38t-37.5 104v226q0 66 37.5 104t102.5 38h86q65 0 103 -38t38 -104v-226
q0 -66 -38 -104t-103 -38zM209 45h78q46 0 70.5 25.5t24.5 72.5v224q0 47 -24.5 72.5t-70.5 25.5h-78q-46 0 -70 -25.5t-24 -72.5v-224q0 -47 24 -72.5t70 -25.5z" />
    <glyph glyph-name="divide" unicode="&#xf7;" horiz-adv-x="510" 
d="M234 147v61q0 12 11 12h20q11 0 11 -12v-61q0 -11 -11 -11h-20q-11 0 -11 11zM424 301h-338q-12 0 -12 11v18q0 11 12 11h338q12 0 12 -11v-18q0 -11 -12 -11zM234 434v60q0 12 11 12h20q11 0 11 -12v-60q0 -12 -11 -12h-20q-11 0 -11 12z" />
    <glyph glyph-name="oslash" unicode="&#xf8;" horiz-adv-x="521" 
d="M444 368v-226q0 -66 -38 -104t-103 -38h-85q-86 0 -122 63l-38 -38q-9 -8 -16 0l-11 11q-8 6 -1 16l51 51q-4 16 -4 39v226q0 66 38 104t103 38h85q86 0 122 -63l38 38q9 9 16 1l12 -12q7 -7 -1 -16l-50 -50q4 -17 4 -40zM127 366v-217l260 260q-19 56 -88 56h-77
q-46 0 -70.5 -25.5t-24.5 -73.5zM393 144v217l-259 -260q19 -56 88 -56h77q46 0 70 25.5t24 73.5z" />
    <glyph glyph-name="ugrave" unicode="&#xf9;" horiz-adv-x="507" 
d="M266 574h-20q-11 0 -17 9l-90 109q-3 4 -1.5 7.5t6.5 3.5h45q13 0 18 -11l63 -106q6 -12 -4 -12zM274 0h-66q-64 0 -101 38t-37 104v356q0 12 10 12h29q11 0 11 -12v-354q0 -47 24 -73t70 -26h65q48 0 75.5 25.5t27.5 72.5v355q0 12 11 12h29q10 0 10 -12v-486
q0 -12 -10 -12h-29q-11 0 -11 12v40h-4q-26 -52 -104 -52z" />
    <glyph glyph-name="uacute" unicode="&#xfa;" horiz-adv-x="507" 
d="M315 703h45q5 0 6.5 -3.5t-1.5 -7.5l-90 -109q-7 -9 -17 -9h-20q-10 0 -4 12l63 106q5 11 18 11zM274 0h-66q-64 0 -101 38t-37 104v356q0 12 10 12h29q11 0 11 -12v-354q0 -47 24 -73t70 -26h65q48 0 75.5 25.5t27.5 72.5v355q0 12 11 12h29q10 0 10 -12v-486
q0 -12 -10 -12h-29q-11 0 -11 12v40h-4q-26 -52 -104 -52z" />
    <glyph glyph-name="ucircumflex" unicode="&#xfb;" horiz-adv-x="507" 
d="M341 574h-24q-9 0 -13 6l-53 97l-53 -97q-4 -6 -13 -6h-23q-12 0 -5 11l64 109q6 9 19 9h22q14 0 20 -9l63 -109q7 -11 -4 -11zM274 0h-66q-64 0 -101 38t-37 104v356q0 12 10 12h29q11 0 11 -12v-354q0 -47 24 -73t70 -26h65q48 0 75.5 25.5t27.5 72.5v355q0 12 11 12
h29q10 0 10 -12v-486q0 -12 -10 -12h-29q-11 0 -11 12v40h-4q-26 -52 -104 -52z" />
    <glyph glyph-name="udieresis" unicode="&#xfc;" horiz-adv-x="507" 
d="M145 586v106q0 11 11 11h27q11 0 11 -11v-106q0 -12 -11 -12h-27q-11 0 -11 12zM308 586v106q0 11 11 11h28q10 0 10 -11v-106q0 -12 -10 -12h-28q-11 0 -11 12zM274 0h-66q-64 0 -101 38t-37 104v356q0 12 10 12h29q11 0 11 -12v-354q0 -47 24 -73t70 -26h65
q48 0 75.5 25.5t27.5 72.5v355q0 12 11 12h29q10 0 10 -12v-486q0 -12 -10 -12h-29q-11 0 -11 12v40h-4q-26 -52 -104 -52z" />
    <glyph glyph-name="yacute" unicode="&#xfd;" horiz-adv-x="459" 
d="M296 703h45q5 0 7 -3.5t-2 -7.5l-90 -109q-6 -9 -17 -9h-19q-11 0 -5 12l63 106q6 11 18 11zM99 -152h-37q-11 0 -11 11v24q0 11 11 11h27q30 0 51 8.5t37 31.5t21 36q14 31 23 57h-19q-11 0 -14 12l-159 459q-4 12 8 12h31q10 0 13 -12l147 -429h4l147 429q3 12 13 12
h30q12 0 9 -12q-179 -524 -186.5 -542t-27.5 -49q-38 -59 -118 -59z" />
    <glyph glyph-name="thorn" unicode="&#xfe;" horiz-adv-x="508" 
d="M232 45h66q46 0 70.5 25.5t24.5 73.5v222q0 48 -24.5 73.5t-70.5 25.5h-66q-48 0 -75.5 -25.5t-27.5 -72.5v-224q0 -47 27.5 -72.5t75.5 -25.5zM129 52v-173q0 -12 -10 -12h-29q-11 0 -11 12v812q0 12 11 12h29q10 0 10 -12v-233h4q28 52 105 52h65q65 0 102.5 -38
t37.5 -104v-226q0 -66 -37.5 -104t-102.5 -38h-65q-77 0 -105 52h-4z" />
    <glyph glyph-name="ydieresis" unicode="&#xff;" horiz-adv-x="459" 
d="M124 586v106q0 11 10 11h28q11 0 11 -11v-106q0 -12 -11 -12h-28q-10 0 -10 12zM287 586v106q0 11 11 11h27q11 0 11 -11v-106q0 -12 -11 -12h-27q-11 0 -11 12zM99 -152h-37q-11 0 -11 11v24q0 11 11 11h27q30 0 51 8.5t37 31.5t21 36q14 31 23 57h-19q-11 0 -14 12
l-159 459q-4 12 8 12h31q10 0 13 -12l147 -429h4l147 429q3 12 13 12h30q12 0 9 -12q-179 -524 -186.5 -542t-27.5 -49q-38 -59 -118 -59z" />
    <glyph glyph-name="Amacron" unicode="&#x100;" horiz-adv-x="532" 
d="M368 752h-203q-12 0 -12 10v19q0 11 12 11h203q11 0 11 -11v-19q0 -10 -11 -10zM68 0h-31q-11 0 -7 12l199 619q3 12 14 12h47q10 0 14 -12l199 -619q3 -12 -7 -12h-32q-10 0 -13 12l-54 160h-262l-54 -160q-4 -12 -13 -12zM264 588l-115 -371h235l-116 371h-4z" />
    <glyph glyph-name="amacron" unicode="&#x101;" horiz-adv-x="502" 
d="M377 620h-202q-12 0 -12 11v17q0 10 12 10h202q12 0 12 -10v-17q0 -11 -12 -11zM269 0h-64q-65 0 -102.5 38t-37.5 104v226q0 66 37.5 104t102.5 38h212q10 0 10 -12v-486q0 -12 -10 -12h-29q-11 0 -11 12v40h-4q-26 -52 -104 -52zM377 143v313q0 9 -10 9h-158
q-46 0 -70 -26t-24 -73v-222q0 -47 24 -73t70 -26h65q48 0 75.5 25.5t27.5 72.5z" />
    <glyph glyph-name="Abreve" unicode="&#x102;" horiz-adv-x="532" 
d="M166 826q0 10 9 10h19q9 0 9 -10v-11q0 -43 13.5 -60t46.5 -17h5q34 0 48 17.5t14 59.5v10q0 10 9 10h17q10 0 10 -10v-11q0 -107 -95 -107h-11q-94 0 -94 107v12zM68 0h-31q-11 0 -7 12l199 619q3 12 14 12h47q10 0 14 -12l199 -619q3 -12 -7 -12h-32q-10 0 -13 12
l-54 160h-262l-54 -160q-4 -12 -13 -12zM264 588l-115 -371h235l-116 371h-4z" />
    <glyph glyph-name="abreve" unicode="&#x103;" horiz-adv-x="502" 
d="M377 143v313q0 9 -10 9h-158q-46 0 -70 -26t-24 -73v-222q0 -47 24 -73t70 -26h65q48 0 75.5 25.5t27.5 72.5zM269 0h-64q-65 0 -102.5 38t-37.5 104v226q0 66 37.5 104t102.5 38h212q10 0 10 -12v-486q0 -12 -10 -12h-29q-11 0 -11 12v40h-4q-26 -52 -104 -52zM170 681
v12q0 10 9 10h18q10 0 10 -10v-11q0 -43 13.5 -60t46.5 -17h5q34 0 48 17.5t14 59.5v10q0 10 9 10h17q9 0 9 -10v-11q0 -107 -95 -107h-10q-94 0 -94 107z" />
    <glyph glyph-name="Aogonek" unicode="&#x104;" horiz-adv-x="532" 
d="M496 0h-26l-52 -70h38q17 0 22.5 -2.5t5.5 -11.5t-22 -15.5t-49 -6.5t-33.5 12.5t5.5 27.5l64 84l-52 154h-262l-54 -160q-4 -12 -13 -12h-31q-11 0 -7 12l199 619q3 12 14 12h47q10 0 14 -12l199 -619q3 -12 -7 -12zM149 217h235l-116 371h-4z" />
    <glyph glyph-name="aogonek" unicode="&#x105;" horiz-adv-x="502" 
d="M346 -72l39 1q27 1 27 -11q-1 -11 -23 -20.5t-47.5 -9.5t-31 17.5t6.5 31.5l60 80v35h-4q-26 -52 -104 -52h-64q-65 0 -102.5 38t-37.5 104v226q0 66 37.5 104t102.5 38h212q10 0 10 -12v-486q0 -12 -10 -12h-19q-4 -5 -12.5 -17l-14.5 -20q-15 -20 -25 -35zM209 45h65
q48 0 75.5 25.5t27.5 72.5v313q0 9 -10 9h-158q-46 0 -70 -26t-24 -73v-222q0 -47 24 -73t70 -26z" />
    <glyph glyph-name="Cacute" unicode="&#x106;" horiz-adv-x="542" 
d="M341 0h-126q-65 0 -102.5 38t-37.5 104v359q0 66 37.5 104t102.5 38h126q65 0 102.5 -38t37.5 -104v-49q0 -12 -11 -12h-28q-11 0 -11 12v47q0 48 -24.5 73.5t-70.5 25.5h-117q-46 0 -70 -26t-24 -73v-355q0 -47 24 -73t70 -26h117q46 0 70.5 25.5t24.5 73.5v47
q0 12 11 12h28q11 0 11 -12v-49q0 -66 -37.5 -104t-102.5 -38zM337 836h44q5 0 7 -3t-2 -8l-89 -109q-7 -9 -17 -9h-20q-11 0 -5 12l63 106q6 11 19 11z" />
    <glyph glyph-name="cacute" unicode="&#x107;" horiz-adv-x="394" 
d="M287 703h45q5 0 7 -3.5t-2 -7.5l-90 -109q-6 -9 -16 -9h-20q-11 0 -5 12l63 106q5 11 18 11zM360 34v-23q0 -11 -11 -11h-144q-65 0 -102.5 38t-37.5 104v226q0 66 37.5 104t102.5 38h144q11 0 11 -11v-24q0 -10 -11 -10h-140q-46 0 -70 -26t-24 -73v-222q0 -47 24 -73
t70 -26h140q11 0 11 -11z" />
    <glyph glyph-name="Cdotaccent" unicode="&#x10a;" horiz-adv-x="542" 
d="M341 0h-126q-65 0 -102.5 38t-37.5 104v359q0 66 37.5 104t102.5 38h126q65 0 102.5 -38t37.5 -104v-49q0 -12 -11 -12h-28q-11 0 -11 12v47q0 48 -24.5 73.5t-70.5 25.5h-117q-46 0 -70 -26t-24 -73v-355q0 -47 24 -73t70 -26h117q46 0 70.5 25.5t24.5 73.5v47
q0 12 11 12h28q11 0 11 -12v-49q0 -66 -37.5 -104t-102.5 -38zM253 723v98q0 12 10 12h30q10 0 10 -11v-99q0 -11 -10 -11h-30q-10 0 -10 11z" />
    <glyph glyph-name="cdotaccent" unicode="&#x10b;" horiz-adv-x="394" 
d="M205 589v99q0 11 10 11h30q10 0 10 -11v-99q0 -11 -10 -11h-30q-10 0 -10 11zM360 34v-23q0 -11 -11 -11h-144q-65 0 -102.5 38t-37.5 104v226q0 66 37.5 104t102.5 38h144q11 0 11 -11v-24q0 -10 -11 -10h-140q-46 0 -70 -26t-24 -73v-222q0 -47 24 -73t70 -26h140
q11 0 11 -11z" />
    <glyph glyph-name="Ccaron" unicode="&#x10c;" horiz-adv-x="542" 
d="M341 0h-126q-65 0 -102.5 38t-37.5 104v359q0 66 37.5 104t102.5 38h126q65 0 102.5 -38t37.5 -104v-49q0 -12 -11 -12h-28q-11 0 -11 12v47q0 48 -24.5 73.5t-70.5 25.5h-117q-46 0 -70 -26t-24 -73v-355q0 -47 24 -73t70 -26h117q46 0 70.5 25.5t24.5 73.5v47
q0 12 11 12h28q11 0 11 -12v-49q0 -66 -37.5 -104t-102.5 -38zM289 707h-21q-14 0 -20 9l-63 109q-7 11 5 11h23q10 0 12 -6l54 -97l53 97q4 6 13 6h23q12 0 5 -11l-64 -109q-6 -9 -20 -9z" />
    <glyph glyph-name="ccaron" unicode="&#x10d;" horiz-adv-x="394" 
d="M225 574q-14 0 -20 9l-64 109q-7 11 5 11h24q10 0 12 -6l53 -97l54 97q2 6 12 6h24q12 0 5 -11l-64 -109q-6 -9 -20 -9h-21zM360 34v-23q0 -11 -11 -11h-144q-65 0 -102.5 38t-37.5 104v226q0 66 37.5 104t102.5 38h144q11 0 11 -11v-24q0 -10 -11 -10h-140
q-46 0 -70 -26t-24 -73v-222q0 -47 24 -73t70 -26h140q11 0 11 -11z" />
    <glyph glyph-name="Dcaron" unicode="&#x10e;" horiz-adv-x="557" 
d="M264 707q-14 0 -20 9l-64 109q-7 11 5 11h23q9 0 13 -6l53 -97l54 97q2 6 12 6h24q11 0 4 -11l-63 -109q-6 -9 -20 -9h-21zM145 45h192q46 0 70.5 25.5t24.5 73.5v355q0 48 -24.5 73.5t-70.5 25.5h-192q-10 0 -10 -9v-535q0 -9 10 -9zM85 12v619q0 12 10 12h247
q65 0 102.5 -38t37.5 -104v-359q0 -66 -37.5 -104t-102.5 -38h-247q-10 0 -10 12z" />
    <glyph glyph-name="dcaron" unicode="&#x10f;" horiz-adv-x="534" 
d="M540 692v-69q0 -22 -11 -60l-25 -91q-3 -7 -9.5 -7t-6.5 9v218q0 11 10 11h32q10 0 10 -11zM270 0h-67q-64 0 -101 38t-37 104v226q0 66 37 104t101 38h67q77 0 105 -52h4v233q0 12 10 12h29q11 0 11 -12v-679q0 -12 -11 -12h-29q-10 0 -10 12v40h-4q-28 -52 -105 -52z
M379 143v224q0 47 -27.5 72.5t-75.5 25.5h-67q-46 0 -70 -26t-24 -73v-222q0 -47 24 -73t70 -26h67q48 0 75.5 25.5t27.5 72.5z" />
    <glyph glyph-name="Dcroat" unicode="&#x110;" horiz-adv-x="514" 
d="M147 45h193q46 0 70.5 25.5t24.5 73.5v355q0 48 -24.5 73.5t-70.5 25.5h-193q-9 0 -9 -9v-188q0 -8 9 -8h148q11 0 11 -11v-21q0 -10 -11 -10h-148q-9 0 -9 -9v-288q0 -9 9 -9zM345 0h-247q-10 0 -10 12v330q0 9 -10 9h-42q-11 0 -11 10v21q0 11 11 11h42q10 0 10 8v230
q0 12 10 12h247q65 0 102.5 -38t37.5 -104v-359q0 -66 -37.5 -104t-102.5 -38z" />
    <glyph glyph-name="dcroat" unicode="&#x111;" horiz-adv-x="539" 
d="M270 0h-65q-65 0 -102.5 38t-37.5 104v160q0 66 37.5 104t102.5 38h65q78 0 105 -53h4v156q0 9 -10 9h-161q-11 0 -11 11v20q0 11 11 11h161q10 0 10 9v84q0 12 10 12h29q11 0 11 -12v-84q0 -9 10 -9h63q12 0 12 -11v-20q0 -11 -12 -11h-63q-10 0 -10 -9v-535
q0 -12 -11 -12h-29q-10 0 -10 12v40h-4q-28 -52 -105 -52zM379 143v157q0 47 -27.5 72.5t-75.5 25.5h-67q-45 0 -69.5 -25.5t-24.5 -72.5v-156q0 -47 24 -73t70 -26h67q48 0 75.5 25.5t27.5 72.5z" />
    <glyph glyph-name="Emacron" unicode="&#x112;" horiz-adv-x="481" 
d="M351 752h-203q-11 0 -11 10v19q0 11 11 11h203q11 0 11 -11v-19q0 -10 -11 -10zM404 0h-309q-10 0 -10 12v619q0 12 10 12h309q12 0 12 -11v-23q0 -11 -12 -11h-259q-10 0 -10 -9v-230q0 -9 10 -9h231q11 0 11 -11v-23q0 -11 -11 -11h-231q-10 0 -10 -9v-242q0 -9 10 -9
h259q12 0 12 -11v-23q0 -11 -12 -11z" />
    <glyph glyph-name="emacron" unicode="&#x113;" horiz-adv-x="492" 
d="M351 620h-203q-11 0 -11 11v17q0 10 11 10h203q11 0 11 -10v-17q0 -11 -11 -11zM414 0h-209q-65 0 -102.5 38t-37.5 104v226q0 66 37.5 104t102.5 38h86q65 0 103 -38t38 -104v-127q0 -12 -12 -12h-296q-9 0 -9 -9v-77q0 -47 24 -72.5t70 -25.5h205q11 0 11 -11v-23
q0 -11 -11 -11zM124 269h249q9 0 9 9v89q0 47 -24 72.5t-70 25.5h-79q-46 0 -70 -25.5t-24 -72.5v-89q0 -9 9 -9z" />
    <glyph glyph-name="Ebreve" unicode="&#x114;" horiz-adv-x="481" 
d="M145 826q0 10 9 10h19q9 0 9 -10v-11q0 -43 13.5 -60t46.5 -17h4q35 0 49 17.5t14 59.5v10q0 10 9 10h17q9 0 9 -10v-11q0 -107 -95 -107h-10q-94 0 -94 107v12zM404 0h-309q-10 0 -10 12v619q0 12 10 12h309q12 0 12 -11v-23q0 -11 -12 -11h-259q-10 0 -10 -9v-230
q0 -9 10 -9h231q11 0 11 -11v-23q0 -11 -11 -11h-231q-10 0 -10 -9v-242q0 -9 10 -9h259q12 0 12 -11v-23q0 -11 -12 -11z" />
    <glyph glyph-name="ebreve" unicode="&#x115;" horiz-adv-x="492" 
d="M124 269h249q9 0 9 9v89q0 47 -24 72.5t-70 25.5h-79q-46 0 -70 -25.5t-24 -72.5v-89q0 -9 9 -9zM414 0h-209q-65 0 -102.5 38t-37.5 104v226q0 66 37.5 104t102.5 38h86q65 0 103 -38t38 -104v-127q0 -12 -12 -12h-296q-9 0 -9 -9v-77q0 -47 24 -72.5t70 -25.5h205
q11 0 11 -11v-23q0 -11 -11 -11zM146 681v12q0 10 9 10h19q9 0 9 -10v-11q0 -43 13.5 -60t46.5 -17h5q34 0 48 17.5t14 59.5v10q0 10 9 10h17q10 0 10 -10v-11q0 -107 -95 -107h-11q-94 0 -94 107z" />
    <glyph glyph-name="Edotaccent" unicode="&#x116;" horiz-adv-x="496" 
d="M225 723v98q0 12 10 12h30q10 0 10 -11v-99q0 -11 -10 -11h-30q-10 0 -10 11zM404 0h-309q-10 0 -10 12v619q0 12 10 12h309q12 0 12 -11v-23q0 -11 -12 -11h-259q-10 0 -10 -9v-230q0 -9 10 -9h231q11 0 11 -11v-23q0 -11 -11 -11h-231q-10 0 -10 -9v-242q0 -9 10 -9
h259q12 0 12 -11v-23q0 -11 -12 -11z" />
    <glyph glyph-name="edotaccent" unicode="&#x117;" horiz-adv-x="492" 
d="M224 589v99q0 11 11 11h29q11 0 11 -11v-99q0 -11 -11 -11h-29q-11 0 -11 11zM414 0h-209q-65 0 -102.5 38t-37.5 104v226q0 66 37.5 104t102.5 38h86q65 0 103 -38t38 -104v-127q0 -12 -12 -12h-296q-9 0 -9 -9v-77q0 -47 24 -72.5t70 -25.5h205q11 0 11 -11v-23
q0 -11 -11 -11zM124 269h249q9 0 9 9v89q0 47 -24 72.5t-70 25.5h-79q-46 0 -70 -25.5t-24 -72.5v-89q0 -9 9 -9z" />
    <glyph glyph-name="Eogonek" unicode="&#x118;" horiz-adv-x="481" 
d="M404 598h-259q-10 0 -10 -9v-230q0 -9 10 -9h231q11 0 11 -11v-23q0 -11 -11 -11h-231q-10 0 -10 -9v-242q0 -9 10 -9h259q12 0 12 -11v-23q0 -11 -12 -11h-51l-53 -70h39q16 0 21.5 -2.5t5.5 -11.5t-21.5 -15.5t-48.5 -6.5t-33.5 12.5t5.5 27.5l50 66h-223q-10 0 -10 12
v619q0 12 10 12h309q12 0 12 -11v-23q0 -11 -12 -11z" />
    <glyph glyph-name="eogonek" unicode="&#x119;" horiz-adv-x="492" 
d="M303 -72l39 1q28 1 26 -11q0 -11 -22 -20.5t-47.5 -9.5t-31 17.5t6.5 31.5l47 63h-116q-65 0 -102.5 38t-37.5 104v226q0 66 37.5 104t102.5 38h86q65 0 103 -38t38 -104v-127q0 -12 -12 -12h-296q-9 0 -9 -9v-77q0 -47 24 -72.5t70 -25.5h205q11 0 11 -11v-23
q0 -11 -11 -11h-59q-4 -5 -12.5 -17l-14.5 -20q-15 -20 -25 -35zM382 278v89q0 47 -24 72.5t-70 25.5h-79q-46 0 -70 -25.5t-24 -72.5v-89q0 -9 9 -9h249q9 0 9 9z" />
    <glyph glyph-name="Ecaron" unicode="&#x11a;" horiz-adv-x="481" 
d="M240 707q-13 0 -19 9l-64 109q-7 11 5 11h23q9 0 13 -6l53 -97l54 97q2 6 12 6h24q11 0 4 -11l-63 -109q-6 -9 -20 -9h-22zM404 0h-309q-10 0 -10 12v619q0 12 10 12h309q12 0 12 -11v-23q0 -11 -12 -11h-259q-10 0 -10 -9v-230q0 -9 10 -9h231q11 0 11 -11v-23
q0 -11 -11 -11h-231q-10 0 -10 -9v-242q0 -9 10 -9h259q12 0 12 -11v-23q0 -11 -12 -11z" />
    <glyph glyph-name="ecaron" unicode="&#x11b;" horiz-adv-x="492" 
d="M239 574q-14 0 -20 9l-64 109q-7 11 5 11h24q10 0 12 -6l53 -97l54 97q2 6 12 6h24q12 0 5 -11l-64 -109q-6 -9 -20 -9h-21zM414 0h-209q-65 0 -102.5 38t-37.5 104v226q0 66 37.5 104t102.5 38h86q65 0 103 -38t38 -104v-127q0 -12 -12 -12h-296q-9 0 -9 -9v-77
q0 -47 24 -72.5t70 -25.5h205q11 0 11 -11v-23q0 -11 -11 -11zM124 269h249q9 0 9 9v89q0 47 -24 72.5t-70 25.5h-79q-46 0 -70 -25.5t-24 -72.5v-89q0 -9 9 -9z" />
    <glyph glyph-name="Gcircumflex" unicode="&#x11c;" horiz-adv-x="539" 
d="M360 707h-24q-10 0 -12 6l-54 97l-53 -97q-2 -6 -13 -6h-23q-12 0 -5 11l64 109q6 9 19 9h22q14 0 20 -9l63 -109q7 -11 -4 -11zM324 0h-109q-65 0 -102.5 38t-37.5 104v359q0 66 37.5 104t102.5 38h109q65 0 103 -38t38 -104v-45q0 -12 -11 -12h-29q-11 0 -11 12v43
q0 48 -24 73.5t-70 25.5h-101q-46 0 -70 -26t-24 -73v-355q0 -47 24 -73t70 -26h101q46 0 70 25.5t24 73.5v132q0 9 -9 9h-115q-11 0 -11 11v23q0 11 11 11h156q19 0 19 -20v-168q0 -66 -38 -104t-103 -38z" />
    <glyph glyph-name="gcircumflex" unicode="&#x11d;" horiz-adv-x="506" 
d="M358 574h-24q-10 0 -12 6l-54 97l-53 -97q-2 -6 -12 -6h-24q-12 0 -5 11l64 109q6 9 20 9h21q14 0 20 -9l64 -109q7 -11 -5 -11zM273 29h-65q-64 0 -101.5 38t-37.5 103v198q0 66 37.5 104t102.5 38h212q11 0 11 -12v-496q0 -66 -38 -104t-103 -38h-182q-11 0 -11 11v24
q0 10 11 10h178q46 0 70 25.5t24 73.5v77h-4q-25 -52 -104 -52zM381 172v284q0 9 -9 9h-158q-46 0 -70.5 -25.5t-24.5 -73.5v-194q0 -47 24.5 -72.5t70.5 -25.5h64q48 0 75.5 25.5t27.5 72.5z" />
    <glyph glyph-name="Gbreve" unicode="&#x11e;" horiz-adv-x="539" 
d="M170 826q0 10 10 10h18q9 0 9 -10v-11q0 -42 13.5 -59.5t46.5 -17.5h5q34 0 48.5 17.5t14.5 59.5v10q0 10 9 10h17q9 0 9 -10v-11q0 -107 -95 -107h-11q-94 0 -94 107v12zM324 0h-109q-65 0 -102.5 38t-37.5 104v359q0 66 37.5 104t102.5 38h109q65 0 103 -38t38 -104
v-45q0 -12 -11 -12h-29q-11 0 -11 12v43q0 48 -24 73.5t-70 25.5h-101q-46 0 -70 -26t-24 -73v-355q0 -47 24 -73t70 -26h101q46 0 70 25.5t24 73.5v132q0 9 -9 9h-115q-11 0 -11 11v23q0 11 11 11h156q19 0 19 -20v-168q0 -66 -38 -104t-103 -38z" />
    <glyph glyph-name="gbreve" unicode="&#x11f;" horiz-adv-x="506" 
d="M381 172v284q0 9 -9 9h-158q-46 0 -70.5 -25.5t-24.5 -73.5v-194q0 -47 24.5 -72.5t70.5 -25.5h64q48 0 75.5 25.5t27.5 72.5zM273 29h-65q-64 0 -101.5 38t-37.5 103v198q0 66 37.5 104t102.5 38h212q11 0 11 -12v-496q0 -66 -38 -104t-103 -38h-182q-11 0 -11 11v24
q0 10 11 10h178q46 0 70 25.5t24 73.5v77h-4q-25 -52 -104 -52zM178 681v12q0 10 9 10h19q9 0 9 -10v-11q0 -43 13.5 -60t46.5 -17h5q34 0 48 17.5t14 59.5v10q0 10 10 10h16q10 0 10 -10v-11q0 -107 -95 -107h-11q-94 0 -94 107z" />
    <glyph glyph-name="Gdotaccent" unicode="&#x120;" horiz-adv-x="539" 
d="M244 723v98q0 12 10 12h30q10 0 10 -11v-99q0 -11 -10 -11h-30q-10 0 -10 11zM324 0h-109q-65 0 -102.5 38t-37.5 104v359q0 66 37.5 104t102.5 38h109q65 0 103 -38t38 -104v-45q0 -12 -11 -12h-29q-11 0 -11 12v43q0 48 -24 73.5t-70 25.5h-101q-46 0 -70 -26t-24 -73
v-355q0 -47 24 -73t70 -26h101q46 0 70 25.5t24 73.5v132q0 9 -9 9h-115q-11 0 -11 11v23q0 11 11 11h156q19 0 19 -20v-168q0 -66 -38 -104t-103 -38z" />
    <glyph glyph-name="gdotaccent" unicode="&#x121;" horiz-adv-x="506" 
d="M250 589v99q0 11 10 11h30q10 0 10 -11v-99q0 -11 -10 -11h-30q-10 0 -10 11zM273 29h-65q-64 0 -101.5 38t-37.5 103v198q0 66 37.5 104t102.5 38h212q11 0 11 -12v-496q0 -66 -38 -104t-103 -38h-182q-11 0 -11 11v24q0 10 11 10h178q46 0 70 25.5t24 73.5v77h-4
q-25 -52 -104 -52zM381 172v284q0 9 -9 9h-158q-46 0 -70.5 -25.5t-24.5 -73.5v-194q0 -47 24.5 -72.5t70.5 -25.5h64q48 0 75.5 25.5t27.5 72.5z" />
    <glyph glyph-name="uni0122" unicode="&#x122;" horiz-adv-x="539" 
d="M313 -43v-47q0 -24 -11 -57l-25 -84q-3 -7 -10 -7t-7 9v186q0 11 11 11h32q10 0 10 -11zM324 0h-109q-65 0 -102.5 38t-37.5 104v359q0 66 37.5 104t102.5 38h109q65 0 103 -38t38 -104v-45q0 -12 -11 -12h-29q-11 0 -11 12v43q0 48 -24 73.5t-70 25.5h-101
q-46 0 -70 -26t-24 -73v-355q0 -47 24 -73t70 -26h101q46 0 70 25.5t24 73.5v132q0 9 -9 9h-115q-11 0 -11 11v23q0 11 11 11h156q19 0 19 -20v-168q0 -66 -38 -104t-103 -38z" />
    <glyph glyph-name="uni0123" unicode="&#x123;" horiz-adv-x="506" 
d="M273 29h-65q-64 0 -101.5 38t-37.5 103v198q0 66 37.5 104t102.5 38h212q11 0 11 -12v-496q0 -66 -38 -104t-103 -38h-182q-11 0 -11 11v24q0 10 11 10h178q46 0 70 25.5t24 73.5v77h-4q-25 -52 -104 -52zM381 172v284q0 9 -9 9h-158q-46 0 -70.5 -25.5t-24.5 -73.5v-194
q0 -47 24.5 -72.5t70.5 -25.5h64q48 0 75.5 25.5t27.5 72.5zM245 585v47q0 19 11 57l26 84q4 7 8 7q8 0 8 -9v-186q0 -11 -10 -11h-32q-11 0 -11 11z" />
    <glyph glyph-name="hcircumflex" unicode="&#x125;" horiz-adv-x="507" 
d="M363 639h-23q-9 0 -13 6l-53 97l-54 -97q-2 -6 -12 -6h-23q-12 0 -5 11l63 108q7 10 20 10h21q13 0 20 -10l64 -108q7 -11 -5 -11zM114 0h-29q-10 0 -10 12v679q0 12 10 12h29q11 0 11 -12v-233h4q28 52 104 52h66q64 0 101 -38t37 -104v-356q0 -12 -10 -12h-29
q-11 0 -11 12v354q0 47 -24 73t-70 26h-65q-48 0 -75.5 -25.5t-27.5 -72.5v-355q0 -12 -11 -12z" />
    <glyph glyph-name="Hbar" unicode="&#x126;" horiz-adv-x="523" 
d="M129 0h-29q-11 0 -11 12v444q0 9 -9 9h-44q-11 0 -11 11v20q0 11 11 11h44q9 0 9 9v115q0 12 11 12h29q11 0 11 -12v-115q0 -9 9 -9h281q9 0 9 8v116q0 12 11 12h29q11 0 11 -12v-115q0 -9 9 -9h44q11 0 11 -11v-20q0 -11 -11 -11h-44q-9 0 -9 -9v-444q0 -12 -11 -12h-29
q-11 0 -11 12v280q0 8 -9 8h-281q-9 0 -9 -8v-280q0 -12 -11 -12zM149 346h281q9 0 9 8v102q0 9 -9 9h-281q-9 0 -9 -9v-102q0 -8 9 -8z" />
    <glyph glyph-name="hbar" unicode="&#x127;" horiz-adv-x="544" 
d="M149 0h-29q-11 0 -11 12v535q0 9 -9 9h-64q-11 0 -11 11v20q0 11 11 11h64q9 0 9 9v84q0 12 11 12h29q11 0 11 -12v-84q0 -9 9 -9h161q12 0 12 -11v-20q0 -11 -12 -11h-161q-9 0 -9 -9v-154h4q25 52 104 52h65q65 0 103 -38t38 -103v-292q0 -12 -11 -12h-29q-11 0 -11 12
v290q0 47 -24 72.5t-70 25.5h-66q-48 0 -75.5 -25.5t-27.5 -72.5v-290q0 -12 -11 -12z" />
    <glyph glyph-name="Itilde" unicode="&#x128;" horiz-adv-x="230" 
d="M103 713q-13 -11 -41 -11t-41 18.5t-13 59.5v39q0 9 9 9h14q8 0 8 -9v-33q0 -30 6 -41.5t21 -11.5t21 9t18 39.5t23.5 40t39.5 9.5t41 -18.5t13 -58.5v-41q0 -10 -9 -10h-14q-8 0 -8 10v34q0 31 -6 42.5t-23 11.5t-24 -17q-2 -3 -12 -31.5t-23 -39.5zM140 631v-619
q0 -12 -11 -12h-29q-10 0 -10 12v619q0 12 10 12h29q11 0 11 -12z" />
    <glyph glyph-name="itilde" unicode="&#x129;" horiz-adv-x="210" 
d="M-2 654v39q0 9 9 9h14q8 0 8 -9v-33q0 -30 6 -41.5t21 -11.5t21 9t18 39.5t23.5 40.5t39.5 10t41 -18.5t13 -59.5v-41q0 -10 -9 -10h-14q-8 0 -8 10v34q0 31 -6 42.5t-23 11.5q-20 0 -33 -38.5t-26 -49.5t-41 -11t-41 18.5t-13 59.5zM80 12v486q0 12 10 12h29
q11 0 11 -12v-486q0 -12 -10 -12h-30q-10 0 -10 12z" />
    <glyph glyph-name="Imacron" unicode="&#x12a;" horiz-adv-x="230" 
d="M216 752h-202q-12 0 -12 10v19q0 11 12 11h202q12 0 12 -11v-19q0 -10 -12 -10zM140 631v-619q0 -12 -11 -12h-29q-10 0 -10 12v619q0 12 10 12h29q11 0 11 -12z" />
    <glyph glyph-name="imacron" unicode="&#x12b;" horiz-adv-x="208" 
d="M205 620h-202q-12 0 -12 11v17q0 10 12 10h202q12 0 12 -10v-17q0 -11 -12 -11zM80 12v486q0 12 10 12h29q11 0 11 -12v-486q0 -12 -10 -12h-30q-10 0 -10 12z" />
    <glyph glyph-name="Ibreve" unicode="&#x12c;" 
d="M16 826q0 10 9 10h18q10 0 10 -10v-11q0 -43 13.5 -60t46.5 -17h4q35 0 49 17.5t14 59.5v10q0 10 9 10h17q9 0 9 -10v-11q0 -107 -95 -107h-10q-94 0 -94 107v12zM140 631v-619q0 -12 -11 -12h-29q-10 0 -10 12v619q0 12 10 12h29q11 0 11 -12z" />
    <glyph glyph-name="ibreve" unicode="&#x12d;" horiz-adv-x="211" 
d="M80 12v486q0 12 10 12h29q11 0 11 -12v-486q0 -12 -10 -12h-30q-10 0 -10 12zM6 681v12q0 10 9 10h18q10 0 10 -10v-11q0 -43 13.5 -60t46.5 -17h4q35 0 49 17.5t14 59.5v10q0 10 9 10h17q9 0 9 -10v-11q0 -107 -95 -107h-10q-94 0 -94 107z" />
    <glyph glyph-name="Iogonek" unicode="&#x12e;" horiz-adv-x="230" 
d="M100 643h29q11 0 11 -12v-619q0 -12 -11 -12h-7l-52 -70h38q17 0 22.5 -2.5t5.5 -11.5t-22 -15.5t-49 -6.5t-33.5 12.5t5.5 27.5l54 71q-1 2 -1 7v619q0 12 10 12z" />
    <glyph glyph-name="iogonek" unicode="&#x12f;" horiz-adv-x="210" 
d="M90 701h30q10 0 10 -11v-96q0 -12 -10 -12h-30q-10 0 -10 12v96q0 11 10 11zM59 -72l40 1q27 1 25 -11q0 -11 -22 -20.5t-47.5 -9.5t-31 17.5t6.5 31.5l51 68q-1 2 -1 7v486q0 12 10 12h29q11 0 11 -12v-486q0 -12 -10 -12h-9q-4 -5 -12.5 -17l-14.5 -20q-15 -20 -25 -35
z" />
    <glyph glyph-name="Idotaccent" unicode="&#x130;" horiz-adv-x="230" 
d="M140 631v-619q0 -12 -11 -12h-29q-10 0 -10 12v619q0 12 10 12h29q11 0 11 -12zM90 699v96q0 11 10 11h30q10 0 10 -11v-96q0 -12 -10 -12h-30q-10 0 -10 12z" />
    <glyph glyph-name="dotlessi" unicode="&#x131;" horiz-adv-x="212" 
d="M81 12v486q0 12 10 12h29q11 0 11 -12v-486q0 -12 -11 -12h-29q-10 0 -10 12z" />
    <glyph glyph-name="IJ" unicode="&#x132;" horiz-adv-x="721" 
d="M605 643h28q11 0 11 -11v-490q0 -66 -37.5 -104t-102.5 -38h-100q-65 0 -103 38t-38 104v83q0 11 11 11h29q11 0 11 -11v-81q0 -48 24 -73.5t70 -25.5h91q46 0 70.5 25.5t24.5 73.5v487q0 12 11 12zM141 631v-619q0 -12 -11 -12h-29q-10 0 -10 12v619q0 12 10 12h29
q11 0 11 -12z" />
    <glyph glyph-name="ij" unicode="&#x133;" horiz-adv-x="419" 
d="M80 12v486q0 12 10 12h29q11 0 11 -12v-486q0 -12 -10 -12h-30q-10 0 -10 12zM80 594v96q0 11 10 11h30q10 0 10 -11v-96q0 -12 -10 -12h-30q-10 0 -10 12zM289 594v96q0 11 10 11h29q11 0 11 -11v-96q0 -12 -11 -12h-29q-10 0 -10 12zM198 -140h-29q-12 0 -12 11v24
q0 10 12 10h21q99 0 99 103v490q0 12 11 12h28q11 0 11 -12v-496q0 -66 -38 -104t-103 -38z" />
    <glyph glyph-name="Jcircumflex" unicode="&#x134;" horiz-adv-x="494" 
d="M380 643h28q11 0 11 -11v-490q0 -66 -37.5 -104t-102.5 -38h-100q-65 0 -103 38t-38 104v83q0 11 11 11h29q11 0 11 -11v-81q0 -48 24 -73.5t70 -25.5h91q46 0 70.5 25.5t24.5 73.5v487q0 12 11 12zM480 707h-24q-10 0 -12 6l-53 97l-54 -97q-2 -6 -12 -6h-24
q-11 0 -4 11l63 109q6 9 20 9h22q13 0 19 -9l64 -109q7 -11 -5 -11z" />
    <glyph glyph-name="jcircumflex" unicode="&#x135;" horiz-adv-x="209" 
d="M194 574h-24q-10 0 -12 6l-54 97l-53 -97q-4 -6 -13 -6h-23q-12 0 -5 11l64 109q6 9 20 9h21q14 0 20 -9l63 -109q7 -11 -4 -11zM-11 -140h-29q-12 0 -12 11v24q0 10 12 10h21q99 0 99 103v490q0 12 10 12h29q11 0 11 -12v-496q0 -66 -38 -104t-103 -38z" />
    <glyph glyph-name="uni0136" unicode="&#x136;" horiz-adv-x="530" 
d="M320 -43v-47q0 -19 -11 -57l-26 -84q-1 -7 -8.5 -7t-7.5 9v186q0 11 10 11h32q11 0 11 -11zM124 0h-29q-10 0 -10 12v619q0 12 10 12h29q11 0 11 -12v-369h4q6 16 18 33l254 336q9 12 21 12h35q13 0 4 -12l-201 -269l232 -350q8 -12 -6 -12h-28q-15 0 -22 12l-208 312
l-103 -124v-188q0 -12 -11 -12z" />
    <glyph glyph-name="uni0137" unicode="&#x137;" horiz-adv-x="431" 
d="M362 510h31q6 0 8 -3.5t-2 -8.5l-153 -232v-4l171 -250q4 -5 2 -8.5t-8 -3.5h-31q-15 0 -23 12l-165 243q-4 8 0 16l150 229q6 10 20 10zM114 0h-29q-10 0 -10 12v679q0 12 10 12h29q11 0 11 -12v-679q0 -12 -11 -12zM265 -43v-47q0 -19 -11 -57l-26 -84q-3 -7 -8 -7
q-8 0 -8 9v186q0 11 11 11h31q11 0 11 -11z" />
    <glyph glyph-name="Lacute" unicode="&#x139;" horiz-adv-x="451" 
d="M176 836h45q12 0 5 -11l-90 -109q-7 -9 -17 -9h-20q-10 0 -4 12l63 106q6 11 18 11zM413 0h-318q-10 0 -10 12v619q0 12 10 12h29q11 0 11 -12v-575q0 -9 10 -9h268q12 0 12 -11v-25q0 -11 -12 -11z" />
    <glyph glyph-name="lacute" unicode="&#x13a;" horiz-adv-x="207" 
d="M169 878h44q5 0 7.5 -3t-1.5 -8l-90 -109q-8 -9 -17 -9h-20q-10 0 -5 12l64 106q4 11 18 11zM119 0h-29q-10 0 -10 12v679q0 12 10 12h29q11 0 11 -12v-679q0 -12 -11 -12z" />
    <glyph glyph-name="uni013B" unicode="&#x13b;" horiz-adv-x="451" 
d="M281 -43v-47q0 -19 -11 -57l-26 -84q-3 -7 -9.5 -7t-6.5 9v186q0 11 10 11h32q11 0 11 -11zM413 0h-318q-10 0 -10 12v619q0 12 10 12h29q11 0 11 -12v-575q0 -9 10 -9h268q12 0 12 -11v-25q0 -11 -12 -11z" />
    <glyph glyph-name="uni013C" unicode="&#x13c;" horiz-adv-x="211" 
d="M132 -43v-47q0 -19 -11 -57l-25 -84q-4 -7 -9 -7q-8 0 -8 9v186q0 11 11 11h32q10 0 10 -11zM119 0h-29q-10 0 -10 12v679q0 12 10 12h29q11 0 11 -12v-679q0 -12 -11 -12z" />
    <glyph glyph-name="Lcaron" unicode="&#x13d;" horiz-adv-x="451" 
d="M362 632v-69q0 -16 -11 -60l-26 -91q-3 -7 -8 -7q-8 0 -8 9v218q0 11 10 11h32q11 0 11 -11zM413 0h-318q-10 0 -10 12v619q0 12 10 12h29q11 0 11 -12v-575q0 -9 10 -9h268q12 0 12 -11v-25q0 -11 -12 -11z" />
    <glyph glyph-name="lcaron" unicode="&#x13e;" horiz-adv-x="274" 
d="M258 692v-69q0 -19 -12 -60l-25 -91q-3 -7 -8 -7q-8 0 -8 9v218q0 11 10 11h32q11 0 11 -11zM119 0h-29q-10 0 -10 12v679q0 12 10 12h29q11 0 11 -12v-679q0 -12 -11 -12z" />
    <glyph glyph-name="Ldot" unicode="&#x13f;" horiz-adv-x="500" 
d="M415 0h-318q-11 0 -11 12v619q0 12 11 12h29q11 0 11 -12v-575q0 -9 9 -9h269q11 0 11 -11v-25q0 -11 -11 -11zM333 376v-114q0 -12 -10 -12h-36q-10 0 -10 12v114q0 11 10 11h36q10 0 10 -11z" />
    <glyph glyph-name="ldot" unicode="&#x140;" horiz-adv-x="314" 
d="M121 0h-29q-11 0 -11 12v679q0 12 11 12h29q11 0 11 -12v-679q0 -12 -11 -12zM271 376v-114q0 -12 -10 -12h-36q-10 0 -10 12v114q0 11 10 11h36q10 0 10 -11z" />
    <glyph glyph-name="Lslash" unicode="&#x141;" horiz-adv-x="504" 
d="M421 0h-318q-11 0 -11 12v364l-72 -41q-11 -5 -11 6v26q0 10 11 16l72 41v207q0 12 11 12h29q11 0 11 -12v-178l101 57q11 6 11 -6v-26q0 -10 -11 -16l-101 -57v-349q0 -9 9 -9h269q11 0 11 -11v-25q0 -11 -11 -11z" />
    <glyph glyph-name="lslash" unicode="&#x142;" horiz-adv-x="296" 
d="M162 0h-29q-11 0 -11 12v372l-84 -48q-12 -6 -12 6v27q0 9 12 16l84 48v258q0 12 11 12h29q11 0 11 -12v-230l85 49q11 6 11 -6v-27q0 -9 -11 -16l-85 -48v-401q0 -12 -11 -12z" />
    <glyph glyph-name="Nacute" unicode="&#x143;" horiz-adv-x="579" 
d="M363 836h45q12 0 5 -11l-90 -109q-6 -9 -16 -9h-21q-10 0 -4 12l63 106q5 11 18 11zM124 0h-29q-10 0 -10 12v619q0 12 10 12h27q9 0 12 -6l307 -528h4v522q0 12 11 12h28q11 0 11 -12v-619q0 -12 -11 -12h-23q-9 0 -16 11l-306 524h-4v-523q0 -12 -11 -12z" />
    <glyph glyph-name="nacute" unicode="&#x144;" horiz-adv-x="507" 
d="M321 703h44q5 0 7.5 -3.5t-1.5 -7.5l-90 -109q-7 -9 -17 -9h-20q-10 0 -4 12l63 106q5 11 18 11zM114 0h-29q-10 0 -10 12v486q0 12 10 12h29q11 0 11 -12v-40h4q28 52 104 52h66q64 0 101 -38t37 -104v-356q0 -12 -10 -12h-29q-11 0 -11 12v354q0 47 -24 73t-70 26h-65
q-48 0 -75.5 -25.5t-27.5 -72.5v-355q0 -12 -11 -12z" />
    <glyph glyph-name="uni0145" unicode="&#x145;" horiz-adv-x="579" 
d="M318 -43v-47q0 -24 -11 -57l-25 -84q-3 -7 -9.5 -7t-6.5 9v186q0 11 10 11h32q10 0 10 -11zM124 0h-29q-10 0 -10 12v619q0 12 10 12h27q9 0 12 -6l307 -528h4v522q0 12 11 12h28q11 0 11 -12v-619q0 -12 -11 -12h-23q-9 0 -16 11l-306 524h-4v-523q0 -12 -11 -12z" />
    <glyph glyph-name="uni0146" unicode="&#x146;" horiz-adv-x="505" 
d="M283 -43v-47q0 -19 -11 -57l-25 -84q-3 -7 -10 -7t-7 9v186q0 11 11 11h32q10 0 10 -11zM114 0h-29q-10 0 -10 12v486q0 12 10 12h29q11 0 11 -12v-40h4q28 52 104 52h66q64 0 101 -38t37 -104v-356q0 -12 -10 -12h-29q-11 0 -11 12v354q0 47 -24 73t-70 26h-65
q-48 0 -75.5 -25.5t-27.5 -72.5v-355q0 -12 -11 -12z" />
    <glyph glyph-name="Ncaron" unicode="&#x147;" horiz-adv-x="579" 
d="M124 0h-29q-10 0 -10 12v619q0 12 10 12h27q9 0 12 -6l307 -528h4v522q0 12 11 12h28q11 0 11 -12v-619q0 -12 -11 -12h-23q-9 0 -16 11l-306 524h-4v-523q0 -12 -11 -12zM281 707q-14 0 -20 9l-64 109q-7 11 5 11h24q10 0 12 -6l54 -97l53 97q2 6 12 6h24q12 0 5 -11
l-64 -109q-6 -9 -20 -9h-21z" />
    <glyph glyph-name="ncaron" unicode="&#x148;" horiz-adv-x="507" 
d="M245 574q-13 0 -19 9l-64 109q-7 11 5 11h23q9 0 13 -6l53 -97l53 97q4 6 13 6h24q11 0 4 -11l-63 -109q-6 -9 -20 -9h-22zM114 0h-29q-10 0 -10 12v486q0 12 10 12h29q11 0 11 -12v-40h4q28 52 104 52h66q64 0 101 -38t37 -104v-356q0 -12 -10 -12h-29q-11 0 -11 12v354
q0 47 -24 73t-70 26h-65q-48 0 -75.5 -25.5t-27.5 -72.5v-355q0 -12 -11 -12z" />
    <glyph glyph-name="Eng" unicode="&#x14a;" horiz-adv-x="519" 
d="M446 11l-305 524h-4v-523q0 -12 -11 -12h-29q-11 0 -11 12v619q0 12 11 12h27q9 0 12 -6l306 -528h4v522q0 12 11 12h29q10 0 10 -12v-630q0 -66 -37.5 -104t-102.5 -38h-30q-11 0 -11 11v23q0 11 11 11h21q99 0 99 102v5z" />
    <glyph glyph-name="eng" unicode="&#x14b;" horiz-adv-x="507" 
d="M297 -141h-30q-11 0 -11 11v23q0 11 11 11h22q98 0 98 102v360q0 47 -24 73t-70 26h-65q-48 0 -75.5 -25.5t-27.5 -72.5v-355q0 -12 -11 -12h-29q-10 0 -10 12v486q0 12 10 12h29q11 0 11 -12v-40h4q28 52 104 52h64q65 0 102.5 -38t37.5 -104v-367q0 -66 -37.5 -104
t-102.5 -38z" />
    <glyph glyph-name="Omacron" unicode="&#x14c;" horiz-adv-x="553" 
d="M377 752h-202q-12 0 -12 10v19q0 11 12 11h202q12 0 12 -11v-19q0 -10 -12 -10zM219 45h114q46 0 70.5 25.5t24.5 73.5v355q0 48 -24.5 73.5t-70.5 25.5h-114q-46 0 -70 -26t-24 -73v-355q0 -47 24 -73t70 -26zM338 0h-123q-65 0 -102.5 38t-37.5 104v359q0 66 37.5 104
t102.5 38h123q65 0 102.5 -38t37.5 -104v-359q0 -66 -37.5 -104t-102.5 -38z" />
    <glyph glyph-name="omacron" unicode="&#x14d;" horiz-adv-x="496" 
d="M349 620h-202q-12 0 -12 11v17q0 10 12 10h202q12 0 12 -10v-17q0 -11 -12 -11zM291 0h-86q-65 0 -102.5 38t-37.5 104v226q0 66 37.5 104t102.5 38h86q65 0 103 -38t38 -104v-226q0 -66 -38 -104t-103 -38zM209 45h78q46 0 70.5 25.5t24.5 72.5v224q0 47 -24.5 72.5
t-70.5 25.5h-78q-46 0 -70 -25.5t-24 -72.5v-224q0 -47 24 -72.5t70 -25.5z" />
    <glyph glyph-name="Obreve" unicode="&#x14e;" horiz-adv-x="553" 
d="M177 826q0 10 9 10h18q10 0 10 -10v-11q0 -43 13.5 -60t46.5 -17h4q35 0 49 17.5t14 59.5v10q0 10 9 10h17q9 0 9 -10v-11q0 -107 -95 -107h-10q-94 0 -94 107v12zM219 45h114q46 0 70.5 25.5t24.5 73.5v355q0 48 -24.5 73.5t-70.5 25.5h-114q-46 0 -70 -26t-24 -73v-355
q0 -47 24 -73t70 -26zM338 0h-123q-65 0 -102.5 38t-37.5 104v359q0 66 37.5 104t102.5 38h123q65 0 102.5 -38t37.5 -104v-359q0 -66 -37.5 -104t-102.5 -38z" />
    <glyph glyph-name="obreve" unicode="&#x14f;" horiz-adv-x="496" 
d="M209 45h78q46 0 70.5 25.5t24.5 72.5v224q0 47 -24.5 72.5t-70.5 25.5h-78q-46 0 -70 -25.5t-24 -72.5v-224q0 -47 24 -72.5t70 -25.5zM291 0h-86q-65 0 -102.5 38t-37.5 104v226q0 66 37.5 104t102.5 38h86q65 0 103 -38t38 -104v-226q0 -66 -38 -104t-103 -38zM148 681
v12q0 10 10 10h18q9 0 9 -10v-11q0 -42 13.5 -59.5t46.5 -17.5h5q34 0 48.5 17.5t14.5 59.5v10q0 10 9 10h17q9 0 9 -10v-11q0 -107 -95 -107h-10q-95 0 -95 107z" />
    <glyph glyph-name="Ohungarumlaut" unicode="&#x150;" horiz-adv-x="553" 
d="M276 836h31q14 0 6 -11l-80 -109q-8 -9 -16 -9h-16q-10 0 -4 12l61 106q6 11 18 11zM400 836h31q13 0 5 -11l-80 -109q-6 -9 -15 -9h-16q-11 0 -4 12l61 106q6 11 18 11zM219 45h114q46 0 70.5 25.5t24.5 73.5v355q0 48 -24.5 73.5t-70.5 25.5h-114q-46 0 -70 -26
t-24 -73v-355q0 -47 24 -73t70 -26zM338 0h-123q-65 0 -102.5 38t-37.5 104v359q0 66 37.5 104t102.5 38h123q65 0 102.5 -38t37.5 -104v-359q0 -66 -37.5 -104t-102.5 -38z" />
    <glyph glyph-name="ohungarumlaut" unicode="&#x151;" horiz-adv-x="496" 
d="M253 703h31q13 0 5 -11l-79 -109q-8 -9 -16 -9h-16q-10 0 -4 12l61 106q6 11 18 11zM377 703h31q13 0 5 -11l-80 -109q-6 -9 -15 -9h-16q-11 0 -5 12l62 106q5 11 18 11zM291 0h-86q-65 0 -102.5 38t-37.5 104v226q0 66 37.5 104t102.5 38h86q65 0 103 -38t38 -104v-226
q0 -66 -38 -104t-103 -38zM209 45h78q46 0 70.5 25.5t24.5 72.5v224q0 47 -24.5 72.5t-70.5 25.5h-78q-46 0 -70 -25.5t-24 -72.5v-224q0 -47 24 -72.5t70 -25.5z" />
    <glyph glyph-name="OE" unicode="&#x152;" horiz-adv-x="775" 
d="M76 142v359q0 66 38 104t103 38h471q12 0 12 -11v-23q0 -11 -12 -11h-257q-10 0 -10 -9v-230q0 -9 10 -9h229q11 0 11 -11v-23q0 -11 -11 -11h-229q-10 0 -10 -9v-242q0 -9 10 -9h257q12 0 12 -11v-23q0 -11 -12 -11h-471q-65 0 -103 38t-38 104zM221 45h140q10 0 10 9
v535q0 9 -10 9h-140q-46 0 -70 -25.5t-24 -73.5v-355q0 -48 24 -73.5t70 -25.5z" />
    <glyph glyph-name="oe" unicode="&#x153;" horiz-adv-x="812" 
d="M288 0h-83q-65 0 -102.5 38t-37.5 104v226q0 66 37.5 104t102.5 38h81q86 0 122 -66q35 66 120 66h80q65 0 102.5 -38t37.5 -104v-127q0 -12 -11 -12h-296q-9 0 -9 -9v-76q0 -48 24 -73.5t70 -25.5h204q11 0 11 -11v-23q0 -11 -11 -11h-203q-87 0 -123 67
q-30 -67 -116 -67zM441 269h247q10 0 10 9v88q0 47 -24 73t-70 26h-78q-46 0 -70 -25.5t-24 -73.5v-88q0 -9 9 -9zM209 45h78q46 0 70 25.5t24 73.5v222q0 48 -24 73.5t-70 25.5h-78q-46 0 -70 -26t-24 -73v-222q0 -47 24 -73t70 -26z" />
    <glyph glyph-name="Racute" unicode="&#x154;" horiz-adv-x="534" 
d="M309 836h44q5 0 7.5 -3t-1.5 -8l-90 -109q-7 -9 -17 -9h-20q-10 0 -4 12l63 106q5 11 18 11zM124 0h-29q-10 0 -10 12v619q0 12 10 12h228q65 0 103 -38t38 -104v-95q0 -56 -28.5 -92t-77.5 -46v-4l119 -252q6 -12 -7 -12h-31q-13 0 -18 12l-118 252h-158q-10 0 -10 -9
v-243q0 -12 -11 -12zM145 307h173q46 0 71 25.5t25 72.5v94q0 47 -25 73t-71 26h-173q-10 0 -10 -9v-273q0 -9 10 -9z" />
    <glyph glyph-name="racute" unicode="&#x155;" horiz-adv-x="313" 
d="M214 703h44q5 0 7 -3.5t-2 -7.5l-89 -109q-8 -9 -17 -9h-20q-9 0 -5 12l63 106q5 11 19 11zM114 0h-29q-10 0 -10 12v486q0 12 10 12h29q11 0 11 -12v-42h4q11 21 39 37.5t69 16.5h39q11 0 11 -11v-24q0 -11 -11 -10h-47q-49 0 -76.5 -30t-27.5 -81v-342q0 -12 -11 -12z
" />
    <glyph glyph-name="uni0156" unicode="&#x156;" horiz-adv-x="534" 
d="M293 -43v-47q0 -24 -11 -57l-25 -84q-3 -7 -9.5 -7t-6.5 9v186q0 11 10 11h32q10 0 10 -11zM124 0h-29q-10 0 -10 12v619q0 12 10 12h228q65 0 103 -38t38 -104v-95q0 -56 -28.5 -92t-77.5 -46v-4l119 -252q6 -12 -7 -12h-31q-13 0 -18 12l-118 252h-158q-10 0 -10 -9
v-243q0 -12 -11 -12zM145 307h173q46 0 71 25.5t25 72.5v94q0 47 -25 73t-71 26h-173q-10 0 -10 -9v-273q0 -9 10 -9z" />
    <glyph glyph-name="uni0157" unicode="&#x157;" horiz-adv-x="313" 
d="M127 -43v-47q0 -19 -11 -57l-25 -84q-4 -7 -9 -7q-8 0 -8 9v186q0 11 11 11h32q10 0 10 -11zM114 0h-29q-10 0 -10 12v486q0 12 10 12h29q11 0 11 -12v-42h4q11 21 39 37.5t69 16.5h39q11 0 11 -11v-24q0 -11 -11 -10h-47q-49 0 -76.5 -30t-27.5 -81v-342q0 -12 -11 -12z
" />
    <glyph glyph-name="Rcaron" unicode="&#x158;" horiz-adv-x="534" 
d="M242 707q-14 0 -20 9l-63 109q-7 11 5 11h23q10 0 12 -6l54 -97l53 97q4 6 13 6h23q12 0 5 -11l-64 -109q-6 -9 -19 -9h-22zM124 0h-29q-10 0 -10 12v619q0 12 10 12h228q65 0 103 -38t38 -104v-95q0 -56 -28.5 -92t-77.5 -46v-4l119 -252q6 -12 -7 -12h-31q-13 0 -18 12
l-118 252h-158q-10 0 -10 -9v-243q0 -12 -11 -12zM145 307h173q46 0 71 25.5t25 72.5v94q0 47 -25 73t-71 26h-173q-10 0 -10 -9v-273q0 -9 10 -9z" />
    <glyph glyph-name="rcaron" unicode="&#x159;" horiz-adv-x="313" 
d="M164 574q-14 0 -20 9l-64 109q-7 11 5 11h24q10 0 12 -6l53 -97l54 97q2 6 12 6h24q12 0 5 -11l-64 -109q-6 -9 -20 -9h-21zM114 0h-29q-10 0 -10 12v486q0 12 10 12h29q11 0 11 -12v-42h4q11 21 39 37.5t69 16.5h39q11 0 11 -11v-24q0 -11 -11 -10h-47q-49 0 -76.5 -30
t-27.5 -81v-342q0 -12 -11 -12z" />
    <glyph glyph-name="Sacute" unicode="&#x15a;" horiz-adv-x="562" 
d="M81 142v36q0 11 11 11h29q11 0 11 -11v-33q0 -100 97 -100h104q97 0 97 101v42q0 44 -36 69t-87 36l-102.5 23t-87.5 44t-36 86v55q0 66 38 104t103 38h116q65 0 103 -38t38 -104v-28q0 -11 -11 -11h-29q-11 0 -11 11v25q0 100 -97 100h-103q-96 0 -96 -102v-50
q0 -69 123 -93q51 -10 102.5 -23t87.5 -47t36 -92v-49q0 -66 -38 -104t-103 -38h-118q-65 0 -103 38t-38 104zM337 836h44q5 0 7 -3t-2 -8l-89 -109q-7 -9 -17 -9h-20q-11 0 -5 12l63 106q6 11 19 11z" />
    <glyph glyph-name="sacute" unicode="&#x15b;" horiz-adv-x="427" 
d="M257 703h45q5 0 6.5 -3.5t-1.5 -7.5l-90 -109q-7 -9 -17 -9h-20q-10 0 -4 12l63 106q5 11 18 11zM240 0h-174q-11 0 -11 11v23q0 10 11 10h169q90 0 90 70v24q0 65 -56 85l-125 48q-51 20 -72.5 47t-21.5 75q0 117 129 117h162q11 0 11 -11v-23q0 -10 -11 -10h-157
q-41 0 -61.5 -18t-20.5 -42v-23q0 -28 15.5 -44t47.5 -27l125 -50q52 -17 69.5 -50.5t17.5 -93.5t-33.5 -89t-103.5 -29z" />
    <glyph glyph-name="Scircumflex" unicode="&#x15c;" horiz-adv-x="562" 
d="M81 142v36q0 11 11 11h29q11 0 11 -11v-33q0 -100 97 -100h104q97 0 97 101v42q0 44 -36 69t-87 36l-102.5 23t-87.5 44t-36 86v55q0 66 38 104t103 38h116q65 0 103 -38t38 -104v-28q0 -11 -11 -11h-29q-11 0 -11 11v25q0 100 -97 100h-103q-96 0 -96 -102v-50
q0 -69 123 -93q51 -10 102.5 -23t87.5 -47t36 -92v-49q0 -66 -38 -104t-103 -38h-118q-65 0 -103 38t-38 104zM371 707h-24q-9 0 -13 6l-53 97l-53 -97q-4 -6 -13 -6h-23q-12 0 -5 11l64 109q6 9 19 9h22q14 0 20 -9l63 -109q7 -11 -4 -11z" />
    <glyph glyph-name="scircumflex" unicode="&#x15d;" horiz-adv-x="427" 
d="M300 574h-23q-9 0 -13 6l-53 97l-53 -97q-4 -6 -13 -6h-23q-12 0 -5 11l63 109q6 9 20 9h22q13 0 19 -9l64 -109q7 -11 -5 -11zM240 0h-174q-11 0 -11 11v23q0 10 11 10h169q90 0 90 70v24q0 65 -56 85l-125 48q-51 20 -72.5 47t-21.5 75q0 117 129 117h162q11 0 11 -11
v-23q0 -10 -11 -10h-157q-41 0 -61.5 -18t-20.5 -42v-23q0 -28 15.5 -44t47.5 -27l125 -50q52 -17 69.5 -50.5t17.5 -93.5t-33.5 -89t-103.5 -29z" />
    <glyph glyph-name="uni015E" unicode="&#x15e;" horiz-adv-x="562" 
d="M132 496v-50q0 -69 123 -93q51 -10 102.5 -23t87.5 -47t36 -92v-49q0 -66 -38 -104t-103 -38h-15l-43 -46v-4q78 0 78 -61v-12q0 -60 -83 -60h-24q-11 0 -11 10v13q0 10 11 10h20q29 0 40.5 7t11.5 25v2q0 19 -11.5 26t-40.5 7h-13q-18 0 -23 13.5t7 25.5l39 44h-61
q-65 0 -103 38t-38 104v36q0 11 11 11h29q11 0 11 -11v-33q0 -100 97 -100h104q97 0 97 101v42q0 44 -36 69t-87 36l-102.5 23t-87.5 44t-36 86v55q0 66 38 104t103 38h116q65 0 103 -38t38 -104v-28q0 -11 -11 -11h-29q-11 0 -11 11v25q0 100 -97 100h-103q-96 0 -96 -102z
" />
    <glyph glyph-name="uni015F" unicode="&#x15f;" horiz-adv-x="427" 
d="M211 -50q78 0 78 -61v-12q0 -60 -82 -60h-25q-11 0 -11 10v13q0 10 11 10h20q53 0 53 32v2q0 19 -11.5 26t-41.5 7h-13q-18 0 -23 13.5t7 25.5l39 44h-146q-11 0 -11 11v23q0 10 11 10h169q90 0 90 70v24q0 65 -56 85l-125 48q-51 20 -72.5 47t-21.5 75q0 117 129 117
h162q11 0 11 -11v-23q0 -10 -11 -10h-157q-41 0 -61.5 -18t-20.5 -42v-23q0 -28 15.5 -44t47.5 -27l125 -50q52 -17 69.5 -50.5t17.5 -91.5t-30 -87.5t-92 -32.5l-44 -46v-4z" />
    <glyph glyph-name="Scaron" unicode="&#x160;" horiz-adv-x="562" 
d="M81 142v36q0 11 11 11h29q11 0 11 -11v-33q0 -100 97 -100h104q97 0 97 101v42q0 44 -36 69t-87 36l-102.5 23t-87.5 44t-36 86v55q0 66 38 104t103 38h116q65 0 103 -38t38 -104v-28q0 -11 -11 -11h-29q-11 0 -11 11v25q0 100 -97 100h-103q-96 0 -96 -102v-50
q0 -69 123 -93q51 -10 102.5 -23t87.5 -47t36 -92v-49q0 -66 -38 -104t-103 -38h-118q-65 0 -103 38t-38 104zM290 707h-21q-14 0 -20 9l-64 109q-7 11 5 11h24q10 0 12 -6l53 -97l54 97q2 6 12 6h24q11 0 4 -11l-63 -109q-6 -9 -20 -9z" />
    <glyph glyph-name="scaron" unicode="&#x161;" horiz-adv-x="427" 
d="M200 574q-14 0 -20 9l-63 109q-7 11 5 11h23q9 0 13 -6l53 -97l53 97q4 6 13 6h23q12 0 5 -11l-64 -109q-6 -9 -19 -9h-22zM240 0h-174q-11 0 -11 11v23q0 10 11 10h169q90 0 90 70v24q0 65 -56 85l-125 48q-51 20 -72.5 47t-21.5 75q0 117 129 117h162q11 0 11 -11v-23
q0 -10 -11 -10h-157q-41 0 -61.5 -18t-20.5 -42v-23q0 -28 15.5 -44t47.5 -27l125 -50q52 -17 69.5 -50.5t17.5 -93.5t-33.5 -89t-103.5 -29z" />
    <glyph glyph-name="uni0162" unicode="&#x162;" horiz-adv-x="420" 
d="M237 -43v-47q0 -19 -11 -57l-26 -84q-1 -7 -8.5 -7t-7.5 9v186q0 11 10 11h32q11 0 11 -11zM225 0h-29q-11 0 -11 12v577q0 9 -10 9h-145q-12 0 -12 11v23q0 11 12 11h360q12 0 12 -11v-23q0 -11 -12 -11h-145q-10 0 -10 -9v-577q0 -12 -10 -12z" />
    <glyph glyph-name="uni0163" unicode="&#x163;" horiz-adv-x="347" 
d="M234 -43v-47q0 -19 -11 -57l-26 -84q-1 -7 -8.5 -7t-7.5 9v186q0 11 11 11h32q10 0 10 -11zM97 465h-61q-11 0 -11 10v24q0 11 11 11h61q9 0 9 9v81q0 12 11 12h29q11 0 11 -12v-81q0 -9 9 -9h119q11 0 11 -11v-24q0 -10 -11 -10h-119q-9 0 -9 -9v-315q0 -46 26 -71
t73 -25h39q11 0 11 -11v-23q0 -11 -11 -11h-43q-66 0 -106 37t-40 102v317q0 9 -9 9z" />
    <glyph glyph-name="Tcaron" unicode="&#x164;" horiz-adv-x="420" 
d="M200 707q-13 0 -19 9l-64 109q-7 11 5 11h23q9 0 13 -6l53 -97l54 97q2 6 12 6h24q11 0 4 -11l-63 -109q-6 -9 -20 -9h-22zM225 0h-29q-11 0 -11 12v577q0 9 -10 9h-145q-12 0 -12 11v23q0 11 12 11h360q12 0 12 -11v-23q0 -11 -12 -11h-145q-10 0 -10 -9v-577
q0 -12 -10 -12z" />
    <glyph glyph-name="tcaron" unicode="&#x165;" horiz-adv-x="396" 
d="M388 632v-69q0 -20 -36 -151q-3 -7 -10 -7t-7 9v218q0 11 11 11h31q11 0 11 -11zM97 465h-61q-11 0 -11 10v24q0 11 11 11h61q9 0 9 9v81q0 12 11 12h29q11 0 11 -12v-81q0 -9 9 -9h119q11 0 11 -11v-24q0 -10 -11 -10h-119q-9 0 -9 -9v-315q0 -46 26 -71t73 -25h39
q11 0 11 -11v-23q0 -11 -11 -11h-43q-66 0 -106 37t-40 102v317q0 9 -9 9z" />
    <glyph glyph-name="Tbar" unicode="&#x166;" horiz-adv-x="501" 
d="M230 0h-29q-11 0 -11 12v302q0 9 -10 9h-94q-12 0 -12 10v20q0 11 12 11h94q10 0 10 9v216q0 9 -10 9h-147q-11 0 -11 11v23q0 11 11 11h364q12 0 12 -11v-23q0 -11 -12 -11h-147q-10 0 -10 -9v-216q0 -9 10 -9h103q12 0 12 -11v-20q0 -10 -12 -10h-103q-10 0 -10 -9
v-302q0 -12 -10 -12z" />
    <glyph glyph-name="tbar" unicode="&#x167;" horiz-adv-x="350" 
d="M297 0h-44q-66 0 -106 37t-40 102v122q0 9 -9 9h-62q-11 0 -11 11v20q0 11 11 11h62q9 0 9 9v135q0 9 -9 9h-62q-11 0 -11 10v24q0 11 11 11h62q9 0 9 9v81q0 12 11 12h29q11 0 11 -12v-81q0 -9 9 -9h120q12 0 12 -11v-24q0 -10 -12 -10h-120q-9 0 -9 -9v-135q0 -9 9 -9
h120q12 0 12 -11v-20q0 -11 -12 -11h-120q-9 0 -9 -9v-120q0 -46 26 -71t73 -25h40q12 0 12 -11v-23q0 -11 -12 -11z" />
    <glyph glyph-name="Utilde" unicode="&#x168;" horiz-adv-x="552" 
d="M264 713q-13 -11 -41 -11t-41 18.5t-13 59.5v39q0 9 9 9h14q8 0 8 -9v-33q0 -30 6 -41.5t21 -11.5t21 9t18 39.5t23.5 40t39.5 9.5t41 -18.5t13 -58.5v-41q0 -10 -9 -10h-14q-8 0 -8 10v34q0 31 -6 42.5t-21.5 11.5t-20.5 -7.5t-16 -38.5t-24 -42zM433 643h28
q11 0 11 -11v-490q0 -66 -37.5 -104t-102.5 -38h-112q-65 0 -102.5 38t-37.5 104v489q0 12 10 12h29q11 0 11 -12v-487q0 -47 24 -73t70 -26h103q46 0 70.5 25.5t24.5 73.5v487q0 12 11 12z" />
    <glyph glyph-name="utilde" unicode="&#x169;" horiz-adv-x="507" 
d="M142 654v39q0 9 9 9h14q8 0 8 -9v-33q0 -30 6 -41.5t21 -11.5t21.5 9t18 39.5t23 40.5t39.5 10t41 -18.5t13 -59.5v-41q0 -10 -9 -10h-14q-8 0 -8 10v34q0 31 -6 42.5t-21 11.5t-20.5 -7.5t-16.5 -38.5t-24 -42t-41 -11t-41 18.5t-13 59.5zM274 0h-66q-64 0 -101 38
t-37 104v356q0 12 10 12h29q11 0 11 -12v-354q0 -47 24 -73t70 -26h65q48 0 75.5 25.5t27.5 72.5v355q0 12 11 12h29q10 0 10 -12v-486q0 -12 -10 -12h-29q-11 0 -11 12v40h-4q-26 -52 -104 -52z" />
    <glyph glyph-name="Umacron" unicode="&#x16a;" horiz-adv-x="552" 
d="M377 752h-202q-12 0 -12 10v19q0 11 12 11h202q12 0 12 -11v-19q0 -10 -12 -10zM433 643h28q11 0 11 -11v-490q0 -66 -37.5 -104t-102.5 -38h-112q-65 0 -102.5 38t-37.5 104v489q0 12 10 12h29q11 0 11 -12v-487q0 -47 24 -73t70 -26h103q46 0 70.5 25.5t24.5 73.5v487
q0 12 11 12z" />
    <glyph glyph-name="umacron" unicode="&#x16b;" horiz-adv-x="507" 
d="M352 620h-202q-12 0 -12 11v17q0 10 12 10h202q12 0 12 -10v-17q0 -11 -12 -11zM274 0h-66q-64 0 -101 38t-37 104v356q0 12 10 12h29q11 0 11 -12v-354q0 -47 24 -73t70 -26h65q48 0 75.5 25.5t27.5 72.5v355q0 12 11 12h29q10 0 10 -12v-486q0 -12 -10 -12h-29
q-11 0 -11 12v40h-4q-26 -52 -104 -52z" />
    <glyph glyph-name="Ubreve" unicode="&#x16c;" horiz-adv-x="552" 
d="M177 826q0 10 9 10h19q9 0 9 -10v-11q0 -43 13.5 -60t46.5 -17h4q35 0 49 17.5t14 59.5v10q0 10 9 10h17q9 0 9 -10v-11q0 -107 -95 -107h-10q-94 0 -94 107v12zM433 643h28q11 0 11 -11v-490q0 -66 -37.5 -104t-102.5 -38h-112q-65 0 -102.5 38t-37.5 104v489
q0 12 10 12h29q11 0 11 -12v-487q0 -47 24 -73t70 -26h103q46 0 70.5 25.5t24.5 73.5v487q0 12 11 12z" />
    <glyph glyph-name="ubreve" unicode="&#x16d;" horiz-adv-x="507" 
d="M274 0h-66q-64 0 -101 38t-37 104v356q0 12 10 12h29q11 0 11 -12v-354q0 -47 24 -73t70 -26h65q48 0 75.5 25.5t27.5 72.5v355q0 12 11 12h29q10 0 10 -12v-486q0 -12 -10 -12h-29q-11 0 -11 12v40h-4q-26 -52 -104 -52zM152 672v13q0 10 9 10h19q9 0 9 -10v-12
q0 -42 13.5 -59t46.5 -17h5q34 0 48 17t14 59v11q0 10 9 10h17q9 0 9 -10v-12q0 -106 -95 -106h-10q-94 0 -94 106z" />
    <glyph glyph-name="Uring" unicode="&#x16e;" horiz-adv-x="552" 
d="M285 695h-20q-71 0 -71 73v31q0 73 71 73h20q35 0 54 -19t19 -54v-31q0 -35 -19 -54t-54 -19zM269 722h12q46 0 46 51v21q0 50 -46 50h-11q-46 0 -46 -50v-21q0 -51 45 -51zM433 643h28q11 0 11 -11v-490q0 -66 -37.5 -104t-102.5 -38h-112q-65 0 -102.5 38t-37.5 104
v489q0 12 10 12h29q11 0 11 -12v-487q0 -47 24 -73t70 -26h103q46 0 70.5 25.5t24.5 73.5v487q0 12 11 12z" />
    <glyph glyph-name="uring" unicode="&#x16f;" horiz-adv-x="507" 
d="M274 0h-66q-64 0 -101 38t-37 104v356q0 12 10 12h29q11 0 11 -12v-354q0 -47 24 -73t70 -26h65q48 0 75.5 25.5t27.5 72.5v355q0 12 11 12h29q10 0 10 -12v-486q0 -12 -10 -12h-29q-11 0 -11 12v40h-4q-26 -52 -104 -52zM182 661v-38q0 -24 10 -33.5t35 -9.5h14
q25 0 35.5 9.5t10.5 33.5v38q0 24 -10.5 33t-35.5 9h-14q-25 0 -35 -9t-10 -33zM153 619v47q0 64 69 64h24q70 0 70 -64v-47q0 -65 -70 -65h-24q-69 0 -69 65z" />
    <glyph glyph-name="Uhungarumlaut" unicode="&#x170;" horiz-adv-x="552" 
d="M273 836h31q13 0 5 -11l-80 -109q-6 -9 -16 -9h-16q-10 0 -4 12l61 106q6 11 19 11zM396 836h31q14 0 5 -11l-79 -109q-7 -9 -16 -9h-16q-10 0 -4 12l61 106q6 11 18 11zM433 643h28q11 0 11 -11v-490q0 -66 -37.5 -104t-102.5 -38h-112q-65 0 -102.5 38t-37.5 104v489
q0 12 10 12h29q11 0 11 -12v-487q0 -47 24 -73t70 -26h103q46 0 70.5 25.5t24.5 73.5v487q0 12 11 12z" />
    <glyph glyph-name="uhungarumlaut" unicode="&#x171;" horiz-adv-x="507" 
d="M253 703h31q14 0 5 -11l-79 -109q-8 -9 -16 -9h-16q-10 0 -4 12l61 106q6 11 18 11zM377 703h31q13 0 5 -11l-79 -109q-8 -9 -16 -9h-16q-10 0 -5 12l62 106q6 11 18 11zM274 0h-66q-64 0 -101 38t-37 104v356q0 12 10 12h29q11 0 11 -12v-354q0 -47 24 -73t70 -26h65
q48 0 75.5 25.5t27.5 72.5v355q0 12 11 12h29q10 0 10 -12v-486q0 -12 -10 -12h-29q-11 0 -11 12v40h-4q-26 -52 -104 -52z" />
    <glyph glyph-name="Uogonek" unicode="&#x172;" horiz-adv-x="552" 
d="M433 643h28q11 0 11 -11v-490q0 -66 -37.5 -104t-102.5 -38h-19l-53 -70h39q17 0 22.5 -2.5t5.5 -11.5t-22 -15.5t-49 -6.5t-33.5 12.5t5.5 27.5l50 66h-58q-65 0 -102.5 38t-37.5 104v489q0 12 10 12h29q11 0 11 -12v-487q0 -47 24 -73t70 -26h103q46 0 70.5 25.5
t24.5 73.5v487q0 12 11 12z" />
    <glyph glyph-name="uogonek" unicode="&#x173;" horiz-adv-x="503" 
d="M352 -72l39 1q28 1 26 -11q-1 -11 -23 -20.5t-47.5 -9.5t-31 17.5t7.5 31.5l59 80v35h-4q-26 -52 -104 -52h-66q-64 0 -101 38t-37 104v356q0 12 10 12h29q11 0 11 -12v-354q0 -47 24 -73t70 -26h65q48 0 75.5 25.5t27.5 72.5v355q0 12 11 12h29q10 0 10 -12v-486
q0 -12 -10 -12h-19q-7 -11 -20.5 -29.5z" />
    <glyph glyph-name="Wcircumflex" unicode="&#x174;" horiz-adv-x="795" 
d="M487 707h-23q-11 0 -13 6l-53 97l-54 -97q-2 -6 -12 -6h-24q-11 0 -4 11l63 109q6 9 20 9h22q13 0 19 -9l64 -109q7 -11 -5 -11zM233 0h-50q-11 0 -14 12l-137 619q-3 12 10 12h33q11 0 13 -12l119 -574h5l152 575q2 11 13 11h38q12 0 14 -11l153 -575h5l118 574
q2 12 14 12h34q12 0 9 -12l-137 -619q-2 -12 -13 -12h-51q-11 0 -14 12l-148 564h-4l-149 -564q-3 -12 -13 -12z" />
    <glyph glyph-name="wcircumflex" unicode="&#x175;" horiz-adv-x="682" 
d="M430 574h-24q-10 0 -12 6l-53 97l-54 -97q-2 -6 -12 -6h-24q-11 0 -4 11l63 109q6 9 20 9h22q13 0 19 -9l64 -109q7 -11 -5 -11zM214 0h-40q-10 0 -13 12l-140 486q-3 12 8 12h32q11 0 13 -12l118 -435h5l116 435q2 12 14 12h29q12 0 14 -12l114 -435h5l119 435
q3 12 13 12h32q12 0 8 -12l-139 -486q-3 -12 -14 -12h-40q-11 0 -14 12l-111 422h-5l-110 -422q-3 -12 -14 -12z" />
    <glyph glyph-name="Ycircumflex" unicode="&#x176;" horiz-adv-x="493" 
d="M335 707h-24q-10 0 -12 6l-53 97l-54 -97q-2 -6 -12 -6h-24q-12 0 -5 11l64 109q6 9 20 9h21q14 0 20 -9l64 -109q7 -11 -5 -11zM261 0h-29q-11 0 -11 12v231l-194 388q-6 12 7 12h36q9 0 14 -12l160 -327h5l159 327q5 12 14 12h37q11 0 7 -12l-195 -388v-231
q0 -12 -10 -12z" />
    <glyph glyph-name="ycircumflex" unicode="&#x177;" horiz-adv-x="459" 
d="M327 574h-24q-10 0 -12 6l-54 97l-53 -97q-2 -6 -13 -6h-23q-12 0 -5 11l64 109q6 9 19 9h22q14 0 20 -9l63 -109q7 -11 -4 -11zM99 -152h-37q-11 0 -11 11v24q0 11 11 11h27q30 0 51 8.5t37 31.5t21 36q14 31 23 57h-19q-11 0 -14 12l-159 459q-4 12 8 12h31
q10 0 13 -12l147 -429h4l147 429q3 12 13 12h30q12 0 9 -12q-179 -524 -186.5 -542t-27.5 -49q-38 -59 -118 -59z" />
    <glyph glyph-name="Ydieresis" unicode="&#x178;" horiz-adv-x="493" 
d="M140 719v106q0 11 11 11h28q10 0 10 -11v-106q0 -12 -10 -12h-28q-11 0 -11 12zM303 719v106q0 11 11 11h28q10 0 10 -11v-106q0 -12 -10 -12h-28q-11 0 -11 12zM261 0h-29q-11 0 -11 12v231l-194 388q-6 12 7 12h36q9 0 14 -12l160 -327h5l159 327q5 12 14 12h37
q11 0 7 -12l-195 -388v-231q0 -12 -10 -12z" />
    <glyph glyph-name="Zacute" unicode="&#x179;" horiz-adv-x="482" 
d="M318 836h45q12 0 5 -11l-90 -109q-8 -9 -17 -9h-20q-10 0 -4 12l63 106q6 11 18 11zM42 11v26q0 12 4 17l327 538v4h-308q-12 0 -12 11v25q0 11 12 11h353q12 0 12 -11v-33q0 -9 -5 -17l-324 -531v-4h327q12 0 12 -10v-26q0 -11 -12 -11h-375q-11 0 -11 11z" />
    <glyph glyph-name="zacute" unicode="&#x17a;" horiz-adv-x="405" 
d="M285 703h44q5 0 7.5 -3.5t-1.5 -7.5l-90 -109q-7 -9 -17 -9h-20q-10 0 -5 12l64 106q4 11 18 11zM34 11v14q0 11 6 19l262 417v4h-250q-11 0 -11 11v23q0 11 11 11h300q12 0 12 -11v-22q0 -9 -5 -17l-258 -411v-4h258q12 0 12 -11v-23q0 -11 -12 -11h-313q-12 0 -12 11z
" />
    <glyph glyph-name="Zdotaccent" unicode="&#x17b;" horiz-adv-x="482" 
d="M236 723v98q0 12 11 12h29q10 0 10 -11v-99q0 -11 -10 -11h-29q-11 0 -11 11zM42 11v26q0 12 4 17l327 538v4h-308q-12 0 -12 11v25q0 11 12 11h353q12 0 12 -11v-33q0 -9 -5 -17l-324 -531v-4h327q12 0 12 -10v-26q0 -11 -12 -11h-375q-11 0 -11 11z" />
    <glyph glyph-name="zdotaccent" unicode="&#x17c;" horiz-adv-x="405" 
d="M196 589v99q0 11 11 11h29q11 0 11 -11v-99q0 -11 -11 -11h-29q-11 0 -11 11zM34 11v14q0 11 6 19l262 417v4h-250q-11 0 -11 11v23q0 11 11 11h300q12 0 12 -11v-22q0 -9 -5 -17l-258 -411v-4h258q12 0 12 -11v-23q0 -11 -12 -11h-313q-12 0 -12 11z" />
    <glyph glyph-name="Zcaron" unicode="&#x17d;" horiz-adv-x="482" 
d="M246 707q-13 0 -19 9l-64 109q-7 11 5 11h24q10 0 12 -6l53 -97l54 97q2 6 12 6h24q11 0 4 -11l-63 -109q-6 -9 -20 -9h-22zM42 11v26q0 12 4 17l327 538v4h-308q-12 0 -12 11v25q0 11 12 11h353q12 0 12 -11v-33q0 -9 -5 -17l-324 -531v-4h327q12 0 12 -10v-26
q0 -11 -12 -11h-375q-11 0 -11 11z" />
    <glyph glyph-name="zcaron" unicode="&#x17e;" horiz-adv-x="405" 
d="M213 574q-14 0 -20 9l-64 109q-7 11 5 11h24q10 0 12 -6l53 -97l54 97q2 6 12 6h24q12 0 5 -11l-64 -109q-6 -9 -20 -9h-21zM34 11v14q0 11 6 19l262 417v4h-250q-11 0 -11 11v23q0 11 11 11h300q12 0 12 -11v-22q0 -9 -5 -17l-258 -411v-4h258q12 0 12 -11v-23
q0 -11 -12 -11h-313q-12 0 -12 11z" />
    <glyph glyph-name="florin" unicode="&#x192;" horiz-adv-x="494" 
d="M60 -133h-29q-13 0 -13 11v23q0 11 13 11h31q80 0 101 97l71 335q2 11 -7 11h-77q-13 0 -13 11v22q0 11 12 11h87q10 0 12 8l33 156q31 140 155 140h27q13 0 13 -11v-23q0 -11 -12 -11h-32q-80 0 -101 -97l-33 -154q-2 -8 8 -8h96q13 0 13 -11v-22q0 -11 -10 -11h-109
q-8 0 -11 -9l-73 -342q-29 -137 -152 -137z" />
    <glyph glyph-name="AEacute" unicode="&#x1fc;" horiz-adv-x="773" 
d="M485 836h45q5 0 7 -3t-2 -8l-90 -109q-6 -9 -16 -9h-20q-11 0 -5 12l63 106q5 11 18 11zM42 0h-34q-10 0 -6 12l339 619q7 12 18 12h338q11 0 11 -11v-23q0 -11 -11 -11h-260q-9 0 -9 -9v-230q0 -9 9 -9h232q11 0 11 -11v-23q0 -11 -11 -11h-232q-9 0 -9 -9v-242
q0 -9 9 -9h260q11 0 11 -11v-23q0 -11 -11 -11h-309q-11 0 -11 12v160h-230l-89 -160q-7 -12 -16 -12zM377 219v370h-4l-203 -370h207z" />
    <glyph glyph-name="aeacute" unicode="&#x1fd;" horiz-adv-x="795" 
d="M470 703h45q5 0 6.5 -3.5t-1.5 -7.5l-90 -109q-6 -9 -17 -9h-20q-10 0 -4 12l63 106q6 11 18 11zM425 198v-54q0 -48 24 -73.5t70 -25.5h201q11 0 11 -11v-23q0 -11 -11 -11h-205q-90 0 -121 66q-32 -66 -128 -66h-62q-64 0 -102 37.5t-38 102.5v25q0 65 37.5 102.5
t102.5 37.5h162q8 0 8 8v54q0 47 -24.5 72.5t-69.5 25.5h-154q-12 0 -12 11v23q0 11 12 11h153q91 0 121 -66q33 66 123 66h68q65 0 102.5 -38t37.5 -104v-149q0 -12 -11 -12h-286q-9 0 -9 -9zM685 255v111q0 48 -24.5 73.5t-70.5 25.5h-64q-47 0 -74 -24t-27 -71v-115
q0 -8 9 -8h241q10 0 10 8zM375 142v113q0 9 -10 9h-156q-96 0 -96 -99v-22q0 -99 96 -99h63q48 0 75.5 25t27.5 73z" />
    <glyph glyph-name="Oslashacute" unicode="&#x1fe;" horiz-adv-x="558" 
d="M482 501v-359q0 -66 -38 -104t-102 -38h-125q-74 0 -111 48l-27 -37q-8 -9 -17 -3l-12 8q-8 7 -1 17l37 52q-9 25 -9 57v359q0 66 37.5 104t102.5 38h125q74 0 111 -48l26 36q7 10 17 4l12 -8q8 -7 1 -17l-36 -51q9 -26 9 -58zM127 499v-358l294 410q-20 47 -84 47h-115
q-46 0 -70.5 -25.5t-24.5 -73.5zM431 144v357l-294 -409q22 -47 85 -47h115q46 0 70 25.5t24 73.5zM280 707h-20q-11 0 -5 12l63 106q6 11 18 11h45q5 0 7 -3t-2 -8l-89 -109q-7 -9 -17 -9z" />
    <glyph glyph-name="oslashacute" unicode="&#x1ff;" horiz-adv-x="521" 
d="M444 368v-226q0 -66 -38 -104t-103 -38h-85q-86 0 -122 63l-38 -38q-9 -8 -16 0l-11 11q-8 6 -1 16l51 51q-4 16 -4 39v226q0 66 38 104t103 38h85q86 0 122 -63l38 38q9 9 16 1l12 -12q7 -7 -1 -16l-50 -50q4 -17 4 -40zM127 366v-217l260 260q-19 56 -88 56h-77
q-46 0 -70.5 -25.5t-24.5 -73.5zM393 144v217l-259 -260q19 -56 88 -56h77q46 0 70 25.5t24 73.5zM273 574h-20q-10 0 -4 12l63 106q6 11 18 11h45q5 0 6.5 -3.5t-1.5 -7.5l-90 -109q-6 -9 -17 -9z" />
    <glyph glyph-name="uni0218" unicode="&#x218;" horiz-adv-x="562" 
d="M81 142v36q0 11 11 11h29q11 0 11 -11v-33q0 -100 97 -100h104q97 0 97 101v42q0 44 -36 69t-87 36l-102.5 23t-87.5 44t-36 86v55q0 66 38 104t103 38h116q65 0 103 -38t38 -104v-28q0 -11 -11 -11h-29q-11 0 -11 11v25q0 100 -97 100h-103q-96 0 -96 -102v-50
q0 -69 123 -93q51 -10 102.5 -23t87.5 -47t36 -92v-49q0 -66 -38 -104t-103 -38h-118q-65 0 -103 38t-38 104zM318 -43v-47q0 -19 -11 -57l-26 -84q-3 -7 -8 -7q-8 0 -8 9v186q0 11 10 11h32q11 0 11 -11z" />
    <glyph glyph-name="uni0219" unicode="&#x219;" horiz-adv-x="427" 
d="M252 -43v-47q0 -19 -11 -57l-26 -84q-1 -7 -8.5 -7t-7.5 9v186q0 11 11 11h32q10 0 10 -11zM240 0h-174q-11 0 -11 11v23q0 10 11 10h169q90 0 90 70v24q0 65 -56 85l-125 48q-51 20 -72.5 47t-21.5 75q0 117 129 117h162q11 0 11 -11v-23q0 -10 -11 -10h-157
q-41 0 -61.5 -18t-20.5 -42v-23q0 -28 15.5 -44t47.5 -27l125 -50q52 -17 69.5 -50.5t17.5 -93.5t-33.5 -89t-103.5 -29z" />
    <glyph glyph-name="circumflex" unicode="&#x2c6;" horiz-adv-x="326" 
d="M252 574h-24q-10 0 -12 6l-53 97l-54 -97q-2 -6 -12 -6h-24q-12 0 -5 11l64 109q6 9 20 9h21q14 0 20 -9l64 -109q7 -11 -5 -11z" />
    <glyph glyph-name="caron" unicode="&#x2c7;" horiz-adv-x="326" 
d="M152 574q-14 0 -20 9l-64 109q-7 11 5 11h24q10 0 12 -6l54 -97l53 97q2 6 12 6h24q12 0 5 -11l-64 -109q-6 -9 -20 -9h-21z" />
    <glyph glyph-name="uni02C9" unicode="&#x2c9;" horiz-adv-x="358" 
d="M280 620h-202q-12 0 -12 11v17q0 10 12 10h202q12 0 12 -10v-17q0 -11 -12 -11z" />
    <glyph glyph-name="breve" unicode="&#x2d8;" horiz-adv-x="332" 
d="M66 681v12q0 10 10 10h18q9 0 9 -10v-11q0 -42 13.5 -59.5t46.5 -17.5h5q34 0 48.5 17.5t14.5 59.5v10q0 10 9 10h17q9 0 9 -10v-11q0 -107 -95 -107h-11q-94 0 -94 107z" />
    <glyph glyph-name="dotaccent" unicode="&#x2d9;" horiz-adv-x="183" 
d="M66 589v99q0 11 11 11h29q11 0 11 -11v-99q0 -11 -11 -11h-29q-11 0 -11 11z" />
    <glyph glyph-name="ring" unicode="&#x2da;" horiz-adv-x="297" 
d="M80 661v-38q0 -24 10 -33.5t35 -9.5h14q25 0 35.5 9.5t10.5 33.5v38q0 24 -10.5 33t-35.5 9h-14q-25 0 -35 -9t-10 -33zM52 619v47q0 64 68 64h24q70 0 70 -64v-47q0 -65 -70 -65h-24q-68 0 -68 65z" />
    <glyph glyph-name="ogonek" unicode="&#x2db;" horiz-adv-x="243" 
d="M106 -72l39 1q28 1 26 -11q0 -11 -22 -20.5t-47.5 -9.5t-31 17.5t6.5 31.5l62 83l31 -3z" />
    <glyph glyph-name="tilde" unicode="&#x2dc;" horiz-adv-x="369" 
d="M66 654v39q0 9 9 9h14q8 0 8 -9v-33q0 -30 6 -41.5t21 -11.5t21 9t18 39.5t23.5 40.5t39.5 10t41 -18.5t13 -59.5v-41q0 -10 -9 -10h-14q-8 0 -8 10v34q0 31 -6 42.5t-23 11.5t-24 -17q-2 -3 -12 -31.5t-23 -39.5t-41 -11t-41 18.5t-13 59.5z" />
    <glyph glyph-name="hungarumlaut" unicode="&#x2dd;" horiz-adv-x="377" 
d="M149 703h30q14 0 6 -11l-80 -109q-7 -9 -16 -9h-15q-11 0 -5 12l61 106q6 11 19 11zM272 703h31q13 0 5 -11l-80 -109q-6 -9 -15 -9h-16q-9 0 -5 12l62 106q6 11 18 11z" />
    <glyph glyph-name="Mu" unicode="&#x39c;" horiz-adv-x="527" 
d="M133 -121q0 -12 -11 -12h-29q-11 0 -11 12v619q0 12 11 12h29q11 0 11 -12v-354q0 -48 24 -73.5t70 -25.5h65q48 0 75.5 25.5t27.5 72.5v355q0 12 11 12h28q11 0 11 -12v-486q0 -12 -11 -12h-28q-11 0 -11 12v40h-4q-28 -52 -105 -52q-6 0 -27.5 -0.5t-30 0t-26 2
t-26.5 5.5q-29 12 -43 29v-157z" />
    <glyph glyph-name="Pi" unicode="&#x3a0;" horiz-adv-x="605" 
d="M186 0h-29q-10 0 -10 12v576q0 8 -10 8h-87q-12 0 -12 11v25q0 11 12 11h506q11 0 11 -11v-25q0 -11 -11 -11h-88q-9 0 -9 -9v-575q0 -12 -11 -12h-29q-11 0 -11 12v575q0 9 -9 9h-192q-10 0 -10 -9v-575q0 -12 -11 -12z" />
    <glyph glyph-name="Sigma" unicode="&#x3a3;" horiz-adv-x="481" 
d="M61 610v22q0 11 11 11h339q12 0 12 -11v-26q0 -11 -12 -11h-290v-4l162 -254q10 -17 0 -34l-163 -252v-4h292q11 0 11 -12v-26q0 -9 -11 -9h-340q-11 0 -11 11v21q0 11 5 19l168 268v4l-168 268q-5 6 -5 19z" />
    <glyph glyph-name="uni0901" unicode="&#x901;" horiz-adv-x="0" 
d="M-75 687h-77q-119 0 -119 122v7q0 14 12 14h22q11 0 11 -14v-6q0 -44 18 -62.5t61 -18.5h68q43 0 60.5 18.5t17.5 62.5v6q0 14 13 14h20q13 0 13 -14v-6q0 -123 -120 -123zM-88 876v-32q0 -12 -11 -12h-27q-11 0 -11 12v32q0 12 11 12h27q11 0 11 -12z" />
    <glyph glyph-name="uni0902" unicode="&#x902;" horiz-adv-x="0" 
d="M-92 779v-37q0 -12 -11 -12h-32q-11 0 -11 12v37q0 12 11 12h32q11 0 11 -12z" />
    <glyph glyph-name="uni0903" unicode="&#x903;" horiz-adv-x="247" 
d="M151 422v-37q0 -13 -12 -13h-30q-12 0 -12 13v37q0 13 12 13h30q12 0 12 -13zM151 122v-37q0 -13 -12 -13h-30q-12 0 -12 13v37q0 13 12 13h30q12 0 12 -13z" />
    <glyph glyph-name="uni0905" unicode="&#x905;" horiz-adv-x="598" 
d="M480 623h120q12 0 12 -11v-19q0 -12 -12 -12h-84q-10 0 -10 -9v-560q0 -12 -11 -12h-26q-11 0 -11 12v227q0 9 -10 9h-134q2 -16 2 -24v-42q0 -66 -38 -104.5t-104 -38.5h-126q-12 0 -12 11v22q0 11 12 11h124q47 0 71.5 25.5t24.5 73.5v38q0 96 -96 96h-63q-12 0 -12 12
v21q0 11 12 11h63q96 0 96 97v25q0 48 -24.5 73.5t-71.5 25.5h-89q-12 0 -12 12v19q0 11 12 11h92q67 0 104 -37t37 -104v-27q0 -88 -67 -114v-4q35 -13 52 -46h147q10 0 10 9v299q0 10 6 17t16 7z" />
    <glyph glyph-name="uni0906" unicode="&#x906;" horiz-adv-x="828" 
d="M478 623h352q12 0 12 -11v-19q0 -12 -12 -12h-84q-10 0 -10 -9v-560q0 -12 -11 -12h-26q-11 0 -11 12v560q0 9 -10 9h-164q-10 0 -10 -9v-560q0 -12 -11 -12h-26q-11 0 -11 12v227q0 9 -10 9h-134q2 -16 2 -24v-42q0 -66 -38 -104.5t-104 -38.5h-126q-12 0 -12 11v22
q0 11 12 11h124q47 0 71.5 25.5t24.5 73.5v38q0 96 -96 96h-63q-12 0 -12 12v21q0 11 12 11h63q96 0 96 97v25q0 48 -24.5 73.5t-71.5 25.5h-89q-12 0 -12 12v19q0 11 12 11h92q67 0 104 -37t37 -104v-27q0 -88 -67 -114v-4q35 -13 52 -46h147q10 0 10 9v299q0 10 6 17t16 7
z" />
    <glyph glyph-name="uni0907" unicode="&#x907;" horiz-adv-x="478" 
d="M286 236h-88q-126 0 -126 110v16q0 109 126 109h130q10 0 10 9v92q0 9 -10 9h-330q-12 0 -12 12v19q0 11 12 11h482q12 0 12 -11v-19q0 -12 -12 -12h-84q-10 0 -10 -9v-119q0 -12 -7 -19t-18 -7h-161q-44 0 -62 -15.5t-18 -52.5v-13q0 -37 18.5 -52t61.5 -15h90
q125 0 125 -107v-47q0 -111 -125 -111h-86q-62 0 -84 35h-4v-81q0 -11 -12 -11h-23q-12 0 -12 11v190q0 12 12 12h23q12 0 12 -12v-21q0 -79 83 -79h87q44 0 62.5 15.5t18.5 53.5v42q0 37 -18.5 52t-62.5 15z" />
    <glyph glyph-name="uni0908" unicode="&#x908;" horiz-adv-x="478" 
d="M299 731v-59q0 -30 11 -39.5t47 -9.5h123q12 0 12 -11v-19q0 -12 -12 -12h-84q-10 0 -10 -8v-120q0 -12 -7 -19t-18 -7h-161q-44 0 -62 -15.5t-18 -52.5v-13q0 -37 18.5 -52t61.5 -15h90q125 0 125 -107v-47q0 -111 -125 -111h-86q-62 0 -84 35h-4v-81q0 -11 -12 -11h-23
q-12 0 -12 11v190q0 12 12 12h23q12 0 12 -12v-21q0 -79 83 -79h87q44 0 62.5 15.5t18.5 53.5v42q0 37 -18.5 52t-62.5 15h-88q-126 0 -126 110v16q0 109 126 109h130q10 0 10 9v93q0 8 -10 8h-330q-12 0 -12 12v19q0 11 12 11h273v4q-21 11 -21 52v53q0 68 37 102.5
t98 34.5h57q12 0 12 -11v-22q0 -11 -12 -11h-56q-87 0 -87 -94z" />
    <glyph glyph-name="uni0909" unicode="&#x909;" horiz-adv-x="471" 
d="M403 209v-65q0 -66 -38.5 -105t-104.5 -39h-69q-66 0 -104.5 38.5t-38.5 105.5v61q0 13 12 13h25q11 0 11 -13v-60q0 -48 25.5 -74.5t72.5 -26.5h64q47 0 72 26.5t25 75.5v56q0 99 -97 99h-60q-12 0 -12 11v21q0 12 12 12h56q96 0 96 96v42q0 46 -24 72t-68 26h-260
q-12 0 -12 12v19q0 11 12 11h475q12 0 12 -11v-19q0 -12 -12 -12h-121v-4q46 -23 46 -95v-44q0 -86 -61 -112v-4q66 -31 66 -113z" />
    <glyph glyph-name="uni090A" unicode="&#x90a;" horiz-adv-x="661" 
d="M-2 623h665q12 0 12 -11v-19q0 -12 -12 -12h-311v-4q46 -23 46 -95v-44q0 -86 -61 -112v-4l2 -1h156q61 0 97 -34.5t36 -97.5v-48q0 -63 -36 -97.5t-97 -34.5h-21q-12 0 -12 12v21q0 11 12 11h14q93 0 93 95v35q0 95 -93 95h-102q17 -29 17 -69v-64q0 -66 -38.5 -105.5
t-104.5 -39.5h-69q-66 0 -104.5 38.5t-38.5 105.5v61q0 13 12 13h25q11 0 11 -13v-60q0 -48 25.5 -74.5t72.5 -26.5h64q47 0 72 26.5t25 76.5v55q0 99 -97 99h-60q-12 0 -12 11v21q0 12 12 12h56q96 0 96 96v42q0 46 -24 72t-68 26h-260q-12 0 -12 12v19q0 11 12 11z" />
    <glyph glyph-name="uni090B" unicode="&#x90b;" horiz-adv-x="753" 
d="M-2 623h757q12 0 12 -11v-19q0 -12 -12 -12h-344q-10 0 -10 -9v-297l182 141q18 14 35 14h48q11 0 11 -12v-192q0 -16 -19 -16h-30q-43 0 -62 -16t-19 -53v-30q0 -37 19 -52.5t63 -15.5h48q14 0 14 -12v-19q0 -12 -15 -12h-50q-127 0 -127 108v35q0 104 122 107
q10 0 10 9v137l-230 -178v-206q0 -12 -11 -12h-26q-11 0 -11 12v166l-216 -167q-11 -11 -24 -11h-30q-10 0 -10 8.5t16 20.5l183 142l80 60v67q0 89 -98 89h-45q-97 0 -97 -88v-57q0 -13 -11 -13h-26q-11 0 -11 13v59q0 64 37.5 97t104.5 33h43q72 0 100 -41h4v182
q0 9 -10 9h-345q-12 0 -12 12v19q0 11 12 11z" />
    <glyph glyph-name="uni090C" unicode="&#x90c;" horiz-adv-x="676" 
d="M658 -119q5 5 10.5 5t14.5 -12t9 -16.5t-9 -13.5q-49 -49 -136 -49q-141 0 -141 129q0 66 30.5 97t93.5 31h6v249q0 52 -22.5 74.5t-69.5 22.5t-69.5 -22t-22.5 -75v-87q0 -12 -12 -12h-24q-12 0 -12 12v89q0 51 -23 73t-69.5 22t-69.5 -23t-23 -75v-120q0 -52 24.5 -75
t73.5 -23h48q12 0 12 -12v-21q0 -11 -12 -11h-52q-67 0 -104.5 35t-37.5 105v124q0 71 37 106t102 35q93 0 116 -67h4q21 67 111 67q68 0 91 -42h4v171q0 9 -9 9h-529q-12 0 -12 12v19q0 11 12 11h680q13 0 13 -11v-19q0 -12 -13 -12h-84q-9 0 -9 -9v-551q0 -12 -13 -12h-41
q-44 0 -61 -20t-17 -66t23 -65.5t77.5 -19.5t104.5 43z" />
    <glyph glyph-name="uni090D" unicode="&#x90d;" horiz-adv-x="521" 
d="M-2 623h530q12 0 12 -11v-19q0 -12 -12 -12h-62q-10 0 -10 -9v-149q0 -70 -36 -104t-98 -34h-43q-12 0 -12 12v21q0 11 12 11h40q89 0 89 94v149q0 9 -9 9h-250q-10 0 -10 -9v-391q0 -50 27.5 -77.5t78.5 -27.5h172q12 0 12 -12v-21q0 -12 -12 -12h-178q-68 0 -107.5 41
t-39.5 108v392q0 9 -10 9h-84q-12 0 -12 12v19q0 11 12 11zM309 725h-70q-120 0 -120 122v7q0 14 12 14h22q12 0 12 -14v-6q0 -44 17.5 -62.5t60.5 -18.5h62q43 0 60.5 18.5t17.5 62.5v6q0 14 12 14h21q13 0 13 -14v-7q0 -122 -120 -122z" />
    <glyph glyph-name="uni090E" unicode="&#x90e;" horiz-adv-x="522" 
d="M468 623h60q12 0 12 -11v-19q0 -12 -12 -12h-62q-10 0 -10 -9v-149q0 -70 -36 -104t-98 -34h-43q-12 0 -12 12v21q0 11 12 11h40q89 0 89 94v149q0 9 -9 9h-250q-10 0 -10 -9v-391q0 -50 27.5 -77.5t78.5 -27.5h172q12 0 12 -12v-21q0 -12 -12 -12h-178q-68 0 -107.5 41
t-39.5 108v392q0 9 -10 9h-84q-12 0 -12 12v19q0 11 12 11h402q10 0 10 13t-12.5 25.5t-56.5 35.5l-64 33q-42 21 -60 47.5t-18 69.5v14q0 11 11 11h25q11 0 11 -11v-12q0 -45 28 -65q9 -7 76 -41t87.5 -55t20.5 -56q0 -9 10 -9z" />
    <glyph glyph-name="uni090F" unicode="&#x90f;" horiz-adv-x="526" 
d="M-2 623h530q12 0 12 -11v-19q0 -12 -12 -12h-62q-10 0 -10 -9v-149q0 -70 -36 -104t-98 -34h-43q-12 0 -12 12v21q0 11 12 11h40q89 0 89 94v149q0 9 -9 9h-250q-10 0 -10 -9v-391q0 -50 27.5 -77.5t78.5 -27.5h172q12 0 12 -12v-21q0 -12 -12 -12h-178q-68 0 -107.5 41
t-39.5 108v392q0 9 -10 9h-84q-12 0 -12 12v19q0 11 12 11z" />
    <glyph glyph-name="uni0910" unicode="&#x910;" horiz-adv-x="526" 
d="M468 623h60q12 0 12 -11v-19q0 -12 -12 -12h-62q-10 0 -10 -9v-149q0 -70 -36 -104t-98 -34h-43q-12 0 -12 12v21q0 11 12 11h40q89 0 89 94v149q0 9 -9 9h-250q-10 0 -10 -9v-391q0 -50 27.5 -77.5t78.5 -27.5h172q12 0 12 -12v-21q0 -12 -12 -12h-178q-68 0 -107.5 41
t-39.5 108v392q0 9 -10 9h-84q-12 0 -12 12v19q0 11 12 11h414q-54 65 -107 141l-61 90q-3 4 -3 9q0 9 10 9h27q11 0 18 -10l148 -225q9 -14 24 -14z" />
    <glyph glyph-name="uni0911" unicode="&#x911;" horiz-adv-x="829" 
d="M480 623h351q13 0 13 -11v-19q0 -12 -13 -12h-84q-9 0 -9 -9v-560q0 -12 -12 -12h-25q-11 0 -11 12v560q0 9 -10 9h-164q-10 0 -10 -9v-560q0 -12 -11 -12h-26q-11 0 -11 12v227q0 9 -10 9h-134q2 -16 2 -24v-42q0 -66 -38 -104.5t-104 -38.5h-126q-12 0 -12 11v22
q0 11 12 11h124q47 0 71.5 25.5t24.5 73.5v38q0 96 -96 96h-63q-12 0 -12 12v21q0 11 12 11h63q96 0 96 97v25q0 48 -24.5 73.5t-71.5 25.5h-89q-12 0 -12 12v19q0 11 12 11h92q67 0 104 -37t37 -104v-27q0 -88 -67 -114v-4q35 -13 52 -46h147q10 0 10 9v299q0 10 6 17t16 7
zM638 687h-70q-120 0 -120 122v7q0 14 13 14h21q12 0 12 -14v-6q0 -44 17.5 -62.5t60.5 -18.5h62q43 0 60.5 18.5t17.5 62.5v6q0 14 13 14h20q13 0 13 -14v-6q0 -123 -120 -123z" />
    <glyph glyph-name="uni0912" unicode="&#x912;" horiz-adv-x="828" 
d="M748 623h82q12 0 12 -11v-19q0 -12 -12 -12h-84q-10 0 -10 -9v-560q0 -12 -11 -12h-26q-11 0 -11 12v560q0 9 -10 9h-162q-10 0 -10 -9v-560q0 -12 -11 -12h-26q-11 0 -11 12v227q0 9 -10 9h-134q2 -16 2 -24v-42q0 -66 -38 -104.5t-104 -38.5h-126q-12 0 -12 11v22
q0 11 12 11h124q47 0 71.5 25.5t24.5 73.5v38q0 96 -96 96h-63q-12 0 -12 12v21q0 11 12 11h63q96 0 96 97v25q0 48 -24.5 73.5t-71.5 25.5h-89q-12 0 -12 12v19q0 11 12 11h92q67 0 104 -37t37 -104v-27q0 -88 -67 -114v-4q35 -13 52 -46h147q10 0 10 9v299q0 10 6 17t16 7
h200q10 0 10 13t-12.5 25.5t-56.5 35.5l-64 33q-42 21 -60 47.5t-18 69.5v14q0 11 11 11h25q11 0 11 -11v-12q0 -45 28 -65q9 -7 76 -41t87.5 -55t20.5 -56q0 -9 10 -9z" />
    <glyph glyph-name="uni0913" unicode="&#x913;" horiz-adv-x="829" 
d="M751 623h80q13 0 13 -11v-19q0 -12 -13 -12h-84q-9 0 -9 -9v-560q0 -12 -12 -12h-25q-11 0 -11 12v560q0 9 -10 9h-164q-10 0 -10 -9v-560q0 -12 -11 -12h-26q-11 0 -11 12v227q0 9 -10 9h-134q2 -16 2 -24v-42q0 -66 -38 -104.5t-104 -38.5h-126q-12 0 -12 11v22
q0 11 12 11h124q47 0 71.5 25.5t24.5 73.5v38q0 96 -96 96h-63q-12 0 -12 12v21q0 11 12 11h63q96 0 96 97v25q0 48 -24.5 73.5t-71.5 25.5h-89q-12 0 -12 12v19q0 11 12 11h92q67 0 104 -37t37 -104v-27q0 -88 -67 -114v-4q35 -13 52 -46h147q10 0 10 9v299q0 10 6 17t16 7
h210v4q-47 53 -104 137l-62 90q-3 4 -3 9q0 9 10 9h30q11 0 18 -10l148 -225q9 -14 24 -14z" />
    <glyph glyph-name="uni0914" unicode="&#x914;" horiz-adv-x="829" 
d="M745 623h86q13 0 13 -11v-19q0 -12 -13 -12h-84q-9 0 -9 -9v-560q0 -12 -12 -12h-25q-11 0 -11 12v560q0 9 -10 9h-164q-10 0 -10 -9v-560q0 -12 -11 -12h-26q-11 0 -11 12v227q0 9 -10 9h-134q2 -16 2 -24v-42q0 -66 -38 -104.5t-104 -38.5h-126q-12 0 -12 11v22
q0 11 12 11h124q47 0 71.5 25.5t24.5 73.5v38q0 96 -96 96h-63q-12 0 -12 12v21q0 11 12 11h63q96 0 96 97v25q0 48 -24.5 73.5t-71.5 25.5h-89q-12 0 -12 12v19q0 11 12 11h92q67 0 104 -37t37 -104v-27q0 -88 -67 -114v-4q35 -13 52 -46h147q10 0 10 9v299q0 10 6 17t16 7
h208v4q-37 30 -111 137l-61 90q-3 4 -3 9q0 9 11 9h24q14 0 20 -11l138 -214l3 1q-18 41 -18 160v53q0 11 11 11h24q12 0 12 -11v-229q0 -9 7 -9z" />
    <glyph glyph-name="uni0915" unicode="&#x915;" horiz-adv-x="725" 
d="M386 572v-138h4q22 47 98 47h34q66 0 104 -37.5t38 -103.5v-106q0 -66 -38 -103.5t-104 -37.5h-49q-12 0 -12 12v21q0 11 12 11h46q47 0 72 25.5t25 73.5v102q0 48 -25.5 73.5t-72.5 25.5h-36q-46 0 -71 -24t-25 -69v-332q0 -12 -11 -12h-25q-11 0 -11 12v128h-4
q-25 -47 -97 -47h-35q-66 0 -104 37.5t-38 103.5v106q1 66 39 103.5t103 37.5h50q12 0 12 -11v-22q0 -11 -12 -11h-46q-47 0 -72.5 -25.5t-25.5 -73.5v-102q0 -48 25.5 -73.5t73.5 -25.5h35q46 0 71 24.5t25 68.5v342q0 9 -10 9h-331q-12 0 -12 12v19q0 11 12 11h730
q12 0 12 -11v-19q0 -12 -12 -12h-332q-10 0 -10 -9z" />
    <glyph glyph-name="uni0916" unicode="&#x916;" horiz-adv-x="696" 
d="M557 186h-4q-28 -46 -95 -47h-7q-63 0 -97.5 37t-34.5 101v43q0 64 35.5 100.5t99.5 36.5h18q12 0 12 -12v-21q0 -11 -12 -11h-16q-89 0 -89 -97v-36q0 -98 90 -98h5q95 0 95 99v291q0 9 -10 9h-282q-9 0 -9 -9v-157q0 -66 -33 -98.5t-90 -32.5h-41l178 -263q5 -7 5 -11
q0 -10 -11 -10h-27q-9 0 -16 11l-168 248l-19 24v32q0 13 13 13h80q81 0 81 88v156q0 9 -9 9h-201q-12 0 -12 12v19q0 11 12 11h700q12 0 12 -11v-19q0 -12 -12 -12h-84q-10 0 -10 -9v-560q0 -12 -11 -12h-25q-11 0 -11 12v174z" />
    <glyph glyph-name="uni0917" unicode="&#x917;" horiz-adv-x="494" 
d="M-2 623h498q12 0 12 -11v-19q0 -12 -12 -12h-84q-10 0 -10 -9v-560q0 -12 -11 -12h-26q-11 0 -11 12v560q0 9 -9 9h-154q-9 0 -9 -9v-214q0 -71 -35.5 -105t-98.5 -34h-17q-12 0 -12 11v22q0 12 12 12h14q88 0 88 95v213q0 9 -9 9h-126q-12 0 -12 12v19q0 11 12 11z" />
    <glyph glyph-name="uni0918" unicode="&#x918;" horiz-adv-x="559" 
d="M72 461v33q0 64 36 83v4h-110q-12 0 -12 12v19q0 11 12 11h563q12 0 12 -11v-19q0 -12 -12 -12h-84q-9 0 -9 -9v-560q0 -12 -12 -12h-25q-12 0 -12 12v118h-4q-23 -49 -97 -49h-110q-64 0 -100 33.5t-36 97.5v41q0 82 63 104v4q-63 22 -63 100zM410 581h-213
q-77 0 -77 -85v-32q0 -83 82 -83h62q12 0 12 -12v-21q0 -11 -12 -11h-62q-82 0 -82 -84v-38q0 -90 92 -90h104q51 0 77 28t26 77v342q0 9 -9 9z" />
    <glyph glyph-name="uni0919" unicode="&#x919;" horiz-adv-x="505" 
d="M472 354v-33q0 -12 -11 -12h-30q-11 0 -11 12v33q0 12 11 12h30q11 0 11 -12zM-2 623h509q12 0 12 -11v-19q0 -12 -12 -12h-114q-10 0 -10 -9v-127q0 -12 -7 -19t-18 -7h-155q-44 0 -62 -15t-18 -53v-13q0 -38 18 -53t62 -15h84q126 0 126 -107v-52q0 -111 -126 -111h-93
q-62 0 -93 28.5t-31 93.5v8q0 14 12 14h24q11 0 11 -14v-8q0 -46 17.5 -62.5t61.5 -16.5h87q44 0 62.5 16t18.5 55v45q0 38 -18.5 53.5t-62.5 15.5h-82q-126 0 -126 108v18q0 109 126 109h125q10 0 10 9v100q0 9 -9 9h-329q-12 0 -12 12v19q0 11 12 11z" />
    <glyph glyph-name="uni091A" unicode="&#x91a;" horiz-adv-x="563" 
d="M151 390h-117q-12 0 -12 11v22q0 11 12 11h276q13 0 13 -11v-22q0 -11 -13 -11h-64q-45 0 -68.5 -25.5t-23.5 -73.5v-44q0 -47 25 -72.5t72 -25.5h73q47 0 73 25.5t26 72.5v325q0 9 -9 9h-416q-12 0 -12 12v19q0 11 12 11h567q13 0 13 -11v-19q0 -12 -13 -12h-84
q-9 0 -9 -9v-560q0 -12 -12 -12h-26q-11 0 -11 12v141h-4q-24 -48 -99 -48h-73q-65 0 -103 37t-38 103v45q0 70 45 96v4z" />
    <glyph glyph-name="uni091B" unicode="&#x91b;" horiz-adv-x="581" 
d="M-2 623h585q12 0 12 -11v-19q0 -11 -12 -12h-91q-11 0 -11 -8v-122q0 -27 -14 -41q41 -30 41 -101v-127q0 -62 -37 -100.5t-101 -38.5h-160q-64 0 -99 33t-35 97v47q0 84 63 104v4q-63 21 -63 99v66q0 64 37 84v4h-115q-12 1 -12 12v19q0 11 12 11zM344 433h39
q24 0 46 -5q4 8 4 21v123q0 9 -10 9h-218q-42 0 -61 -21.5t-19 -66.5v-62q0 -83 82 -83h41q12 0 12 -11v-22q0 -11 -12 -11h-39q-84 0 -84 -85v-42q0 -48 20.5 -69t67.5 -21h151q97 0 97 100v121q0 43 -19 63.5t-61 20.5h-37q-13 0 -13 11v19q0 11 13 11z" />
    <glyph glyph-name="uni091C" unicode="&#x91c;" horiz-adv-x="547" 
d="M237 375v-4q41 -22 41 -89v-76q0 -68 -34.5 -102t-94.5 -34h-107q-12 0 -12 11v21q0 12 12 12h100q88 0 88 95v72q0 94 -89 94h-58q-12 0 -12 11v23q0 11 12 11h314q10 0 10 9v143q0 9 -9 9h-400q-12 0 -12 12v19q0 11 12 11h551q12 0 12 -11v-19q0 -12 -12 -12h-84
q-10 0 -10 -9v-560q0 -12 -11 -12h-26q-11 0 -11 12v354q0 9 -10 9h-160z" />
    <glyph glyph-name="uni091D" unicode="&#x91d;" horiz-adv-x="664" 
d="M515 581h-154q-10 0 -10 -9v-103q0 -26 -25 -26h-124q-44 0 -62.5 -15t-18.5 -53v-13q0 -37 19 -52t62 -15h312q10 0 10 10v267q0 9 -9 9zM294 581h-296q-12 0 -12 12v19q0 11 12 11h668q12 0 12 -11v-19q0 -12 -12 -12h-84q-10 0 -10 -9v-560q0 -12 -11 -12h-26
q-11 0 -11 12v231q0 9 -10 9h-157q24 -18 24 -64v-38q0 -111 -126 -111h-52q-63 0 -84 34h-4v-86q0 -12 -12 -12h-23q-12 0 -12 12v199q0 12 12 12h23q12 0 12 -12v-25q0 -79 83 -79h54q44 0 62.5 16t18.5 54v32q0 37 -17 52.5t-56 15.5h-60q-127 0 -127 110v16
q0 109 127 109h94q9 0 9 9v76q0 9 -9 9z" />
    <glyph glyph-name="uni091E" unicode="&#x91e;" horiz-adv-x="592" 
d="M443 262h-142q-10 0 -10 -9l-1 -35q-2 -64 -37.5 -95.5t-95.5 -31.5h-101q-12 0 -12 11v22q0 11 12 11h100q90 0 90 95v100q0 95 -89 95h-85q-13 0 -13 11v22q0 11 13 11h85q60 0 95.5 -31.5t37.5 -96.5q0 -25 1 -26q0 -9 10 -9h142q9 0 9 10v256q0 9 -9 9h-445
q-12 0 -12 12v19q0 11 12 11h596q12 0 12 -11v-19q0 -12 -12 -12h-84q-9 0 -9 -9v-560q0 -12 -12 -12h-25q-12 0 -12 12v241q0 9 -9 9z" />
    <glyph glyph-name="uni091F" unicode="&#x91f;" horiz-adv-x="485" 
d="M209 440h113q9 0 9 9v123q0 9 -9 9h-324q-12 0 -12 12v19q0 11 12 11h489q12 0 12 -11v-19q0 -12 -12 -12h-98q-10 0 -10 -9v-150q0 -26 -25 -26h-142q-47 0 -72 -26t-25 -74v-113q0 -48 25 -74t72 -26h79q47 0 72 25.5t25 73.5v40q0 13 11 13h24q12 0 12 -13v-41
q0 -66 -38 -104t-104 -38h-84q-66 0 -104 38.5t-38 104.5v115q0 66 38 104.5t104 38.5z" />
    <glyph glyph-name="uni0920" unicode="&#x920;" horiz-adv-x="512" 
d="M293 396h-82q-47 0 -72 -26.5t-25 -74.5v-111q0 -48 25.5 -74.5t72.5 -26.5h79q48 0 73 26.5t25 74.5v111q0 48 -25 74.5t-71 26.5zM514 581h-112q-10 0 -10 -9v-63q0 -62 -40 -83v-4q39 -9 62 -41t23 -79v-122q0 -65 -38.5 -103t-103.5 -38h-87q-66 0 -104 38.5
t-38 104.5v115q0 66 38.5 104.5t103.5 38.5h65q36 0 53.5 16t17.5 58v58q0 9 -9 9h-337q-12 0 -12 12v19q0 11 12 11h516q13 0 13 -11v-19q0 -12 -13 -12z" />
    <glyph glyph-name="uni0921" unicode="&#x921;" horiz-adv-x="475" 
d="M-2 623h479q13 0 13 -11v-19q0 -12 -13 -12h-84q-10 0 -10 -9v-127q0 -12 -7 -19t-18 -7h-155q-44 0 -62 -15t-18 -53v-17q0 -38 18 -53t62 -15h82q128 0 128 -107v-48q0 -55 -34 -83t-93 -28h-91q-125 0 -125 122v8q0 14 12 14h24q11 0 11 -14v-8q0 -45 19.5 -62
t61.5 -17h84q82 0 82 71v41q0 38 -19.5 53.5t-63.5 15.5h-80q-126 0 -126 108v22q0 109 126 109h125q10 0 10 9v100q0 9 -9 9h-329q-12 0 -12 12v19q0 11 12 11z" />
    <glyph glyph-name="uni0922" unicode="&#x922;" horiz-adv-x="485" 
d="M307 39h-97q-66 0 -103.5 38.5t-37.5 104.5v120q0 67 37.5 105t102.5 38h119q9 0 9 9v118q0 9 -9 9h-330q-12 0 -12 12v19q0 11 12 11h489q13 0 13 -11v-19q0 -12 -13 -12h-92q-10 0 -10 -9v-146q0 -24 -23 -24h-150q-47 0 -71.5 -26.5t-24.5 -74.5v-120
q0 -48 24.5 -73.5t72.5 -25.5h94q45 0 65 21.5t20 67.5v15q0 39 -11 55t-44 16t-44 -15.5t-11 -54.5v-15q0 -12 -11 -12h-19q-14 0 -14 13v15q0 56 22.5 83t76 27t77 -27.5t23.5 -85.5v-16q0 -130 -130 -130z" />
    <glyph glyph-name="uni0923" unicode="&#x923;" horiz-adv-x="681" 
d="M313 581h-174q-10 0 -10 -9v-257q0 -92 86 -92h22q86 0 86 92v257q0 9 -10 9zM532 581h-154q-8 0 -8 -9v-257q0 -69 -35.5 -102.5t-96.5 -33.5h-24q-61 0 -96.5 33.5t-35.5 102.5v257q0 9 -10 9h-74q-12 0 -12 12v19q0 11 12 11h685q13 0 13 -11v-19q0 -12 -13 -12h-84
q-9 0 -9 -9v-560q0 -12 -12 -12h-25q-11 0 -11 12v560q0 9 -10 9z" />
    <glyph glyph-name="uni0924" unicode="&#x924;" horiz-adv-x="496" 
d="M114 275v-137q0 -95 97 -95h13q13 0 13 -11v-21q0 -11 -13 -11h-19q-63 0 -101 34.5t-38 104.5v137q0 71 36 105t99 34h145q10 0 10 9v148q0 9 -9 9h-349q-12 0 -12 12v19q0 11 12 11h500q12 0 12 -11v-19q0 -12 -12 -12h-84q-10 0 -10 -9v-560q0 -12 -11 -12h-26
q-11 0 -11 12v349q0 9 -10 9h-142q-90 0 -90 -95z" />
    <glyph glyph-name="uni0925" unicode="&#x925;" horiz-adv-x="593" 
d="M453 159h-4q-26 -54 -111 -54h-122q-72 0 -113.5 43t-41.5 111v95q0 11 12 11h120q89 0 89 91v52q0 73 -74 73t-74 -73v-43q0 -12 -11 -12h-24q-11 0 -11 12v46q0 55 32 84t87.5 29t88.5 -29t33 -87v-53q0 -134 -135 -134h-85v-61q0 -53 28.5 -82t82.5 -29h119
q54 0 84 30.5t30 81.5v338q0 10 6 17t16 7h120q12 0 12 -11v-19q0 -12 -12 -12h-84q-9 0 -9 -9v-560q0 -12 -12 -12h-25q-12 0 -12 12v147z" />
    <glyph glyph-name="uni0926" unicode="&#x926;" horiz-adv-x="489" 
d="M208 463h134q9 0 9 9v100q0 9 -9 9h-344q-12 0 -12 12v19q0 11 12 11h493q12 0 12 -11v-19q0 -12 -12 -12h-83q-9 0 -9 -9v-128q0 -11 -6.5 -18t-17.5 -7h-163q-47 0 -71.5 -26.5t-24.5 -74.5v-89q0 -48 24.5 -73.5t72.5 -25.5h71q84 0 84 81v33q0 12 11 12h23
q12 0 12 -12v-232q0 -12 -12 -12h-23q-11 0 -11 12v109h-4q-23 -35 -85 -35h-70q-66 0 -103.5 38.5t-37.5 104.5v91q0 67 37.5 105t102.5 38z" />
    <glyph glyph-name="uni0927" unicode="&#x927;" horiz-adv-x="560" 
d="M220 581h-22q-41 0 -59 -21t-18 -64v-35q0 -83 82 -83h62q12 0 12 -11v-22q0 -11 -12 -11h-62q-82 0 -82 -84v-42q0 -47 22.5 -69t69.5 -22h104q51 0 77 28t26 77v350q0 9 -10 9h-79q-12 0 -12 12v19q0 11 12 11h231q12 0 12 -11v-19q0 -12 -12 -12h-84q-10 0 -10 -9
v-560q0 -12 -11 -12h-26q-11 0 -11 12v110h-4q-23 -49 -97 -49h-110q-64 0 -100 34t-36 98v46q0 83 63 103v4q-63 22 -63 101v35q0 64 36 83v4h-111q-12 0 -12 12v19q0 11 12 11h222q12 0 12 -11v-19q0 -12 -12 -12z" />
    <glyph glyph-name="uni0928" unicode="&#x928;" horiz-adv-x="473" 
d="M324 581h-326q-12 0 -12 12v19q0 11 12 11h477q12 0 12 -11v-19q0 -12 -12 -12h-84q-10 0 -10 -9v-560q0 -12 -11 -12h-26q-11 0 -11 12v310q0 10 -10 10h-171q-59 0 -59 -58q0 -21 6.5 -42.5t6.5 -26.5q0 -10 -10 -10h-20q-12 0 -16 11q-15 34 -15 75.5t25 67.5t72 26
h181q10 0 10 9v188q0 9 -9 9z" />
    <glyph glyph-name="uni0928093C" unicode="&#x929;" horiz-adv-x="473" 
d="M200 19v-34q0 -12 -11 -12h-30q-11 0 -11 12v34q0 12 11 12h30q11 0 11 -12zM324 581h-326q-12 0 -12 12v19q0 11 12 11h477q12 0 12 -11v-19q0 -12 -12 -12h-84q-10 0 -10 -9v-560q0 -12 -11 -12h-26q-11 0 -11 12v310q0 10 -10 10h-171q-59 0 -59 -58q0 -21 6.5 -42.5
t6.5 -26.5q0 -10 -10 -10h-20q-12 0 -16 11q-15 34 -15 75.5t25 67.5t72 26h181q10 0 10 9v188q0 9 -9 9z" />
    <glyph glyph-name="uni092A" unicode="&#x92a;" horiz-adv-x="503" 
d="M225 222h41q48 0 73 25.5t25 72.5v252q0 9 -10 9h-214q-10 0 -10 -9v-253q0 -97 95 -97zM-2 623h508q12 0 12 -11v-19q0 -12 -12 -12h-85q-9 0 -9 -9v-560q0 -12 -12 -12h-25q-11 0 -11 12v212h-4q-26 -47 -98 -47h-41q-63 0 -101 37.5t-38 101.5v256q0 7 -8 9h-76
q-12 0 -12 12v19q0 11 12 11z" />
    <glyph glyph-name="uni092B" unicode="&#x92b;" horiz-adv-x="739" 
d="M400 344v-332q0 -12 -12 -12h-24q-12 0 -12 12v218h-4q-24 -46 -98 -46h-29q-63 0 -101 37t-38 101v250q0 7 -8 9h-76q-12 0 -12 12v19q0 11 12 11h743q12 0 12 -11v-19q0 -12 -12 -12h-332q-9 0 -9 -9v-138h4q20 47 97 47h35q65 0 103 -37.5t38 -103.5v-106
q0 -66 -38 -103.5t-103 -37.5h-50q-12 0 -12 12v21q0 11 12 11h46q47 0 72 25.5t25 73.5v102q0 48 -25.5 73.5t-72.5 25.5h-36q-46 0 -70.5 -24t-24.5 -69zM225 228h29q47 0 72.5 24.5t25.5 69.5v250q0 9 -9 9h-203q-10 0 -10 -9v-246q0 -98 95 -98z" />
    <glyph glyph-name="uni092C" unicode="&#x92c;" horiz-adv-x="491" 
d="M-2 623h495q12 0 12 -11v-19q0 -12 -12 -12h-84q-10 0 -10 -9v-560q0 -12 -11 -12h-26q-11 0 -11 12v122h-4q-24 -46 -99 -46h-43q-65 0 -103.5 37.5t-38.5 102.5v117q1 66 39 103.5t103 37.5h59q12 0 12 -12v-20q0 -11 -12 -11h-56q-45 0 -68 -22l210 -214q1 6 1 20v345
q0 9 -10 9h-343q-12 0 -12 12v19q0 11 12 11zM208 130h44q59 0 84 40l-217 221q-8 -21 -8 -47v-115q0 -48 24.5 -73.5t72.5 -25.5z" />
    <glyph glyph-name="uni092D" unicode="&#x92d;" horiz-adv-x="491" 
d="M342 294h-204q-10 0 -10 -9v-99q0 -12 -11 -12h-26q-11 0 -11 12v318q0 77 -74 77h-8q-12 0 -12 12v19q0 11 12 11h8q58 0 90 -30.5t32 -87.5v-158q0 -10 9 -10h205q9 0 9 9v226q0 9 -9 9h-79q-14 0 -14 12v19q0 11 14 11h230q12 0 12 -11v-19q0 -12 -12 -12h-84
q-10 0 -10 -9v-560q0 -12 -11 -12h-25q-12 0 -12 12v273q0 9 -9 9z" />
    <glyph glyph-name="uni092E" unicode="&#x92e;" horiz-adv-x="490" 
d="M350 346v226q0 9 -9 9h-204q-10 0 -10 -9v-225q0 -10 9 -10h204q10 0 10 9zM340 294h-203q-10 0 -10 -9v-99q0 -12 -11 -12h-26q-11 0 -11 12v386q0 9 -10 9h-71q-12 0 -12 12v19q0 11 12 11h494q12 0 12 -11v-19q0 -12 -12 -12h-84q-10 0 -10 -9v-560q0 -12 -11 -12h-26
q-11 0 -11 12v273q0 9 -10 9z" />
    <glyph glyph-name="uni092F" unicode="&#x92f;" horiz-adv-x="564" 
d="M414 581h-185v-4q36 -21 36 -85v-15q0 -126 -129 -126h-20v-91q0 -54 29 -83.5t84 -29.5h80q55 0 85 30t30 82v313q0 9 -10 9zM217 483v12q0 46 -19.5 66t-66.5 20h-133q-12 0 -12 12v19q0 11 12 11h568q12 0 12 -11v-19q0 -12 -12 -12h-84q-10 0 -10 -9v-560
q0 -12 -11 -12h-26q-11 0 -11 12v145h-4q-26 -53 -111 -53h-83q-73 0 -115.5 43.5t-42.5 112.5v123q0 11 12 11h51q46 0 66 19.5t20 69.5z" />
    <glyph glyph-name="uni0930" unicode="&#x930;" horiz-adv-x="337" 
d="M208 416v156q0 9 -9 9h-201q-12 0 -12 12v19q0 11 12 11h341q13 0 13 -11v-19q0 -12 -13 -12h-73q-10 0 -10 -9v-157q0 -65 -33 -98t-90 -33h-41l177 -266q3 -3 3 -8q0 -10 -11 -10h-26q-10 0 -15 10l-167 249l-19 24v32q0 13 13 13h80q81 0 81 88z" />
    <glyph glyph-name="uni0930093C" unicode="&#x931;" horiz-adv-x="347" 
d="M69 12v-33q0 -12 -10 -12h-31q-11 0 -11 12v33q0 12 11 12h31q10 0 10 -12zM217 416v156q0 9 -9 9h-210q-12 0 -12 12v19q0 11 12 11h351q12 0 12 -11v-19q0 -12 -12 -12h-74q-10 0 -10 -9v-157q0 -65 -33 -98t-89 -33h-41l176 -266q3 -3 3 -8q0 -10 -10 -10h-26
q-9 0 -16 10l-166 249l-20 24v32q0 13 14 13h79q81 0 81 88z" />
    <glyph glyph-name="uni0932" unicode="&#x932;" horiz-adv-x="676" 
d="M441 443q68 0 91 -42h4v171q0 9 -9 9h-529q-12 0 -12 12v19q0 11 12 11h680q12 0 12 -11v-19q0 -12 -12 -12h-84q-9 0 -9 -9v-560q0 -12 -12 -12h-25q-12 0 -12 12v289q0 52 -22.5 74.5t-69.5 22.5t-70 -22t-23 -75v-87q0 -12 -11 -12h-24q-12 0 -12 12v89q0 51 -23 73
t-69.5 22t-69.5 -23t-23 -75v-120q0 -52 24.5 -75t73.5 -23h47q13 0 13 -12v-21q0 -11 -13 -11h-51q-67 0 -104.5 35t-37.5 105v124q0 71 37 106t102 35q93 0 115 -67h4q23 67 112 67z" />
    <glyph glyph-name="uni0933" unicode="&#x933;" horiz-adv-x="672" 
d="M-2 623h676q13 0 13 -11v-19q0 -12 -13 -12h-184q-9 0 -9 -9v-122q0 -8 8 -10q112 -19 112 -136v-126q0 -66 -37.5 -102t-103.5 -36h-8q-86 0 -118 60q-32 -60 -118 -60h-8q-66 0 -103.5 36t-37.5 102v126q0 67 37.5 103t103.5 36h8q86 0 118 -61q27 48 92 59q9 1 9 9
v122q0 9 -10 9h-427q-12 0 -12 12v19q0 11 12 11zM310 179v125q0 95 -94 95h-7q-95 0 -95 -95v-125q0 -95 95 -95h7q94 0 94 95zM554 179v125q0 95 -95 95h-7q-94 0 -94 -95v-125q0 -95 94 -95h7q95 0 95 95z" />
    <glyph glyph-name="uni0933093C" unicode="&#x934;" horiz-adv-x="672" 
d="M-2 623h676q13 0 13 -11v-19q0 -12 -13 -12h-184q-9 0 -9 -9v-122q0 -8 8 -10q112 -19 112 -136v-126q0 -66 -37.5 -102t-103.5 -36h-8q-86 0 -118 60q-32 -60 -118 -60h-8q-66 0 -103.5 36t-37.5 102v126q0 67 37.5 103t103.5 36h8q86 0 118 -61q27 48 92 59q9 1 9 9
v122q0 9 -10 9h-427q-12 0 -12 12v19q0 11 12 11zM310 179v125q0 95 -94 95h-7q-95 0 -95 -95v-125q0 -95 95 -95h7q94 0 94 95zM554 179v125q0 95 -95 95h-7q-94 0 -94 -95v-125q0 -95 94 -95h7q95 0 95 95zM191 0h31q11 0 11 -12v-33q0 -12 -11 -12h-31q-11 0 -11 12v33
q0 12 11 12z" />
    <glyph glyph-name="uni0935" unicode="&#x935;" horiz-adv-x="484" 
d="M392 572v-560q0 -12 -11 -12h-25q-11 0 -11 12v126h-4q-24 -46 -99 -46h-37q-65 0 -103.5 37.5t-38.5 102.5v107q1 66 39 103.5t103 37.5h53q13 0 13 -11v-22q0 -11 -13 -11h-49q-47 0 -72 -25.5t-25 -73.5v-103q0 -98 97 -98h37q48 0 73.5 25.5t25.5 70.5v340q0 9 -10 9
h-337q-12 0 -12 12v19q0 11 12 11h488q12 0 12 -11v-19q0 -12 -12 -12h-84q-10 0 -10 -9z" />
    <glyph glyph-name="uni0936" unicode="&#x936;" horiz-adv-x="614" 
d="M474 12v587q0 10 6 17t16 7h120q12 0 12 -11v-19q0 -12 -12 -12h-84q-10 0 -10 -9v-560q0 -12 -11 -12h-26q-11 0 -11 12zM280 9q0 -9 -11 -9h-28q-8 0 -15 10l-162 236l-20 24v32q0 12 14 12h140q89 0 89 95v89q0 44 -19 63.5t-63.5 19.5t-63.5 -19t-19 -64v-51
q0 -12 -11 -12h-25q-12 0 -12 12v51q0 125 130.5 125t130.5 -125v-89q0 -69 -36 -103.5t-100 -34.5h-97l174 -253q4 -6 4 -9z" />
    <glyph glyph-name="uni0937" unicode="&#x937;" horiz-adv-x="505" 
d="M366 572q0 9 -10 9h-228l238 -271v262zM225 218h43q65 0 88 49l-226 259v-211q0 -97 95 -97zM-2 623h510q12 0 12 -11v-19q0 -12 -12 -12h-84q-10 0 -10 -9v-560q0 -12 -11 -12h-26q-11 0 -11 12v207h-4q-25 -45 -98 -45h-43q-63 0 -101 37t-38 101v260q0 7 -8 9h-76
q-12 0 -12 12v19q0 11 12 11z" />
    <glyph glyph-name="uni0938" unicode="&#x938;" horiz-adv-x="575" 
d="M198 324h228q9 0 9 10v238q0 9 -9 9h-182q-9 0 -9 -9v-152q0 -69 -37 -92v-4zM245 22q6 -6 6 -14t-11 -8h-28q-10 0 -15 10l-134 228l-29 43v31q0 12 13 12h60q35 0 57 21.5t22 67.5v159q0 9 -9 9h-179q-12 0 -12 12v19q0 11 12 11h579q13 0 13 -11v-19q0 -12 -13 -12
h-84q-9 0 -9 -9v-560q0 -12 -12 -12h-25q-12 0 -12 12v259q0 9 -9 9h-334z" />
    <glyph glyph-name="uni0939" unicode="&#x939;" horiz-adv-x="481" 
d="M335 581h-337q-12 0 -12 12v19q0 11 12 11h485q12 0 12 -11v-19q0 -12 -12 -12h-81q-10 0 -10 -9v-118q0 -26 -25 -26h-156q-44 0 -64 -18t-20 -60t19.5 -60t63.5 -18h76q123 0 123 -122v-28q0 -11 -12 -11h-24q-11 0 -11 11v23q0 45 -19 65t-62 20h-69q-44 0 -67 -26.5
t-23 -73.5v-29q0 -100 103 -100h160q12 0 12 -11v-20q0 -11 -12 -11h-163q-71 0 -109.5 37.5t-38.5 103.5v31q0 88 65 116v4q-60 22 -60 102q0 118 127 118h128q10 0 10 9v92q0 9 -9 9z" />
    <glyph glyph-name="uni093C" unicode="&#x93c;" horiz-adv-x="0" 
d="M-107 -49v-33q0 -12 -11 -12h-31q-11 0 -11 12v33q0 12 11 12h31q11 0 11 -12z" />
    <glyph glyph-name="uni093D" unicode="&#x93d;" horiz-adv-x="529" 
d="M442 202v-66q0 -136 -133 -136h-51q-36 0 -71 18.5t-52 35.5t-40 44q-7 5 -7 12.5t6 11.5q15 13 19.5 13t13.5 -9q29 -31 42.5 -44t38.5 -25.5t52 -12.5h43q52 0 71 24.5t19 70.5v61q0 37 -27.5 59t-108 63.5t-107 79.5t-26.5 100.5t25.5 91.5t101.5 29h137q12 0 12 -11
v-19q0 -12 -12 -12h-132q-52 0 -68 -18.5t-16 -60.5t25 -73t107 -73.5t110 -72.5t28 -81z" />
    <glyph glyph-name="uni093E" unicode="&#x93e;" 
d="M129 0h-26q-11 0 -11 12v560q0 9 -10 9h-83q-12 0 -12 12v19q0 11 12 11h235q12 0 12 -11v-19q0 -12 -12 -12h-84q-10 0 -10 -9v-560q0 -12 -11 -12z" />
    <glyph glyph-name="uni093F" unicode="&#x93f;" 
d="M233 876h252q141 0 141 -132v-42q0 -12 -11 -12h-26q-11 0 -11 12v41q0 48 -22.5 68.5t-70.5 20.5h-252q-49 0 -71 -20.5t-22 -68.5v-111q0 -9 10 -9h84q12 0 12 -11v-19q0 -12 -12 -12h-84q-10 0 -10 -9v-560q0 -12 -11 -12h-26q-11 0 -11 12v560q0 9 -10 9h-83
q-12 0 -12 12v19q0 11 12 11h83q10 0 10 9v117q0 127 141 127z" />
    <glyph glyph-name="uni0940" unicode="&#x940;" 
d="M150 623h84q12 0 12 -11v-19q0 -12 -12 -12h-84q-10 0 -10 -9v-560q0 -12 -11 -12h-26q-11 0 -11 12v560q0 9 -10 9h-83q-12 0 -12 12v19q0 11 12 11h83q10 0 10 9v111q0 48 -22.5 68.5t-70.5 20.5t-70.5 -20.5t-22.5 -68.5v-41q0 -12 -11 -12h-25q-12 0 -12 12v42
q0 132 141 132t141 -127v-117q0 -9 10 -9z" />
    <glyph glyph-name="uni0941" unicode="&#x941;" horiz-adv-x="0" 
d="M-140 -18v19q0 12 12 12h40q67 0 92.5 -30t25.5 -94.5t-28 -98t-92 -33.5h-62q-48 0 -84.5 23.5t-51.5 46.5t-31 52.5t-17.5 31.5t-3 5.5t-5 9t-3.5 11t6 9.5q22 11 26.5 11t10.5 -10t22 -41.5t24 -43t25 -30.5q28 -32 85 -32h59q50 0 64 28q10 23 10 53t-1.5 42t-8.5 25
q-13 22 -62 22h-40q-12 0 -12 12z" />
    <glyph glyph-name="uni0942" unicode="&#x942;" horiz-adv-x="0" 
d="M-234.5 -209q-25.5 31 -25.5 94.5t27.5 96.5t92.5 33h40q58 0 90 -26q18 -14 31 -26.5t25.5 -36t19 -37.5t18.5 -42.5t16 -37t4 -13.5t-7 -9q-22 -9 -24 -9q-7 0 -13 13.5l-19.5 45l-20 46t-20 35.5t-26.5 30q-32 25 -75 25h-39q-42 0 -58 -21t-16 -65.5t12.5 -64.5
t53.5 -20h41q13 0 13 -12v-18q0 -12 -13 -12h-41q-61 0 -86.5 31z" />
    <glyph glyph-name="uni0943" unicode="&#x943;" horiz-adv-x="0" 
d="M-92 1v-19q0 -12 -12 -12h-47q-44 0 -59 -19t-15 -65t18.5 -66.5t57.5 -20.5h37q38 0 66 22l13 10t14.5 12t15 12.5t9.5 3.5t10 -5q14 -20 14 -23t-9 -12q-67 -63 -131 -63h-41q-120 0 -120 130q0 67 28 97t91 30h48q12 0 12 -12z" />
    <glyph glyph-name="uni0945" unicode="&#x945;" horiz-adv-x="0" 
d="M-78 687h-70q-120 0 -120 122v7q0 14 12 14h22q12 0 12 -14v-6q0 -44 17.5 -62.5t60.5 -18.5h62q43 0 60.5 18.5t17.5 62.5v6q0 14 13 14h20q13 0 13 -14v-6q0 -123 -120 -123z" />
    <glyph glyph-name="uni0946" unicode="&#x946;" horiz-adv-x="0" 
d="M-150 623q10 0 10 13t-12.5 25.5t-56.5 35.5l-64 33q-42 21 -60 47.5t-18 69.5v14q0 11 11 11h25q11 0 11 -11v-12q0 -45 28 -65q9 -7 76 -41t87.5 -55t20.5 -56q0 -9 10 -9h7v-21h-83v21h8z" />
    <glyph glyph-name="uni0947" unicode="&#x947;" horiz-adv-x="0" 
d="M-80 623h5v-23h-39q-41 36 -129 164l-61 90q-3 4 -3 9q0 9 10 9h27q11 0 18 -10l148 -225q9 -14 24 -14z" />
    <glyph glyph-name="uni0948" unicode="&#x948;" horiz-adv-x="0" 
d="M-75 605h-49q-60 64 -126 159l-62 90l-3 9q0 9 11 9h24q13 0 20 -11l137 -214l3 1q-19 40 -19 177v36q0 11 12 11h24q11 0 11 -11v-229q0 -9 8 -9h9v-18z" />
    <glyph glyph-name="uni0949" unicode="&#x949;" 
d="M129 0h-26q-11 0 -11 12v560q0 9 -10 9h-83q-12 0 -12 12v19q0 11 12 11h235q12 0 12 -11v-19q0 -12 -12 -12h-84q-10 0 -10 -9v-560q0 -12 -11 -12zM151 687h-71q-119 0 -119 122v7q0 14 12 14h21q12 0 12 -14v-6q0 -45 17.5 -63t61.5 -18h61q44 0 61.5 18t17.5 63v6
q0 14 12 14h21q12 0 12 -14v-6q0 -123 -119 -123z" />
    <glyph glyph-name="uni094A" unicode="&#x94a;" 
d="M150 623h84q12 0 12 -11v-19q0 -12 -12 -12h-84q-10 0 -10 -9v-560q0 -12 -11 -12h-26q-11 0 -11 12v560q0 9 -10 9h-83q-12 0 -12 12v19q0 11 12 11h83q10 0 10 13t-13 25.5t-57 35.5l-64 33q-42 21 -60 47.5t-18 69.5v14q0 11 11 11h25q12 0 12 -11v-12q0 -24 9 -41
t19 -24q17 -12 79.5 -44t83.5 -52.5t21 -55.5q0 -9 10 -9z" />
    <glyph glyph-name="uni094B" unicode="&#x94b;" 
d="M150 623h84q12 0 12 -11v-19q0 -12 -12 -12h-84q-10 0 -10 -9v-560q0 -12 -11 -12h-26q-11 0 -11 12v560q0 9 -10 9h-83q-12 0 -12 12v19q0 11 12 11h93v4q-58 69 -104 137l-62 90q-3 4 -3 9q0 9 11 9h27q11 0 18 -10l148 -225q9 -14 23 -14z" />
    <glyph glyph-name="uni094C" unicode="&#x94c;" 
d="M147 623h87q12 0 12 -11v-19q0 -12 -12 -12h-84q-10 0 -10 -9v-560q0 -12 -11 -12h-26q-11 0 -11 12v560q0 9 -10 9h-83q-12 0 -12 12v19q0 11 12 11h91v4q-55 60 -108 137l-62 90q-3 4 -3 9q0 9 10 9h24q15 0 20 -11l137 -214l3 1q-18 44 -18 177v36q0 11 11 11h25
q11 0 11 -11v-229q0 -9 7 -9z" />
    <glyph glyph-name="uni094D" unicode="&#x94d;" horiz-adv-x="0" 
d="M-129 -52h22q10 0 18 -11l90 -130q3 -3 3 -8q0 -10 -11 -10h-26q-10 0 -17 10l-86 133q-3 3 -3 7q0 9 10 9z" />
    <glyph glyph-name="uni0950" unicode="&#x950;" horiz-adv-x="847" 
d="M522 453h111q61 0 97 -35.5t36 -105.5v-158q0 -122 -125 -122h-20q-125 0 -125 122v85q0 9 -9 9h-110q1 -7 1 -22v-50q0 -66 -38 -105t-104 -39h-37q-65 0 -104 39t-39 105v37q0 13 12 13h25q11 0 11 -13v-36q0 -49 25.5 -75t72.5 -26h32q46 0 71 26.5t25 75.5v39
q0 101 -96 101h-60q-12 0 -12 11v21q0 12 12 12h60q96 0 96 96v24q0 97 -96 97h-90q-12 0 -12 11v22q0 11 12 11h94q66 0 103 -36.5t37 -103.5v-28q0 -88 -67 -112v-4q37 -15 53 -48h132q47 0 47 -45v-89q0 -44 19 -62.5t63 -18.5h12q44 0 63 18.5t19 62.5v153q0 99 -92 99
h-105q-12 0 -12 11v22q0 11 12 11zM633 579h-110q-13 0 -13 11v21q0 12 13 12h107q54 0 93 41q9 9 15 9t15.5 -9.5t9.5 -14t-7 -13.5q-49 -57 -123 -57zM552 741h-31q-11 0 -11 12v35q0 12 11 12h31q11 0 11 -12v-35q0 -12 -11 -12z" />
    <glyph glyph-name="uni0951" unicode="&#x951;" horiz-adv-x="0" 
d="M-140 686v162q0 12 11 12h26q11 0 11 -12v-162q0 -12 -11 -12h-26q-11 0 -11 12z" />
    <glyph glyph-name="uni0952" unicode="&#x952;" horiz-adv-x="0" 
d="M-90 -91q0 -10 -11 -10h-303q-12 0 -12 10v17q0 11 12 11h303q11 0 11 -11v-17z" />
    <glyph glyph-name="uni0953" unicode="&#x953;" horiz-adv-x="0" 
d="M-253 842l-3 8q0 10 11 10h25q11 0 18 -11l103 -157q3 -4 3 -8q0 -10 -10 -10h-25q-10 0 -17 11z" />
    <glyph glyph-name="uni0954" unicode="&#x954;" horiz-adv-x="0" 
d="M-140 684l3 8l104 157q7 11 18 11h25q10 0 10 -10q0 -4 -3 -8l-104 -157q-7 -11 -18 -11h-24q-11 0 -11 10z" />
    <glyph glyph-name="uni0915093C" unicode="&#x958;" horiz-adv-x="725" 
d="M386 572v-138h4q22 47 98 47h34q66 0 104 -37.5t38 -103.5v-106q0 -66 -38 -103.5t-104 -37.5h-49q-12 0 -12 12v21q0 11 12 11h46q47 0 72 25.5t25 73.5v102q0 48 -25.5 73.5t-72.5 25.5h-36q-46 0 -71 -24t-25 -69v-332q0 -12 -11 -12h-25q-11 0 -11 12v128h-4
q-25 -47 -97 -47h-35q-66 0 -104 37.5t-38 103.5v106q1 66 39 103.5t103 37.5h50q12 0 12 -11v-22q0 -11 -12 -11h-46q-47 0 -72.5 -25.5t-25.5 -73.5v-102q0 -48 25.5 -73.5t73.5 -25.5h35q46 0 71 24.5t25 68.5v342q0 9 -10 9h-331q-12 0 -12 12v19q0 11 12 11h730
q12 0 12 -11v-19q0 -12 -12 -12h-332q-10 0 -10 -9zM197 -2v-33q0 -12 -11 -12h-31q-11 0 -11 12v33q0 12 11 12h31q11 0 11 -12z" />
    <glyph glyph-name="uni0916093C" unicode="&#x959;" horiz-adv-x="696" 
d="M557 186h-4q-28 -46 -95 -47h-7q-63 0 -97.5 37t-34.5 101v43q0 64 35.5 100.5t99.5 36.5h18q12 0 12 -12v-21q0 -11 -12 -11h-16q-89 0 -89 -97v-36q0 -98 90 -98h5q95 0 95 99v291q0 9 -10 9h-282q-9 0 -9 -9v-157q0 -66 -33 -98.5t-90 -32.5h-41l178 -263q5 -7 5 -11
q0 -10 -11 -10h-27q-9 0 -16 11l-168 248l-19 24v32q0 13 13 13h80q81 0 81 88v156q0 9 -9 9h-201q-12 0 -12 12v19q0 11 12 11h700q12 0 12 -11v-19q0 -12 -12 -12h-84q-10 0 -10 -9v-560q0 -12 -11 -12h-25q-11 0 -11 12v174zM99 1v-33q0 -12 -11 -12h-31q-11 0 -11 12v33
q0 12 11 12h31q11 0 11 -12z" />
    <glyph glyph-name="uni0917093C" unicode="&#x95a;" horiz-adv-x="494" 
d="M-2 623h498q12 0 12 -11v-19q0 -12 -12 -12h-84q-10 0 -10 -9v-560q0 -12 -11 -12h-26q-11 0 -11 12v560q0 9 -9 9h-154q-9 0 -9 -9v-214q0 -71 -35.5 -105t-98.5 -34h-17q-12 0 -12 11v22q0 12 12 12h14q88 0 88 95v213q0 9 -9 9h-126q-12 0 -12 12v19q0 11 12 11z
M151 7v-33q0 -12 -11 -12h-31q-11 0 -11 12v33q0 12 11 12h31q11 0 11 -12z" />
    <glyph glyph-name="uni091C093C" unicode="&#x95b;" horiz-adv-x="547" 
d="M237 375v-4q41 -22 41 -89v-76q0 -68 -34.5 -102t-94.5 -34h-107q-12 0 -12 11v21q0 12 12 12h100q88 0 88 95v72q0 94 -89 94h-58q-12 0 -12 11v23q0 11 12 11h314q10 0 10 9v143q0 9 -9 9h-400q-12 0 -12 12v19q0 11 12 11h551q12 0 12 -11v-19q0 -12 -12 -12h-84
q-10 0 -10 -9v-560q0 -12 -11 -12h-26q-11 0 -11 12v354q0 9 -10 9h-160zM138 -9v-33q0 -12 -11 -12h-31q-11 0 -11 12v33q0 12 11 12h31q11 0 11 -12z" />
    <glyph glyph-name="uni0921093C" unicode="&#x95c;" horiz-adv-x="475" 
d="M-2 623h479q13 0 13 -11v-19q0 -12 -13 -12h-84q-10 0 -10 -9v-127q0 -12 -7 -19t-18 -7h-155q-44 0 -62 -15t-18 -53v-17q0 -38 18 -53t62 -15h82q128 0 128 -107v-48q0 -55 -34 -83t-93 -28h-91q-125 0 -125 122v8q0 14 12 14h24q11 0 11 -14v-8q0 -45 19.5 -62
t61.5 -17h84q82 0 82 71v41q0 38 -19.5 53.5t-63.5 15.5h-80q-126 0 -126 108v22q0 109 126 109h125q10 0 10 9v100q0 9 -9 9h-329q-12 0 -12 12v19q0 11 12 11zM269 -83v-33q0 -12 -11 -12h-31q-11 0 -11 12v33q0 12 11 12h31q11 0 11 -12z" />
    <glyph glyph-name="uni0922093C" unicode="&#x95d;" horiz-adv-x="485" 
d="M307 39h-97q-66 0 -103.5 38.5t-37.5 104.5v120q0 67 37.5 105t102.5 38h119q9 0 9 9v118q0 9 -9 9h-330q-12 0 -12 12v19q0 11 12 11h489q13 0 13 -11v-19q0 -12 -13 -12h-92q-10 0 -10 -9v-146q0 -24 -23 -24h-150q-47 0 -71.5 -26.5t-24.5 -74.5v-120
q0 -48 24.5 -73.5t72.5 -25.5h94q45 0 65 21.5t20 67.5v15q0 39 -11 55t-44 16t-44 -15.5t-11 -54.5v-15q0 -12 -11 -12h-19q-14 0 -14 13v15q0 56 22.5 83t76 27t77 -27.5t23.5 -85.5v-16q0 -130 -130 -130zM277 -53v-33q0 -12 -11 -12h-31q-11 0 -11 12v33q0 12 11 12h31
q11 0 11 -12z" />
    <glyph glyph-name="uni092B093C" unicode="&#x95e;" horiz-adv-x="739" 
d="M225 228h29q47 0 72.5 24.5t25.5 69.5v250q0 9 -9 9h-203q-10 0 -10 -9v-246q0 -98 95 -98zM400 344v-332q0 -12 -12 -12h-24q-12 0 -12 12v218h-4q-24 -46 -98 -46h-29q-63 0 -101 37t-38 101v250q0 7 -8 9h-76q-12 0 -12 12v19q0 11 12 11h743q12 0 12 -11v-19
q0 -12 -12 -12h-332q-9 0 -9 -9v-138h4q20 47 97 47h35q65 0 103 -37.5t38 -103.5v-106q0 -66 -38 -103.5t-103 -37.5h-50q-12 0 -12 12v21q0 11 12 11h46q47 0 72 25.5t25 73.5v102q0 48 -25.5 73.5t-72.5 25.5h-36q-46 0 -70.5 -24t-24.5 -69zM189 6v-33q0 -12 -11 -12
h-31q-11 0 -11 12v33q0 12 11 12h31q11 0 11 -12z" />
    <glyph glyph-name="uni092F093C" unicode="&#x95f;" horiz-adv-x="564" 
d="M217 483v12q0 46 -19.5 66t-66.5 20h-133q-12 0 -12 12v19q0 11 12 11h568q12 0 12 -11v-19q0 -12 -12 -12h-84q-10 0 -10 -9v-560q0 -12 -11 -12h-26q-11 0 -11 12v145h-4q-26 -53 -111 -53h-83q-73 0 -115.5 43.5t-42.5 112.5v123q0 11 12 11h51q46 0 66 19.5t20 69.5z
M414 581h-185v-4q36 -21 36 -85v-15q0 -126 -129 -126h-20v-91q0 -54 29 -83.5t84 -29.5h80q55 0 85 30t30 82v313q0 9 -10 9zM157 -1v-33q0 -12 -11 -12h-31q-11 0 -11 12v33q0 12 11 12h31q11 0 11 -12z" />
    <glyph glyph-name="uni0960" unicode="&#x960;" horiz-adv-x="753" 
d="M-2 623h757q12 0 12 -11v-19q0 -12 -12 -12h-344q-10 0 -10 -9v-297l182 141q18 14 35 14h48q11 0 11 -12v-161q0 -16 -19 -16h-30q-44 0 -62.5 -14t-18.5 -51v-5q0 -37 18.5 -51t63.5 -14h48q14 0 14 -12v-19q0 -12 -15 -12h-48q-44 0 -62.5 -14t-18.5 -51v-9
q0 -37 18.5 -51t63.5 -14h60q14 0 14 -12v-18q0 -12 -14 -12h-63q-64 0 -95.5 24t-31.5 79v15q0 60 47 83q-47 22 -47 84v11q0 52 29.5 76.5t92.5 26.5q10 0 10 9v106l-230 -178v-206q0 -12 -11 -12h-26q-11 0 -11 12v166l-216 -167q-11 -11 -24 -11h-30q-10 0 -10 8.5
t16 20.5l183 142l80 60v67q0 89 -98 89h-45q-97 0 -97 -88v-57q0 -13 -11 -13h-26q-11 0 -11 13v59q0 64 37.5 97t104.5 33h43q72 0 100 -41h4v182q0 9 -10 9h-345q-12 0 -12 12v19q0 11 12 11z" />
    <glyph glyph-name="uni0961" unicode="&#x961;" horiz-adv-x="676" 
d="M-2 623h680q12 0 12 -11v-19q0 -12 -12 -12h-84q-9 0 -9 -9v-420q0 -16 -19 -16h-30q-45 0 -63.5 -14t-18.5 -51v-6q0 -36 19 -50t64 -14h48q13 0 13 -13v-18q0 -12 -14 -12h-48q-45 0 -63.5 -14t-18.5 -51v-10q0 -36 19 -50t64 -14h60q13 0 13 -13v-18q0 -12 -14 -12
h-62q-64 0 -95.5 24.5t-31.5 79.5v15q0 59 46 82q-46 21 -46 85v11q0 53 28.5 77.5t91.5 25.5q9 0 9 9v116q0 52 -22.5 74.5t-69.5 22.5t-70 -22t-23 -75v-87q0 -12 -11 -12h-24q-12 0 -12 12v89q0 51 -23 73t-69.5 22t-69.5 -23t-23 -75v-120q0 -52 24.5 -75t73.5 -23h47
q13 0 13 -12v-21q0 -11 -13 -11h-51q-67 0 -104.5 35t-37.5 105v124q0 71 37 106t102 35q93 0 115 -67h4q23 67 112 67q68 0 91 -42h4v171q0 9 -9 9h-529q-12 0 -12 12v19q0 11 12 11z" />
    <glyph glyph-name="uni0964" unicode="&#x964;" horiz-adv-x="286" 
d="M143 12v599q0 12 11 12h26q11 0 11 -12v-599q0 -12 -11 -12h-26q-11 0 -11 12z" />
    <glyph glyph-name="uni0965" unicode="&#x965;" horiz-adv-x="518" 
d="M374 12v599q0 12 12 12h25q12 0 12 -12v-599q0 -12 -12 -12h-25q-12 0 -12 12zM143 12v599q0 12 11 12h26q11 0 11 -12v-599q0 -12 -11 -12h-26q-11 0 -11 12z" />
    <glyph glyph-name="uni0966" unicode="&#x966;" horiz-adv-x="519" 
d="M118 143q0 -48 24.5 -73.5t70.5 -25.5h92q95 0 95 99v357q0 99 -95 99h-92q-46 0 -70.5 -25.5t-24.5 -73.5v-357zM449 141q0 -65 -37.5 -103t-102.5 -38h-100q-64 0 -102 38t-38 103v361q0 65 38 103t102 38h100q65 0 102.5 -38t37.5 -103v-361z" />
    <glyph glyph-name="uni0967" unicode="&#x967;" horiz-adv-x="288" 
d="M14 524v20q0 14 12 21l126 71q11 7 21 7h25q11 0 11 -11v-621q0 -11 -11 -11h-28q-10 0 -10 11v579l-129 -73q-17 -11 -17 7z" />
    <glyph glyph-name="uni0968" unicode="&#x968;" horiz-adv-x="453" 
d="M54 11v87q0 71 61 116l197 150q51 39 51 100v39q0 97 -96 97h-73q-95 0 -95 -97v-45q0 -11 -10 -11h-28q-11 0 -11 11v46q0 65 38 102t102 37h81q65 0 102.5 -36.5t37.5 -102.5v-42q0 -78 -63 -126l-199 -153q-43 -33 -43 -79v-60h297q12 0 12 -10v-23q0 -11 -12 -11
h-337q-12 0 -12 11z" />
    <glyph glyph-name="uni0969" unicode="&#x969;" horiz-adv-x="489" 
d="M215 345h60q96 0 96 96v62q0 97 -96 97h-77q-96 0 -96 -97v-35q0 -12 -10 -12h-28q-10 0 -10 12v36q0 65 37.5 102t101.5 37h86q65 0 102.5 -36.5t37.5 -102.5v-63q0 -93 -83 -117q83 -22 83 -117v-68q0 -66 -37.5 -102.5t-102.5 -36.5h-86q-64 0 -101.5 37t-37.5 102v45
q0 12 10 12h28q10 0 10 -12v-44q0 -97 96 -97h77q96 0 96 97v66q0 96 -96 96h-60q-11 0 -11 11v21q0 11 11 11z" />
    <glyph glyph-name="uni096A" unicode="&#x96a;" horiz-adv-x="453" 
d="M322 175v429l-254 -429h254zM359 0h-27q-10 0 -10 11v120h-291q-14 0 -14 14v17q0 11 6 23l263 443q9 15 24 15h45q14 0 14 -14v-454h75q11 0 11 -10v-23q0 -11 -11 -11h-75v-120q0 -11 -10 -11z" />
    <glyph glyph-name="uni096B" unicode="&#x96b;" horiz-adv-x="480" 
d="M379 263q0 99 -96 99h-87q-25 0 -40.5 -8t-21.5 -18q-14 -25 -24 -25h-30q-11 0 -11 12v308q0 12 11 12h325q11 0 11 -11v-24q0 -11 -11 -11h-287v-242q20 50 86 50h85q65 0 102 -36.5t37 -101.5v-126q0 -65 -38 -103t-103 -38h-79q-65 0 -102.5 38t-37.5 103v36
q0 12 10 12h28q11 0 11 -12v-35q0 -47 24 -73t71 -26h71q47 0 71.5 26t24.5 73v121z" />
    <glyph glyph-name="uni096C" unicode="&#x96c;" horiz-adv-x="495" 
d="M118 143q0 -48 24.5 -73.5t70.5 -25.5h85q47 0 71.5 25.5t24.5 73.5v102q0 47 -24.5 73t-71.5 26h-83q-47 0 -72 -25.5t-25 -70.5v-105zM443 141q0 -65 -38 -103t-102 -38h-94q-64 0 -102 38t-38 103v361q0 65 38 103t102 38h191q12 0 12 -11v-23q0 -10 -12 -10h-187
q-46 0 -70.5 -25.5t-24.5 -73.5v-174q21 62 101 62h84q65 0 102.5 -38t37.5 -103v-106z" />
    <glyph glyph-name="uni096D" unicode="&#x96d;" horiz-adv-x="380" 
d="M122 0h-28q-14 0 -7 15l220 582h-279q-11 0 -11 11v24q0 11 11 11h322q11 0 11 -11v-24q0 -9 -5 -22l-216 -575q-4 -11 -18 -11z" />
    <glyph glyph-name="uni096E" unicode="&#x96e;" horiz-adv-x="523" 
d="M453 504v-60q0 -92 -72 -120q72 -30 72 -120v-65q0 -65 -37.5 -102t-101.5 -37h-105q-64 0 -102 37t-38 102v65q0 90 73 120q-73 29 -73 120v60q0 65 38 102t102 37h105q64 0 101.5 -37t37.5 -102zM405 141v64q0 98 -96 98h-96q-46 0 -70.5 -25.5t-24.5 -72.5v-64
q0 -97 95 -97h96q96 0 96 97zM405 443v59q0 97 -96 97h-96q-95 0 -95 -97v-59q0 -47 24.5 -72.5t70.5 -25.5h96q96 0 96 98z" />
    <glyph glyph-name="uni096F" unicode="&#x96f;" horiz-adv-x="493" 
d="M190 643h94q64 0 101.5 -38t37.5 -103v-361q0 -65 -37.5 -103t-101.5 -38h-192q-11 0 -11 11v23q0 10 11 10h187q47 0 71.5 25.5t24.5 73.5v115h-185q-64 0 -102 38t-38 103v103q0 65 38 103t102 38zM194 302h181v198q0 48 -24.5 73.5t-71.5 25.5h-85q-46 0 -70.5 -25.5
t-24.5 -73.5v-99q0 -48 24.5 -73.5t70.5 -25.5z" />
    <glyph glyph-name="uni0970" unicode="&#x970;" horiz-adv-x="391" 
d="M88 287q0 -99 95 -99h24q95 0 95 99v42q0 99 -95 99h-24q-95 0 -95 -99v-42zM350 285q0 -64 -37.5 -101.5t-101.5 -37.5h-33q-64 0 -101 37.5t-37 101.5v46q0 64 37 101.5t101 37.5h33q64 0 101.5 -37.5t37.5 -101.5v-46z" />
    <glyph glyph-name="uni0972" unicode="&#x972;" horiz-adv-x="598" 
d="M604 830h20q13 0 13 -14v-6q0 -123 -120 -123h-70q-120 0 -120 122v7q0 14 12 14h22q12 0 12 -14v-6q0 -44 17.5 -62.5t60.5 -18.5h62q43 0 60.5 18.5t17.5 62.5v6q0 14 13 14zM480 623h120q12 0 12 -11v-19q0 -12 -12 -12h-84q-10 0 -10 -9v-560q0 -12 -11 -12h-26
q-11 0 -11 12v227q0 9 -10 9h-134q2 -16 2 -24v-42q0 -66 -38 -104.5t-104 -38.5h-126q-12 0 -12 11v22q0 11 12 11h124q47 0 71.5 25.5t24.5 73.5v38q0 96 -96 96h-63q-12 0 -12 12v21q0 11 12 11h63q96 0 96 97v25q0 48 -24.5 73.5t-71.5 25.5h-89q-12 0 -12 12v19
q0 11 12 11h92q67 0 104 -37t37 -104v-27q0 -88 -67 -114v-4q35 -13 52 -46h147q10 0 10 9v299q0 10 6 17t16 7z" />
    <glyph glyph-name="Wgrave" unicode="&#x1e80;" horiz-adv-x="795" 
d="M405 707h-20q-9 0 -17 9l-89 109q-4 5 -2 8t7 3h44q14 0 18 -11l64 -106q6 -12 -5 -12zM233 0h-50q-11 0 -14 12l-137 619q-3 12 10 12h33q11 0 13 -12l119 -574h5l152 575q2 11 13 11h38q12 0 14 -11l153 -575h5l118 574q2 12 14 12h34q12 0 9 -12l-137 -619
q-2 -12 -13 -12h-51q-11 0 -14 12l-148 564h-4l-149 -564q-3 -12 -13 -12z" />
    <glyph glyph-name="wgrave" unicode="&#x1e81;" horiz-adv-x="682" 
d="M350 574h-20q-10 0 -17 9l-89 109q-4 4 -2 7.5t7 3.5h45q12 0 18 -11l63 -106q6 -12 -5 -12zM214 0h-40q-10 0 -13 12l-140 486q-3 12 8 12h32q11 0 13 -12l118 -435h5l116 435q2 12 14 12h29q12 0 14 -12l114 -435h5l119 435q3 12 13 12h32q12 0 8 -12l-139 -486
q-3 -12 -14 -12h-40q-11 0 -14 12l-111 422h-5l-110 -422q-3 -12 -14 -12z" />
    <glyph glyph-name="Wacute" unicode="&#x1e82;" horiz-adv-x="795" 
d="M466 836h45q12 0 5 -11l-90 -109q-6 -9 -16 -9h-21q-10 0 -4 12l63 106q6 11 18 11zM233 0h-50q-11 0 -14 12l-137 619q-3 12 10 12h33q11 0 13 -12l119 -574h5l152 575q2 11 13 11h38q12 0 14 -11l153 -575h5l118 574q2 12 14 12h34q12 0 9 -12l-137 -619
q-2 -12 -13 -12h-51q-11 0 -14 12l-148 564h-4l-149 -564q-3 -12 -13 -12z" />
    <glyph glyph-name="wacute" unicode="&#x1e83;" horiz-adv-x="682" 
d="M409 703h45q5 0 6.5 -3.5t-1.5 -7.5l-90 -109q-7 -9 -17 -9h-20q-10 0 -4 12l63 106q5 11 18 11zM214 0h-40q-10 0 -13 12l-140 486q-3 12 8 12h32q11 0 13 -12l118 -435h5l116 435q2 12 14 12h29q12 0 14 -12l114 -435h5l119 435q3 12 13 12h32q12 0 8 -12l-139 -486
q-3 -12 -14 -12h-40q-11 0 -14 12l-111 422h-5l-110 -422q-3 -12 -14 -12z" />
    <glyph glyph-name="Wdieresis" unicode="&#x1e84;" horiz-adv-x="795" 
d="M291 719v106q0 11 10 11h28q11 0 11 -11v-106q0 -12 -11 -12h-28q-10 0 -10 12zM454 719v106q0 11 11 11h27q11 0 11 -11v-106q0 -12 -11 -12h-27q-11 0 -11 12zM233 0h-50q-11 0 -14 12l-137 619q-3 12 10 12h33q11 0 13 -12l119 -574h5l152 575q2 11 13 11h38
q12 0 14 -11l153 -575h5l118 574q2 12 14 12h34q12 0 9 -12l-137 -619q-2 -12 -13 -12h-51q-11 0 -14 12l-148 564h-4l-149 -564q-3 -12 -13 -12z" />
    <glyph glyph-name="wdieresis" unicode="&#x1e85;" horiz-adv-x="682" 
d="M235 586v106q0 11 10 11h28q11 0 11 -11v-106q0 -12 -11 -12h-28q-10 0 -10 12zM398 586v106q0 11 11 11h27q11 0 11 -11v-106q0 -12 -11 -12h-27q-11 0 -11 12zM214 0h-40q-10 0 -13 12l-140 486q-3 12 8 12h32q11 0 13 -12l118 -435h5l116 435q2 12 14 12h29
q12 0 14 -12l114 -435h5l119 435q3 12 13 12h32q12 0 8 -12l-139 -486q-3 -12 -14 -12h-40q-11 0 -14 12l-111 422h-5l-110 -422q-3 -12 -14 -12z" />
    <glyph glyph-name="uni1E9E" unicode="&#x1e9e;" horiz-adv-x="542" 
d="M120 0h-29q-10 0 -10 12v489q0 66 37.5 104t102.5 38h233q12 0 12 -11v-27q0 -9 -3 -14l-114 -224v-4h17q58 -1 88.5 -35.5t30.5 -96.5v-90q0 -65 -37.5 -103t-102.5 -38h-90q-11 0 -11 11v23q0 10 11 10h86q46 0 70.5 25.5t24.5 73.5v79q0 99 -87 99h-41q-12 0 -12 11
v22q0 11 5 21l112 223h-188q-46 0 -70 -26t-24 -73v-487q0 -12 -11 -12z" />
    <glyph glyph-name="Ygrave" unicode="&#x1ef2;" horiz-adv-x="493" 
d="M263 707h-21q-10 0 -16 9l-90 109q-7 11 5 11h45q12 0 18 -11l63 -106q6 -12 -4 -12zM261 0h-29q-11 0 -11 12v231l-194 388q-6 12 7 12h36q9 0 14 -12l160 -327h5l159 327q5 12 14 12h37q11 0 7 -12l-195 -388v-231q0 -12 -10 -12z" />
    <glyph glyph-name="ygrave" unicode="&#x1ef3;" horiz-adv-x="459" 
d="M260 574h-20q-10 0 -16 9l-90 109q-4 4 -2 7.5t7 3.5h45q12 0 18 -11l63 -106q6 -12 -5 -12zM99 -152h-37q-11 0 -11 11v24q0 11 11 11h27q30 0 51 8.5t37 31.5t21 36q14 31 23 57h-19q-11 0 -14 12l-159 459q-4 12 8 12h31q10 0 13 -12l147 -429h4l147 429q3 12 13 12
h30q12 0 9 -12q-179 -524 -186.5 -542t-27.5 -49q-38 -59 -118 -59z" />
    <glyph glyph-name="uni200B" unicode="&#x200b;" horiz-adv-x="0" 
 />
    <glyph glyph-name="uni200C" unicode="&#x200c;" horiz-adv-x="0" 
d="M24 -230h-47v1041h47v-1041z" />
    <glyph glyph-name="uni200D" unicode="&#x200d;" horiz-adv-x="0" 
d="M24 -230h-47v865l-69 -73l-33 33l93 93l-95 95l33 33l95 -95l96 95l32 -32l-96 -96l96 -95l-33 -33l-72 75v-865z" />
    <glyph glyph-name="endash" unicode="&#x2013;" horiz-adv-x="408" 
d="M357 301h-305q-12 0 -12 11v19q0 11 12 11h305q11 0 11 -11v-19q0 -11 -11 -11z" />
    <glyph glyph-name="emdash" unicode="&#x2014;" horiz-adv-x="537" 
d="M40 312v19q0 11 12 11h434q11 0 11 -11v-19q0 -11 -11 -11h-434q-12 0 -12 11z" />
    <glyph glyph-name="quoteleft" unicode="&#x2018;" horiz-adv-x="179" 
d="M63 416v69q0 14 11 60l26 91q1 7 8.5 7t7.5 -9v-218q0 -11 -11 -11h-31q-11 0 -11 11z" />
    <glyph glyph-name="quoteright" unicode="&#x2019;" horiz-adv-x="179" 
d="M116 632v-69q0 -16 -11 -60l-26 -91q-1 -7 -8.5 -7t-7.5 9v218q0 11 11 11h31q11 0 11 -11z" />
    <glyph glyph-name="quotesinglbase" unicode="&#x201a;" horiz-adv-x="187" 
d="M120 122v-68q0 -17 -11 -61l-26 -91q-2 -7 -9 -7t-7 9v218q0 11 11 11h31q11 0 11 -11z" />
    <glyph glyph-name="quotedblleft" unicode="&#x201c;" horiz-adv-x="329" 
d="M213 416v69q0 14 11 60l26 91q1 7 8.5 7t7.5 -9v-218q0 -11 -11 -11h-31q-11 0 -11 11zM63 416v69q0 14 11 60l26 91q1 7 8.5 7t7.5 -9v-218q0 -11 -11 -11h-31q-11 0 -11 11z" />
    <glyph glyph-name="quotedblright" unicode="&#x201d;" horiz-adv-x="329" 
d="M116 632v-69q0 -16 -11 -60l-26 -91q-1 -7 -8.5 -7t-7.5 9v218q0 11 11 11h31q11 0 11 -11zM266 632v-69q0 -16 -11 -60l-26 -91q-1 -7 -8.5 -7t-7.5 9v218q0 11 11 11h31q11 0 11 -11z" />
    <glyph glyph-name="quotedblbase" unicode="&#x201e;" horiz-adv-x="337" 
d="M120 122v-69q0 -16 -11 -60l-26 -91q-1 -7 -8.5 -7t-7.5 9v218q0 11 11 11h31q11 0 11 -11zM270 122v-69q0 -20 -36 -151q-3 -7 -10 -7t-7 9v218q0 11 11 11h32q10 0 10 -11z" />
    <glyph glyph-name="dagger" unicode="&#x2020;" horiz-adv-x="427" 
d="M217 0h-8q-11 0 -11 12q-2 9 -6 142.5t-4 187.5t6 89l-138 -6q-11 0 -11 11v26q0 11 11 10l139 -7l-7 166q-1 12 11 12h28q11 0 11 -12l-7 -166l140 7q11 1 11 -10v-26q0 -11 -11 -11l-140 6q7 -37 7 -90.5t-4 -186.5t-6 -142q0 -12 -11 -12z" />
    <glyph glyph-name="daggerdbl" unicode="&#x2021;" horiz-adv-x="427" 
d="M45 436v26q0 11 11 10l139 -7l-7 166q-1 12 11 12h28q11 0 11 -12l-7 -166l140 7q11 1 11 -10v-26q0 -11 -11 -11l-140 6q7 -38 7 -109.5t-7 -111.5l140 7q6 1 8.5 -2t2.5 -9v-26q0 -10 -11 -10l-140 7l7 -165q0 -12 -11 -12h-28q-12 0 -11 12l7 165l-139 -7
q-11 0 -11 10v26q0 6 2.5 9t8.5 2l138 -6q-6 46 -6 109t6 111l-138 -6q-11 0 -11 11z" />
    <glyph glyph-name="bullet" unicode="&#x2022;" horiz-adv-x="273" 
d="M181 380v-122q0 -22 -21 -22h-47q-22 0 -22 22v122q0 22 22 22h47q21 0 21 -22z" />
    <glyph glyph-name="ellipsis" unicode="&#x2026;" horiz-adv-x="591" 
d="M123 131v-119q0 -12 -10 -12h-35q-11 0 -11 12v119q0 11 11 11h35q10 0 10 -11zM324 131v-119q0 -12 -10 -12h-35q-11 0 -11 12v119q0 11 11 11h35q10 0 10 -11zM524 131v-119q0 -12 -10 -12h-36q-10 0 -10 12v119q0 11 10 11h36q10 0 10 -11z" />
    <glyph glyph-name="perthousand" unicode="&#x2030;" horiz-adv-x="1027" 
d="M165 647h25q114 0 114 -117v-60q0 -119 -114 -119h-25q-115 0 -115 119v60q0 117 115 117zM230 0h-19q-12 0 -6 16t132.5 306.5t133.5 307.5q7 13 17 13h18q14 0 7 -15l-267 -615q-6 -13 -16 -13zM186 610h-18q-43 0 -59.5 -18.5t-16.5 -63.5v-57q0 -45 16.5 -64
t59.5 -19h18q43 0 59.5 19t16.5 64v57q0 45 -16.5 63.5t-59.5 18.5zM528 296h25q59 0 86.5 -29t27.5 -89v-60q0 -118 -114 -118h-25q-115 0 -115 118v60q0 118 115 118zM550 259h-18q-44 0 -60.5 -18.5t-16.5 -64.5v-56q0 -45 17 -64t60 -19h18q43 0 59.5 19t16.5 64v56
q0 46 -16.5 64.5t-59.5 18.5zM876 259h-18q-43 0 -59.5 -18.5t-16.5 -64.5v-56q0 -45 16.5 -64t59.5 -19h18q43 0 59.5 19t16.5 64v56q0 46 -16.5 64.5t-59.5 18.5zM854 296h26q58 0 85.5 -29t27.5 -89v-60q0 -118 -113 -118h-26q-114 0 -114 118v60q0 118 114 118z" />
    <glyph glyph-name="guilsinglleft" unicode="&#x2039;" horiz-adv-x="290" 
d="M226 122v-26q0 -7 -4 -9.5t-10 3.5l-136 133q-11 11 -11 23v19q0 12 11 23l136 133q6 6 10 3.5t4 -9.5v-26q0 -8 -9 -17l-117 -117l117 -117q9 -8 9 -16z" />
    <glyph glyph-name="guilsinglright" unicode="&#x203a;" horiz-adv-x="290" 
d="M65 389v26q0 7 3.5 9.5t9.5 -3.5l136 -133q12 -12 12 -23v-19q0 -11 -12 -23l-136 -133q-6 -6 -9.5 -3.5t-3.5 9.5v26q0 9 8 16l118 117l-118 117q-8 8 -8 17z" />
    <glyph glyph-name="fraction" unicode="&#x2044;" horiz-adv-x="117" 
d="M-167 0h-21q-14 0 -4 14l454 616q10 13 20 13h22q7 0 8 -5t-4 -10l-453 -615q-9 -13 -22 -13z" />
    <glyph glyph-name="Euro" unicode="&#x20ac;" horiz-adv-x="523" 
d="M314 0h-65q-64 0 -102 37t-38 102v100h-61q-12 0 -12 12v17q0 11 12 11h61v82h-61q-12 0 -12 11v18q0 11 12 11h61v103q0 65 38 102t102 37h65q65 0 103 -37t38 -102v-27q0 -12 -11 -12h-29q-10 0 -10 12v26q0 96 -95 96h-56q-95 0 -95 -96v-102h158q12 0 12 -11v-18
q0 -11 -12 -11h-158v-82h158q12 0 12 -11v-17q0 -12 -12 -12h-158v-99q0 -96 95 -96h56q95 0 95 96v26q0 12 10 12h29q11 0 11 -12v-27q0 -65 -38 -102t-103 -37z" />
    <glyph glyph-name="uni20B9" unicode="&#x20b9;" horiz-adv-x="414" 
d="M236 581v-4q36 -19 36 -74v-25h98q12 0 12 -11v-20q0 -11 -12 -11h-98v-22q0 -69 -36.5 -103.5t-98.5 -34.5h-41l189 -257q3 -6 3 -9q0 -10 -11 -10h-26q-9 0 -16 10l-177 242l-20 24v32q0 12 13 12h83q89 0 89 94v22h-173q-12 0 -12 11v20q0 11 12 11h173v26
q0 35 -18 56t-55 21h-100q-12 0 -12 12v19q0 11 12 11h320q12 0 12 -11v-19q0 -12 -12 -12h-134z" />
    <glyph glyph-name="trademark" unicode="&#x2122;" horiz-adv-x="591" 
d="M495 643h22q10 0 10 -8v-228q0 -9 -9 -9h-15q-9 0 -9 9v182h-3l-61 -123q-4 -9 -9 -9h-16q-7 0 -11 9l-61 123h-4v-182q0 -9 -9 -9h-15q-8 0 -8 9v228q0 8 9 8h22q6 0 10 -6l72 -141h4l72 141q2 6 9 6zM142 407v206h-68q-9 0 -9 9v13q0 8 9 8h166q10 0 10 -8v-13
q0 -9 -10 -9h-66v-206q0 -9 -9 -9h-15q-8 0 -8 9z" />
    <glyph glyph-name="uni2126" unicode="&#x2126;" horiz-adv-x="629" 
d="M277 36v-25q0 -11 -11 -11h-214q-12 0 -12 11v25q0 11 12 11h95v4q-50 31 -50 108v344q0 64 38.5 102t103.5 38h150q66 0 104 -37.5t38 -102.5v-344q0 -77 -50 -108v-4h96q12 0 12 -11v-25q0 -11 -12 -11h-214q-11 0 -11 11v25q0 11 11 11h25q47 0 71 27t24 74v354
q0 46 -26 70t-73 24h-140q-47 0 -72.5 -24.5t-25.5 -69.5v-354q0 -46 24 -73.5t70 -27.5h26q11 0 11 -11z" />
    <glyph glyph-name="partialdiff" unicode="&#x2202;" horiz-adv-x="481" 
d="M269 365h-62q-46 0 -71.5 -26t-25.5 -73v-122q0 -48 24.5 -73.5t70.5 -25.5h71q46 0 70 25.5t24 73.5v123q0 47 -26.5 72.5t-74.5 25.5zM137 602q-12 0 -12 10v23q0 13 15 13q122 0 196 -59q85 -67 85 -242v-205q0 -66 -38 -104t-102 -38h-80q-65 0 -103 38t-38 104v126
q0 66 38 104t103 38h63q80 0 106 -52h4q0 134 -61.5 189t-175.5 55z" />
    <glyph glyph-name="uni2206" unicode="&#x2206;" horiz-adv-x="594" 
d="M278 643h38q12 0 16 -12l231 -619q5 -12 -7 -12h-518q-10 0 -7 12l232 619q4 12 15 12zM295 587l-197 -540h398l-197 540h-4z" />
    <glyph glyph-name="minus" unicode="&#x2212;" horiz-adv-x="523" 
d="M82 343h359q12 0 12 -11v-22q0 -11 -12 -11h-359q-12 0 -12 11v22q0 11 12 11z" />
    <glyph glyph-name="approxequal" unicode="&#x2248;" horiz-adv-x="523" 
d="M259 216.5q-66 14.5 -91.5 14.5t-56.5 -11t-32 -11q-9 0 -9 11v19q0 12 19 19q33 15 71 15t103 -14.5t92 -14.5t57 11t32 11q9 0 9 -11v-19q0 -12 -18 -19q-35 -15 -72.5 -15t-103.5 14.5zM259 383.5q-66 14.5 -91.5 14.5t-56.5 -11t-32 -11q-9 0 -9 11v19q0 12 19 19
q33 15 71 15t103 -14.5t92 -14.5t57 11t32 11q9 0 9 -11v-19q0 -12 -18 -19q-35 -15 -72.5 -15t-103.5 14.5z" />
    <glyph glyph-name="notequal" unicode="&#x2260;" horiz-adv-x="523" 
d="M195 104h-16q-14 0 -8 13l32 93h-121q-12 0 -12 11v21q0 11 12 11h135l47 136h-182q-12 0 -12 11v21q0 11 12 11h198l32 92q3 13 17 13h15q15 0 10 -13l-32 -92h119q12 0 12 -11v-21q0 -11 -12 -11h-134l-47 -136h181q12 0 12 -11v-21q0 -11 -12 -11h-195l-33 -93
q-4 -13 -18 -13z" />
    <glyph glyph-name="lessequal" unicode="&#x2264;" horiz-adv-x="523" 
d="M453 260v-23q0 -13 -14 -7l-356 109q-13 4 -13 16v27q0 12 13 17l356 110q14 4 14 -8v-23q0 -11 -9 -14l-319 -95l319 -95q9 -2 9 -14zM82 172h359q12 0 12 -11v-20q0 -12 -12 -12h-359q-12 0 -12 12v20q0 11 12 11z" />
    <glyph glyph-name="greaterequal" unicode="&#x2265;" horiz-adv-x="523" 
d="M82 172h359q12 0 12 -11v-20q0 -12 -12 -12h-359q-12 0 -12 12v20q0 11 12 11zM70 237v23q0 12 10 14l318 95l-318 95q-10 3 -10 14v23q0 12 14 8l356 -110q13 -5 13 -17v-27q0 -12 -13 -16l-356 -109q-14 -6 -14 7z" />
    <glyph glyph-name="uni25CC" unicode="&#x25cc;" horiz-adv-x="701" 
d="M285 571q0 19 12.5 31.5t31.5 12.5t31.5 -12.5t12.5 -31.5t-12.5 -31.5t-31.5 -12.5t-31.5 12.5t-12.5 31.5zM424 525q-13 13 -13 32t12.5 31.5t32 12.5t31.5 -12.5t12 -31.5t-12.5 -32t-31 -13t-31.5 13zM506 488q0 19 12.5 32t31.5 13t31.5 -12.5t12.5 -32t-12.5 -32
t-31.5 -12.5t-31.5 12.5t-12.5 31.5zM556 370q0 20 12 32t31.5 12t32 -12.5t12.5 -31.5t-12.5 -31.5t-32 -12.5t-31.5 12t-12 32zM559 204.5q-13 12.5 -13 32t13 32t31.5 12.5t31 -13t12.5 -32t-12.5 -31.5t-31 -12.5t-31.5 12.5zM473 138q0 19 12.5 31.5t31.5 12.5
t32 -12.5t13 -31.5t-13 -31.5t-32 -12.5t-31.5 12.5t-12.5 31.5zM352 85q0 19 12 31.5t32 12.5t32.5 -12.5t12.5 -31.5t-12.5 -31.5t-32.5 -12.5t-32 12.5t-12 31.5zM238 68q-13 13 -13 32t13 32t32 13t31.5 -13t12.5 -32t-12.5 -32t-31.5 -13t-32 13zM136 144
q-12 12 -12 31.5t12.5 32t31.5 12.5t31.5 -12.5t12.5 -31.5t-12.5 -31.5t-32 -12.5t-31.5 12zM72 292q0 19 12.5 32t31.5 13t31.5 -12.5t12.5 -32t-12.5 -31.5t-31.5 -12t-31.5 12t-12.5 31zM85 418q0 19 13 31.5t32 12.5t32 -12.5t13 -31.5t-13 -31.5t-32 -12.5t-32 12.5
t-13 31.5zM179.5 495.5q-12.5 12.5 -12.5 32t12.5 32t31.5 12.5t31.5 -12.5t12.5 -32t-12.5 -32t-31.5 -12.5t-31.5 12.5z" />
    <glyph glyph-name="commaaccent" unicode="&#xf6c3;" horiz-adv-x="0" 
d="M253 -43v-47q0 -19 -11 -57l-26 -84q-3 -7 -8 -7q-8 0 -8 9v186q0 11 11 11h31q11 0 11 -11z" />
    <glyph glyph-name="itfLogo" horiz-adv-x="1734" 
d="M1396 237v196h207v-196h-207zM1396 475v196h207v-196h-207zM1146 0v671h208v-671h-208zM896 475v196h208v-196h-208zM647 0v671h207v-671h-207zM397 475v196h207v-196h-207zM147 0v671h207v-671h-207z" />
    <glyph glyph-name="uni0915094D" horiz-adv-x="519" 
d="M518 437h-36q-46 0 -71 -24t-25 -69v-332q0 -12 -11 -12h-25q-11 0 -11 12v128h-4q-25 -47 -97 -47h-35q-66 0 -104 37.5t-38 103.5v106q1 66 39 103.5t103 37.5h50q12 0 12 -11v-22q0 -11 -12 -11h-46q-47 0 -72.5 -25.5t-25.5 -73.5v-102q0 -48 25.5 -73.5t73.5 -25.5
h35q46 0 71 24.5t25 68.5v342q0 9 -10 9h-331q-12 0 -12 12v19q0 11 12 11h639q12 0 12 -11v-19q0 -12 -12 -12h-241q-10 0 -10 -9v-138h4q22 47 98 47h34q90 0 120 -64q5 -7 5 -13.5t-7 -10.5q-18 -13 -23 -13t-13 12q-23 45 -86 45z" />
    <glyph glyph-name="uni0916094D" horiz-adv-x="468" 
d="M463 139h-12q-63 0 -97.5 37t-34.5 101v43q0 64 35.5 100.5t99.5 36.5h18q12 0 12 -12v-21q0 -11 -12 -11h-16q-89 0 -89 -97v-36q0 -98 90 -98h5q31 0 49 9.5t33 24.5t19.5 15t14 -8t9.5 -13.5t-7 -12.5q-48 -58 -117 -58zM-2 623h567q12 0 12 -11v-19q0 -12 -12 -12
h-300q-9 0 -9 -9v-157q0 -65 -33 -97.5t-89 -33.5h-42l178 -263q5 -7 5 -11q0 -10 -11 -10h-27q-9 0 -16 11l-168 248l-19 24v32q0 13 13 13h80q81 0 81 88v156q0 9 -9 9h-201q-12 0 -12 12v19q0 11 12 11z" />
    <glyph glyph-name="uni0917094D" horiz-adv-x="264" 
d="M266 581h-75q-9 0 -9 -9v-214q0 -71 -35.5 -105t-98.5 -34h-17q-12 0 -12 11v22q0 12 12 12h14q88 0 88 95v213q0 9 -9 9h-126q-12 0 -12 12v19q0 11 12 11h268q12 0 12 -11v-19q0 -12 -12 -12z" />
    <glyph glyph-name="uni0918094D" horiz-adv-x="321" 
d="M212 125h104q33 0 52 11t34 27.5t20 16.5q6 0 16 -8t10 -13.5t-7 -14.5q-52 -63 -123 -63h-110q-64 0 -100 33.5t-36 97.5v41q0 82 63 104v4q-63 22 -63 100v33q0 64 36 83v4h-110q-12 0 -12 12v19q0 11 12 11h435q12 0 12 -11v-19q0 -12 -12 -12h-236q-77 0 -77 -85v-32
q0 -83 82 -83h62q12 0 12 -12v-21q0 -11 -12 -11h-62q-82 0 -82 -84v-38q0 -90 92 -90z" />
    <glyph glyph-name="uni0919094D" horiz-adv-x="505" 
d="M228 -52h22q10 0 18 -11l90 -130q3 -3 3 -8q0 -10 -11 -10h-26q-10 0 -17 10l-86 133q-3 3 -3 7q0 9 10 9zM472 354v-33q0 -12 -11 -12h-30q-11 0 -11 12v33q0 12 11 12h30q11 0 11 -12zM-2 623h509q12 0 12 -11v-19q0 -12 -12 -12h-114q-10 0 -10 -9v-127q0 -12 -7 -19
t-18 -7h-155q-44 0 -62 -15t-18 -53v-13q0 -38 18 -53t62 -15h84q126 0 126 -107v-52q0 -111 -126 -111h-93q-62 0 -93 28.5t-31 93.5v8q0 14 12 14h24q11 0 11 -14v-8q0 -46 17.5 -62.5t61.5 -16.5h87q44 0 62.5 16t18.5 55v45q0 38 -18.5 53.5t-62.5 15.5h-82
q-126 0 -126 108v18q0 109 126 109h125q10 0 10 9v100q0 9 -9 9h-329q-12 0 -12 12v19q0 11 12 11z" />
    <glyph glyph-name="uni091A094D" horiz-adv-x="330" 
d="M321 105h-74q-65 0 -103 37t-38 103v45q0 70 45 96v4h-117q-12 0 -12 11v22q0 11 12 11h276q13 0 13 -11v-22q0 -11 -13 -11h-64q-45 0 -68.5 -25.5t-23.5 -73.5v-44q0 -47 25 -72.5t72 -25.5h70q32 0 51 11t35.5 27.5t21.5 16.5q4 0 14 -8t10 -14.5t-7 -13.5
q-52 -63 -125 -63zM438 581h-440q-12 0 -12 12v19q0 11 12 11h440q12 0 12 -11v-19q0 -12 -12 -12z" />
    <glyph glyph-name="uni091B094D" horiz-adv-x="581" 
d="M-2 623h585q12 0 12 -11v-19q0 -11 -12 -12h-378q-42 0 -61 -21.5t-19 -66.5v-62q0 -83 82 -83h41q12 0 12 -11v-22q0 -11 -12 -11h-39q-84 0 -84 -85v-42q0 -48 20.5 -69t67.5 -21h151q97 0 97 100v168q0 83 -80 83h-37q-13 0 -13 11v20q0 11 13 11h39q125 0 125 -125
v-173q0 -62 -37 -100.5t-101 -38.5h-160q-64 0 -99 33t-35 97v47q0 84 63 104v4q-63 21 -63 99v66q0 64 37 84v4h-115q-12 1 -12 12v19q0 11 12 11z" />
    <glyph glyph-name="uni091C094D" horiz-adv-x="309" 
d="M403 375h-166v-4q41 -22 41 -89v-76q0 -68 -34.5 -102t-94.5 -34h-107q-12 0 -12 11v21q0 12 12 12h100q88 0 88 95v72q0 94 -89 94h-58q-12 0 -12 11v23q0 11 12 11h320q12 0 12 -11v-22q0 -12 -12 -12zM-2 581q-12 0 -12 12v19q0 11 12 11h405q12 0 12 -11v-19
q0 -11 -12 -12h-405z" />
    <glyph glyph-name="uni091D094D" horiz-adv-x="432" 
d="M523 260h-166q24 -17 24 -64v-38q0 -111 -126 -111h-52q-63 0 -84 34h-4v-109q0 -12 -12 -12h-23q-12 0 -12 12v222q0 12 12 12h23q12 0 12 -12v-25q0 -79 83 -79h54q44 0 62.5 16t18.5 54v32q0 36 -17 52t-56 16h-60q-127 0 -127 110v8q0 109 127 109h94q9 0 9 9v76
q0 9 -9 9h-296q-12 0 -12 12v19q0 11 12 11h525q13 0 13 -11v-19q0 -12 -13 -12h-162q-10 0 -10 -9v-103q0 -26 -25 -26h-124q-44 0 -62.5 -15t-18.5 -53v-5q0 -37 19 -52t62 -15h321q13 0 13 -11v-21q0 -11 -13 -11z" />
    <glyph glyph-name="uni091E094D" horiz-adv-x="359" 
d="M450 581h-452q-12 0 -12 12v19q0 11 12 11h452q12 0 12 -11v-19q0 -12 -12 -12zM72 469h85q60 0 95.5 -31.5t37.5 -96.5q0 -25 1 -26q0 -9 10 -9h149q12 0 12 -11v-22q0 -11 -12 -11h-149q-10 0 -10 -9l-1 -35q-2 -64 -37.5 -95.5t-95.5 -31.5h-101q-12 0 -12 11v22
q0 11 12 11h100q90 0 90 95v100q0 95 -89 95h-85q-13 0 -13 11v22q0 11 13 11z" />
    <glyph glyph-name="uni091F094D" horiz-adv-x="485" 
d="M209 440h113q9 0 9 9v123q0 9 -9 9h-324q-12 0 -12 12v19q0 11 12 11h489q12 0 12 -11v-19q0 -12 -12 -12h-98q-10 0 -10 -9v-150q0 -26 -25 -26h-142q-47 0 -72 -26t-25 -74v-113q0 -48 25 -74t72 -26h79q47 0 72 25.5t25 73.5v40q0 13 11 13h24q12 0 12 -13v-41
q0 -66 -38 -104t-104 -38h-84q-66 0 -104 38.5t-38 104.5v115q0 66 38 104.5t104 38.5zM238 -32h22q10 0 18 -11l90 -130q3 -3 3 -8q0 -10 -11 -10h-26q-10 0 -17 10l-86 133q-3 3 -3 7q0 9 10 9z" />
    <glyph glyph-name="uni0920094D" horiz-adv-x="512" 
d="M293 396h-82q-47 0 -72 -26.5t-25 -74.5v-111q0 -48 25.5 -74.5t72.5 -26.5h79q48 0 73 26.5t25 74.5v111q0 48 -25 74.5t-71 26.5zM514 581h-112q-10 0 -10 -9v-63q0 -62 -40 -83v-4q39 -9 62 -41t23 -79v-122q0 -65 -38.5 -103t-103.5 -38h-87q-66 0 -104 38.5
t-38 104.5v115q0 66 38.5 104.5t103.5 38.5h65q36 0 53.5 16t17.5 58v58q0 9 -9 9h-337q-12 0 -12 12v19q0 11 12 11h516q13 0 13 -11v-19q0 -12 -13 -12zM231 -32h22q10 0 18 -11l90 -130q3 -3 3 -8q0 -10 -11 -10h-26q-10 0 -17 10l-86 133q-3 3 -3 7q0 9 10 9z" />
    <glyph glyph-name="uni0921094D" horiz-adv-x="475" 
d="M-2 623h479q13 0 13 -11v-19q0 -12 -13 -12h-84q-10 0 -10 -9v-127q0 -12 -7 -19t-18 -7h-155q-44 0 -62 -15t-18 -53v-17q0 -38 18 -53t62 -15h82q128 0 128 -107v-48q0 -55 -34 -83t-93 -28h-91q-125 0 -125 122v8q0 14 12 14h24q11 0 11 -14v-8q0 -45 19.5 -62
t61.5 -17h84q82 0 82 71v41q0 38 -19.5 53.5t-63.5 15.5h-80q-126 0 -126 108v22q0 109 126 109h125q10 0 10 9v100q0 9 -9 9h-329q-12 0 -12 12v19q0 11 12 11zM234 -52h22q10 0 18 -11l90 -130q3 -3 3 -8q0 -10 -11 -10h-26q-10 0 -17 10l-86 133q-3 3 -3 7q0 9 10 9z" />
    <glyph glyph-name="uni0922094D" horiz-adv-x="485" 
d="M307 39h-97q-66 0 -103.5 38.5t-37.5 104.5v120q0 67 37.5 105t102.5 38h119q9 0 9 9v118q0 9 -9 9h-330q-12 0 -12 12v19q0 11 12 11h489q13 0 13 -11v-19q0 -12 -13 -12h-92q-10 0 -10 -9v-146q0 -24 -23 -24h-150q-47 0 -71.5 -26.5t-24.5 -74.5v-120
q0 -48 24.5 -73.5t72.5 -25.5h94q45 0 65 21.5t20 67.5v15q0 39 -11 55t-44 16t-44 -15.5t-11 -54.5v-15q0 -12 -11 -12h-19q-14 0 -14 13v15q0 56 22.5 83t76 27t77 -27.5t23.5 -85.5v-16q0 -130 -130 -130zM235 -32h22q10 0 18 -11l90 -130q3 -3 3 -8q0 -10 -11 -10h-26
q-10 0 -17 10l-86 133q-3 3 -3 7q0 9 10 9z" />
    <glyph glyph-name="uni0923094D" horiz-adv-x="454" 
d="M313 581h-174q-10 0 -10 -9v-257q0 -92 86 -92h22q86 0 86 92v257q0 9 -10 9zM456 581h-78q-8 0 -8 -9v-257q0 -69 -35.5 -102.5t-96.5 -33.5h-24q-61 0 -96.5 33.5t-35.5 102.5v257q0 9 -10 9h-74q-12 0 -12 12v19q0 11 12 11h458q12 0 12 -11v-19q0 -12 -12 -12z" />
    <glyph glyph-name="uni0924094D" horiz-adv-x="263" 
d="M354 378h-150q-90 0 -90 -95v-145q0 -95 97 -95h13q12 0 12 -11v-21q0 -11 -12 -11h-19q-63 0 -101 34.5t-38 104.5v145q0 71 36 105t99 34h153q12 0 12 -11v-22q0 -12 -12 -12zM354 581h-356q-12 0 -12 12v19q0 11 12 11h356q12 0 12 -11v-19q0 -12 -12 -12z" />
    <glyph glyph-name="uni0925094D" horiz-adv-x="359" 
d="M220 149h120q34 0 55.5 13t38.5 30.5t22 17.5t15 -8t10 -14.5t-7 -13.5q-57 -69 -134 -69h-124q-72 0 -113.5 43t-41.5 111v95q0 11 12 11h120q89 0 89 91v52q0 73 -74 73t-74 -73v-43q0 -12 -11 -12h-24q-11 0 -11 12v46q0 55 32 84t87.5 29t88.5 -29t33 -87v-53
q0 -134 -135 -134h-85v-61q0 -53 28.5 -82t82.5 -29z" />
    <glyph glyph-name="uni0926094D" horiz-adv-x="489" 
d="M208 463h134q9 0 9 9v100q0 9 -9 9h-344q-12 0 -12 12v19q0 11 12 11h493q12 0 12 -11v-19q0 -12 -12 -12h-83q-9 0 -9 -9v-128q0 -11 -6.5 -18t-17.5 -7h-163q-47 0 -71.5 -26.5t-24.5 -74.5v-89q0 -48 24.5 -73.5t72.5 -25.5h71q84 0 84 81v33q0 12 11 12h23
q12 0 12 -12v-232q0 -12 -12 -12h-23q-11 0 -11 12v109h-4q-23 -35 -85 -35h-70q-66 0 -103.5 38.5t-37.5 104.5v91q0 67 37.5 105t102.5 38zM227 6h22q10 0 18 -11l90 -130q3 -3 3 -8q0 -10 -11 -10h-26q-10 0 -17 10l-86 133q-3 3 -3 7q0 9 10 9z" />
    <glyph glyph-name="uni0927094D" horiz-adv-x="321" 
d="M323 623h119q12 0 12 -11v-19q0 -12 -12 -12h-119q-12 0 -12 12v19q0 11 12 11zM212 125h104q33 0 52 11t34 27.5t20 16.5q6 0 16 -8t10 -13.5t-7 -14.5q-52 -63 -123 -63h-110q-64 0 -100 33.5t-36 97.5v41q0 82 63 104v4q-63 22 -63 100v33q0 64 36 83v4h-110
q-12 0 -12 12v19q0 11 12 11h231q12 0 12 -11v-19q0 -12 -12 -12h-32q-77 0 -77 -85v-32q0 -83 82 -83h62q12 0 12 -12v-21q0 -11 -12 -11h-62q-82 0 -82 -84v-38q0 -90 92 -90z" />
    <glyph glyph-name="uni0928094D" horiz-adv-x="233" 
d="M-2 623h324q12 0 12 -11v-19q0 -12 -12 -12h-324q-12 0 -12 12v19q0 11 12 11zM322 332h-178q-59 0 -59 -58q0 -25 6.5 -45t6.5 -24q0 -10 -10 -10h-20q-14 0 -18 15q-13 36 -13 74.5t25 64.5t72 26h188q12 0 12 -11v-21q0 -11 -12 -11z" />
    <glyph glyph-name="uni092A094D" horiz-adv-x="269" 
d="M266 177h-45q-63 0 -101 37.5t-38 101.5v256q0 7 -8 9h-76q-12 0 -12 12v19q0 11 12 11h389q12 0 12 -11v-19q0 -12 -12 -12h-247q-10 0 -10 -9v-253q0 -97 95 -97h41q40 0 69 23q10 8 22 20.5t17 12.5t15 -8t10 -14t-7 -13q-52 -66 -126 -66z" />
    <glyph glyph-name="uni092B094D" horiz-adv-x="530" 
d="M225 228h29q47 0 72.5 24.5t25.5 69.5v250q0 9 -9 9h-203q-10 0 -10 -9v-246q0 -98 95 -98zM531 435h-36q-46 0 -70.5 -24t-24.5 -69v-330q0 -12 -12 -12h-24q-12 0 -12 12v218h-4q-24 -46 -98 -46h-29q-63 0 -101 37t-38 101v250q0 7 -8 9h-76q-12 0 -12 12v19
q0 11 12 11h653q12 0 12 -11v-19q0 -12 -12 -12h-242q-9 0 -9 -9v-140h4q20 47 97 47h34q89 0 120 -64q5 -8 5 -14t-7 -10q-18 -13 -23.5 -13t-12.5 13q-23 44 -86 44z" />
    <glyph glyph-name="uni092C094D" horiz-adv-x="265" 
d="M367 266h17q11 0 11 -12v-24q0 -68 -37 -105.5t-101 -37.5h-52q-65 0 -103 37.5t-38 103.5v117q0 66 38 103.5t103 37.5h60q12 0 12 -12v-20q0 -11 -12 -11h-57q-44 0 -69 -23l214 -220q3 14 3 29v25q0 12 11 12zM208 130h51q56 0 80 35l-220 225q-8 -21 -8 -46v-115
q0 -48 24.5 -73.5t72.5 -25.5zM391 612v-19q0 -12 -12 -12h-381q-12 0 -12 12v19q0 11 12 11h381q12 0 12 -11z" />
    <glyph glyph-name="uni092D094D" horiz-adv-x="261" 
d="M356 581h-94q-13 0 -13 12v19q0 11 13 11h94q12 0 12 -11v-19q0 -12 -12 -12zM356 294h-218q-10 0 -10 -9v-99q0 -12 -11 -12h-26q-11 0 -11 12v318q0 77 -74 77h-8q-12 0 -12 12v19q0 11 12 11h8q58 0 90 -30.5t32 -87.5v-158q0 -10 9 -10h219q12 0 12 -11v-20
q0 -12 -12 -12z" />
    <glyph glyph-name="uni092E094D" horiz-adv-x="261" 
d="M356 294h-219q-10 0 -10 -9v-99q0 -12 -11 -12h-26q-11 0 -11 12v386q0 9 -10 9h-71q-12 0 -12 12v19q0 11 12 11h358q12 0 12 -11v-19q0 -12 -12 -12h-219q-10 0 -10 -9v-225q0 -10 9 -10h220q12 0 12 -11v-20q0 -12 -12 -12z" />
    <glyph glyph-name="uni092F094D" horiz-adv-x="323" 
d="M229 147h80q24 0 44.5 9t30.5 17.5t28 26.5q10 8 14 8t14 -8t10 -14.5t-6 -12.5q-57 -69 -135 -69h-83q-73 0 -115.5 43.5t-42.5 112.5v123q0 11 12 11h51q46 0 66 19.5t20 69.5v12q0 46 -19.5 66t-66.5 20h-133q-12 0 -12 12v19q0 11 12 11h412q12 0 12 -11v-19
q0 -12 -12 -12h-181v-4q36 -21 36 -85v-15q0 -124 -129 -126h-20v-91q0 -54 29 -83.5t84 -29.5z" />
    <glyph glyph-name="uni0930094D" horiz-adv-x="337" 
d="M208 416v156q0 9 -9 9h-201q-12 0 -12 12v19q0 11 12 11h341q13 0 13 -11v-19q0 -12 -13 -12h-73q-10 0 -10 -9v-157q0 -65 -33 -98t-90 -33h-41l177 -266q3 -3 3 -8q0 -10 -11 -10h-26q-10 0 -15 10l-167 249l-19 24v32q0 13 13 13h80q81 0 81 88zM145 -44h22
q10 0 18 -11l90 -130q3 -3 3 -8q0 -10 -11 -10h-26q-10 0 -17 10l-86 133q-3 3 -3 7q0 9 10 9z" />
    <glyph glyph-name="uni0932094D" horiz-adv-x="431" 
d="M441 443q72 0 113 -52q7 -9 7 -14.5t-5 -9.5l-8 -8q-4 -4 -9.5 -4t-18.5 13q-28 30 -75.5 30t-70.5 -22t-23 -75v-87q0 -12 -11 -12h-24q-12 0 -12 12v89q0 51 -23 73t-69.5 22t-69.5 -23t-23 -75v-120q0 -52 24.5 -75t73.5 -23h47q13 0 13 -12v-21q0 -11 -13 -11h-51
q-67 0 -104.5 35t-37.5 105v124q0 71 37 106t102 35q93 0 115 -67h4q23 67 112 67zM552 581h-554q-12 0 -12 12v19q0 11 12 11h554q12 0 12 -11v-19q0 -12 -12 -12z" />
    <glyph glyph-name="uni0933094D" horiz-adv-x="677" 
d="M-2 623h681q12 0 12 -11v-19q0 -12 -12 -12h-681q-12 0 -12 12v19q0 11 12 11zM452 443h8q66 0 103.5 -36t37.5 -103v-126q0 -66 -37.5 -102t-103.5 -36h-8q-86 0 -118 60q-32 -60 -118 -60h-8q-66 0 -103.5 36t-37.5 102v126q0 67 37.5 103t103.5 36h8q86 0 118 -60
q32 60 118 60zM310 179v125q0 95 -94 95h-7q-95 0 -95 -95v-125q0 -95 95 -95h7q94 0 94 95zM554 179v125q0 95 -95 95h-7q-94 0 -94 -95v-125q0 -95 94 -95h7q95 0 95 95z" />
    <glyph glyph-name="uni0935094D" horiz-adv-x="255" 
d="M356 229v25q0 12 11 12h17q11 0 11 -12v-24q0 -68 -37 -105.5t-101 -37.5h-52q-65 0 -103 37.5t-38 103.5v117q0 66 38 103.5t103 37.5h60q12 0 12 -12v-20q0 -11 -12 -11h-57q-47 0 -72 -25.5t-25 -73.5v-115q0 -48 24.5 -73.5t72.5 -25.5h51q48 0 72.5 25.5t24.5 73.5z
M379 581h-381q-12 0 -12 12v19q0 11 12 11h381q12 0 12 -11v-19q0 -12 -12 -12z" />
    <glyph glyph-name="uni0936094D" horiz-adv-x="378" 
d="M280 9q0 -9 -11 -9h-28q-8 0 -15 10l-162 236l-20 24v32q0 12 14 12h140q89 0 89 95v89q0 44 -19 63.5t-63.5 19.5t-63.5 -19t-19 -64v-51q0 -12 -11 -12h-25q-12 0 -12 12v51q0 125 130.5 125t130.5 -125v-89q0 -69 -36 -103.5t-100 -34.5h-97l174 -253q4 -6 4 -9z" />
    <glyph glyph-name="uni0937094D" horiz-adv-x="282" 
d="M417 274q0 -5 -6 -13q-65 -87 -144 -87h-46q-63 0 -101 37t-38 101v260q0 7 -8 9h-76q-12 0 -12 12v19q0 11 12 11h401q13 0 13 -11v-19q0 -12 -13 -12h-271l255 -289q5 5 10 5q4 0 14 -9t10 -14zM225 218h43q45 0 91 46l-229 262v-211q0 -97 95 -97z" />
    <glyph glyph-name="uni0938094D" horiz-adv-x="338" 
d="M198 324h242q13 0 13 -11v-21q0 -12 -13 -12h-348l153 -258q6 -6 6 -14t-11 -8h-28q-10 0 -15 10l-134 228l-29 43v31q0 12 13 12h60q35 0 57 21.5t22 67.5v159q0 9 -9 9h-179q-12 0 -12 12v19q0 11 12 11h442q13 0 13 -11v-19q0 -12 -13 -12h-196q-9 0 -9 -9v-152
q0 -69 -37 -92v-4z" />
    <glyph glyph-name="uni0939094D" horiz-adv-x="457" 
d="M79 353q0 118 127 118h128q10 0 10 9v92q0 9 -9 9h-337q-12 0 -12 12v19q0 11 12 11h483q12 0 12 -11v-19q0 -12 -12 -12h-79q-10 0 -10 -9v-118q0 -26 -25 -26h-156q-44 0 -64 -18t-20 -60t19.5 -60.5t63.5 -18.5h340q12 0 12 -11v-19q0 -12 -12 -12h-338q-44 0 -67 -26
t-23 -72v-28q0 -97 99 -97h164q12 0 12 -11v-20q0 -12 -12 -12h-166q-68 0 -106.5 37t-38.5 102v30q0 86 65 114v4q-60 24 -60 103z" />
    <glyph glyph-name="uni0915093C094D" horiz-adv-x="519" 
d="M518 437h-36q-46 0 -71 -24t-25 -69v-332q0 -12 -11 -12h-25q-11 0 -11 12v128h-4q-25 -47 -97 -47h-35q-66 0 -104 37.5t-38 103.5v106q1 66 39 103.5t103 37.5h50q12 0 12 -11v-22q0 -11 -12 -11h-46q-47 0 -72.5 -25.5t-25.5 -73.5v-102q0 -48 25.5 -73.5t73.5 -25.5
h35q46 0 71 24.5t25 68.5v342q0 9 -10 9h-331q-12 0 -12 12v19q0 11 12 11h639q12 0 12 -11v-19q0 -12 -12 -12h-241q-10 0 -10 -9v-138h4q22 47 98 47h34q90 0 120 -64q5 -7 5 -13.5t-7 -10.5q-18 -13 -23 -13t-13 12q-23 45 -86 45zM167 -1v-33q0 -12 -11 -12h-31
q-11 0 -11 12v33q0 12 11 12h31q11 0 11 -12z" />
    <glyph glyph-name="uni0916093C094D" horiz-adv-x="463" 
d="M-2 623h567q12 0 12 -11v-19q0 -12 -12 -12h-300q-9 0 -9 -9v-157q0 -65 -33 -97.5t-89 -33.5h-42l178 -263q5 -7 5 -11q0 -10 -11 -10h-27q-9 0 -16 11l-168 248l-19 24v32q0 13 13 13h80q81 0 81 88v156q0 9 -9 9h-201q-12 0 -12 12v19q0 11 12 11zM463 139h-12
q-63 0 -97.5 37t-34.5 101v43q0 64 35.5 100.5t99.5 36.5h18q12 0 12 -12v-21q0 -11 -12 -11h-16q-89 0 -89 -97v-36q0 -98 90 -98h5q31 0 49 9.5t33 24.5t19.5 15t14 -8t9.5 -13.5t-7 -12.5q-48 -58 -117 -58zM121 -4v-33q0 -12 -11 -12h-31q-11 0 -11 12v33q0 12 11 12h31
q11 0 11 -12z" />
    <glyph glyph-name="uni0917093C094D" horiz-adv-x="264" 
d="M266 581h-75q-9 0 -9 -9v-214q0 -71 -35.5 -105t-98.5 -34h-17q-12 0 -12 11v22q0 12 12 12h14q88 0 88 95v213q0 9 -9 9h-126q-12 0 -12 12v19q0 11 12 11h268q12 0 12 -11v-19q0 -12 -12 -12zM154 21v-33q0 -12 -11 -12h-31q-11 0 -11 12v33q0 12 11 12h31q11 0 11 -12
z" />
    <glyph glyph-name="uni091C093C094D" horiz-adv-x="314" 
d="M145 -33v-33q0 -12 -11 -12h-31q-11 0 -11 12v33q0 12 11 12h31q11 0 11 -12zM-2 581q-12 0 -12 12v19q0 11 12 11h405q12 0 12 -11v-19q0 -11 -12 -12h-405zM403 375h-166v-4q41 -22 41 -89v-76q0 -68 -34.5 -102t-94.5 -34h-107q-12 0 -12 11v21q0 12 12 12h100
q88 0 88 95v72q0 94 -89 94h-58q-12 0 -12 11v23q0 11 12 11h320q12 0 12 -11v-22q0 -12 -12 -12z" />
    <glyph glyph-name="uni0928093C094D" horiz-adv-x="241" 
d="M330 332h-178q-59 0 -59 -58q0 -25 6.5 -45t6.5 -24q0 -10 -10 -10h-20q-14 0 -18 15q-13 36 -13 74.5t25 64.5t72 26h188q12 0 12 -11v-21q0 -11 -12 -11zM6 623h324q12 0 12 -11v-19q0 -12 -12 -12h-324q-12 0 -12 12v19q0 11 12 11zM178 19v-33q0 -12 -11 -12h-31
q-11 0 -11 12v33q0 12 11 12h31q11 0 11 -12z" />
    <glyph glyph-name="uni092B093C094D" horiz-adv-x="530" 
d="M531 435h-36q-46 0 -70.5 -24t-24.5 -69v-330q0 -12 -12 -12h-24q-12 0 -12 12v218h-4q-24 -46 -98 -46h-29q-63 0 -101 37t-38 101v250q0 7 -8 9h-76q-12 0 -12 12v19q0 11 12 11h653q12 0 12 -11v-19q0 -12 -12 -12h-242q-9 0 -9 -9v-140h4q20 47 97 47h34
q89 0 120 -64q5 -8 5 -14t-7 -10q-18 -13 -23.5 -13t-12.5 13q-23 44 -86 44zM225 228h29q47 0 72.5 24.5t25.5 69.5v250q0 9 -9 9h-203q-10 0 -10 -9v-246q0 -98 95 -98zM193 5v-33q0 -12 -11 -12h-31q-11 0 -11 12v33q0 12 11 12h31q11 0 11 -12z" />
    <glyph glyph-name="uni092F093C094D" horiz-adv-x="325" 
d="M229 147h80q24 0 44.5 9t30.5 17.5t28 26.5q10 8 14 8t14 -8t10 -14.5t-6 -12.5q-57 -69 -135 -69h-83q-73 0 -115.5 43.5t-42.5 112.5v123q0 11 12 11h51q46 0 66 19.5t20 69.5v12q0 46 -19.5 66t-66.5 20h-133q-12 0 -12 12v19q0 11 12 11h412q12 0 12 -11v-19
q0 -12 -12 -12h-181v-4q36 -21 36 -85v-15q0 -124 -129 -126h-20v-91q0 -54 29 -83.5t84 -29.5zM201 -9v-33q0 -12 -11 -12h-31q-11 0 -11 12v33q0 12 11 12h31q11 0 11 -12z" />
    <glyph glyph-name="itfStar" horiz-adv-x="672" 
d="M663 452l-218 -140q7 -16 48 -125.5t46 -121.5l-204 168q-20 -14 -205 -168l96 247q-14 8 -111 70l-110 70l261 -8q26 102 69 246l66 -246q136 8 262 8z" />
    <glyph glyph-name="uni09080902" horiz-adv-x="478" 
d="M299 736v-64q0 -30 11 -39.5t47 -9.5h123q12 0 12 -11v-19q0 -12 -12 -12h-84q-10 0 -10 -8v-120q0 -12 -7 -19t-18 -7h-161q-44 0 -62 -15.5t-18 -52.5v-13q0 -37 18.5 -52t61.5 -15h90q125 0 125 -107v-47q0 -111 -125 -111h-86q-62 0 -84 35h-4v-81q0 -11 -12 -11h-23
q-12 0 -12 11v190q0 12 12 12h23q12 0 12 -12v-21q0 -79 83 -79h87q44 0 62.5 15.5t18.5 53.5v42q0 37 -18.5 52t-62.5 15h-88q-126 0 -126 110v16q0 109 126 109h130q10 0 10 9v93q0 8 -10 8h-330q-12 0 -12 12v19q0 11 12 11h273v4q-21 11 -21 52v58q0 68 37 102.5
t98 34.5h57q12 0 12 -11v-22q0 -11 -12 -11h-56q-87 0 -87 -94zM423 745v-33q0 -12 -10 -12h-27q-11 0 -11 12v33q0 11 11 11h27q10 0 10 -11z" />
    <glyph glyph-name="uni09300941" horiz-adv-x="533" 
d="M-2 623h537q12 0 12 -11v-19q0 -12 -12 -12h-269q-10 0 -10 -9v-106h86q64 0 95.5 -30.5t31.5 -82.5v-46q0 -77 -43 -117q-22 -21 -40 -33q-54 -35 -64.5 -35t-12.5 6q-13 22 -13 27t8 10q52 27 72 41q47 33 47 104v41q0 72 -82 72h-85v-8q0 -65 -33 -98t-89 -33h-42
l177 -266q3 -3 3 -8q0 -10 -11 -10h-26q-10 0 -15 10l-167 249l-19 24v32q0 13 13 13h80q81 0 81 88v156q0 9 -9 9h-201q-12 0 -12 12v19q0 11 12 11z" />
    <glyph glyph-name="uni09300942" horiz-adv-x="645" 
d="M454 425q-43 0 -61.5 -17.5t-18.5 -67.5v-43q0 -14 -11 -14h-24q-11 0 -11 14v43q0 71 30.5 99t95 28t96 -30t31.5 -82v-46q0 -27 -10 -70q-3 -13 -14.5 -27l-17.5 -21.5t-26 -21t-29 -18.5l-38 -22l-39.5 -23t-15.5 -6t-10 6q-13 22 -13 27t9 10q45 25 60.5 33t40.5 24
t31 23.5t15.5 22.5t10.5 29t1 36v42q0 72 -82 72zM208 416v156q0 9 -9 9h-201q-12 0 -12 12v19q0 11 12 11h649q12 0 12 -11v-19q0 -12 -12 -12h-381q-10 0 -10 -9v-157q0 -65 -32.5 -98t-88.5 -33h-43l177 -266q3 -3 3 -8q0 -10 -11 -10h-26q-10 0 -15 10l-167 249l-19 24
v32q0 13 13 13h80q81 0 81 88z" />
    <glyph glyph-name="uni09390941" horiz-adv-x="495" 
d="M335 581h-337q-12 0 -12 12v19q0 11 12 11h499q12 0 12 -11v-19q0 -12 -12 -12h-95q-10 0 -10 -9v-118q0 -26 -25 -26h-156q-44 0 -64 -18t-20 -60t19.5 -60t63.5 -18h76q123 0 123 -122v-28q0 -11 -12 -11h-24q-11 0 -11 11v23q0 45 -19 65t-62 20h-69q-44 0 -67 -26.5
t-23 -73.5v-29q0 -100 103 -100h81q69 0 98 -29.5t29 -95.5t-38 -100.5t-107 -34.5h-20q-139 0 -209 135q-4 7 -4 11.5t5 8.5q19 16 23.5 16t11.5 -9q18 -28 29 -43t32 -36q41 -40 110 -40h22q52 0 75 22.5t23 68.5t-16 65t-65 19h-83q-71 0 -109.5 37.5t-38.5 103.5v31
q0 88 65 116v4q-60 22 -60 102q0 118 127 118h128q10 0 10 9v92q0 9 -9 9z" />
    <glyph glyph-name="uni09390942" horiz-adv-x="492" 
d="M-2 623h485q12 0 12 -11v-19q0 -12 -12 -12h-81q-10 0 -10 -9v-118q0 -26 -25 -26h-156q-44 0 -64 -18t-20 -60t19.5 -60t63.5 -18h76q123 0 123 -122v-28q0 -11 -12 -11h-24q-11 0 -11 11v23q0 45 -19 65t-62 20h-69q-44 0 -67 -26.5t-23 -73.5v-12q0 -100 101 -100h30
q58 0 91 -26q17 -14 30 -26.5t25.5 -36t19 -37.5t18.5 -42.5t16 -37t4 -13.5t-7 -9q-22 -9 -24 -9q-7 0 -13 13.5l-19.5 45l-20 46t-20 35.5t-25.5 31q-33 24 -76 24h-39q-42 0 -58 -21t-16 -65.5t12.5 -64.5t53.5 -20h41q13 0 13 -12v-18q0 -12 -13 -12h-41q-61 0 -86.5 31
t-25.5 103t42 101q-61 32 -61 119v14q0 88 65 116v4q-60 22 -60 102q0 118 127 118h128q10 0 10 9v92q0 9 -9 9h-337q-12 0 -12 12v19q0 11 12 11z" />
    <glyph glyph-name="uni09260943" horiz-adv-x="390" 
d="M330 56h-125q-129 0 -129 112v26q0 64 50 88v4q-50 22 -50 87v7q0 109 126 109h53q9 0 9 10v73q0 9 -9 9h-257q-12 0 -12 12v19q0 11 12 11h394q12 0 12 -11v-19q0 -12 -12 -12h-71q-9 0 -9 -9v-99q0 -25 -25 -25h-79q-46 0 -65.5 -15.5t-19.5 -53.5v-4q0 -37 19 -52.5
t63 -15.5h62q12 0 12 -12v-21q0 -11 -12 -11h-62q-44 0 -63 -16t-19 -53v-24q0 -38 19.5 -54t62.5 -16h125q12 0 12 -11v-22q0 -11 -12 -11z" />
    <glyph glyph-name="uni09390943" horiz-adv-x="519" 
d="M-2 623h523q12 0 12 -11v-19q0 -12 -12 -12h-122q-9 0 -9 -9v-118q0 -26 -25 -26h-163q-44 0 -63.5 -16.5t-19.5 -57.5t19 -57t64 -16h165q58 0 82 -25t24 -81v-10q0 -12 -11 -12h-23q-12 0 -12 12v5q0 39 -13.5 54t-51.5 15h-25q-42 0 -53 -19.5t-11 -71t12.5 -72.5
t53.5 -21h100q12 0 12 -11v-19q0 -12 -12 -12h-100q-64 0 -88.5 31t-24.5 98t20 97h-43q-44 0 -67 -26.5t-23 -73.5v-116q0 -99 103 -99h165q12 0 12 -12v-20q0 -11 -12 -11h-168q-70 0 -109 37.5t-39 103.5v118q0 89 66 116v4q-61 22 -61 96q0 115 128 115h134q10 0 10 9
v92q0 9 -9 9h-335q-12 0 -12 12v19q0 11 12 11z" />
    <glyph glyph-name="uni094D0928.post" 
d="M-2 623h236q12 0 12 -11v-19q0 -12 -12 -12h-84q-10 0 -10 -9v-560q0 -12 -11 -12h-26q-11 0 -11 12v211l-158 -123q-32 -24 -32 -54t26 -56q8 -10 8 -14.5t-5 -9.5l-12 -9q-4 -4 -10.5 -4t-15.5 9q-40 40 -40 86.5t52 86.5l187 146v291q0 9 -10 9h-84q-12 0 -12 12v19
q0 11 12 11z" />
    <glyph glyph-name="uni094D092F.post" horiz-adv-x="527" 
d="M130 420h-171q-13 0 -13 11v21q0 11 13 11h171q64 0 96.5 -29t32.5 -82q0 -117 -130 -117h-20q0 -62 27 -91t83 -29h54q54 0 84.5 31t30.5 82v344q0 9 -10 9h-419q-12 0 -12 12v19q0 11 12 11h571q12 0 12 -11v-19q0 -12 -12 -12h-85q-9 0 -9 -9v-560q0 -12 -12 -12h-25
q-11 0 -11 12v114h-4q-28 -53 -111 -53h-57q-76 0 -115 41t-39 115v37q0 12 12 12h56q43 0 62.5 17.5t19.5 55t-19.5 53.5t-62.5 16z" />
    <glyph glyph-name="uni094D0930.post" 
d="M-2 623h236q12 0 12 -11v-19q0 -12 -12 -12h-84q-10 0 -10 -9v-560q0 -12 -11 -12h-26q-11 0 -11 12v224l-196 -228q-8 -11 -19 -11h-28q-10 0 -10 9q0 5 4 9l249 284v273q0 9 -10 9h-84q-12 0 -12 12v19q0 11 12 11z" />
    <glyph glyph-name="uni094D0930" horiz-adv-x="0" 
d="M-265 12h28q10 0 16 -9l119 -157q4 -6 4 -10q0 -9 -11 -9h-29q-8 0 -16 10l-95 128h-5l-94 -128q-8 -10 -17 -10h-29q-10 0 -10 9q0 4 4 10l119 157q6 9 16 9z" />
    <glyph glyph-name="uni0930094D.1" horiz-adv-x="192" 
d="M167 346h-107q-32 0 -58 11t-39 22.5t-23.5 25t-10.5 19t5 10.5q15 12 20 12t12 -9q17 -17 26 -25q26 -21 68 -21h107q41 0 67 22q10 8 22.5 20.5t17.5 12.5q4 0 14 -9t10 -14.5t-7 -12.5q-51 -64 -124 -64zM194 581h-196q-12 0 -12 12v19q0 11 12 11h196q12 0 12 -11
v-19q0 -12 -12 -12z" />
    <glyph glyph-name="uni0930094D.2" horiz-adv-x="0" 
d="M-84 623v-25h-56v153q0 57 32 87.5t90 30.5h28q12 0 12 -12v-18q0 -12 -12 -12h-24q-78 0 -78 -77v-118q0 -9 8 -9z" />
    <glyph glyph-name="uni0930094D0902" horiz-adv-x="0" 
d="M10 745v-33q0 -12 -11 -12h-26q-11 0 -11 12v33q0 11 11 11h26q11 0 11 -11zM-84 623v-25h-56v158q0 57 32 87.5t90 30.5h28q12 0 12 -12v-18q0 -12 -12 -12h-24q-78 0 -78 -77v-123q0 -9 8 -9z" />
    <glyph glyph-name="uni093E0930094D" 
d="M213 869h28q12 0 12 -12v-18q0 -12 -12 -12h-23q-78 0 -78 -77v-118q0 -9 8 -9h86q12 0 12 -11v-19q0 -12 -12 -12h-84q-10 0 -10 -9v-560q0 -12 -11 -12h-26q-11 0 -11 12v560q0 9 -10 9h-83q-12 0 -12 12v19q0 11 12 11h85q8 0 8 9v119q0 57 31.5 87.5t89.5 30.5z" />
    <glyph glyph-name="uni093E0930094D0902" 
d="M218 757h27q11 0 11 -12v-33q0 -12 -11 -12h-27q-10 0 -10 12v33q0 12 10 12zM148 623h86q12 0 12 -11v-19q0 -12 -12 -12h-84q-10 0 -10 -9v-560q0 -12 -11 -12h-26q-11 0 -11 12v560q0 9 -10 9h-83q-12 0 -12 12v19q0 11 12 11h85q8 0 8 9v124q0 57 31.5 87.5
t89.5 30.5h28q12 0 12 -11v-19q0 -11 -12 -11h-23q-78 0 -78 -77v-124q0 -9 8 -9z" />
    <glyph glyph-name="uni0930094D.aMatraI" horiz-adv-x="0" 
d="M0 623h-48v84q0 57 32 87.5t90 30.5h27q13 0 13 -11v-19q0 -11 -13 -11h-23q-78 0 -78 -78v-83z" />
    <glyph glyph-name="uni0902.aMatraI" horiz-adv-x="0" 
d="M96 779v-37q0 -12 -11 -12h-33q-11 0 -11 12v37q0 12 11 12h33q11 0 11 -12z" />
    <glyph glyph-name="uni0930094D0902.aMatraI" horiz-adv-x="0" 
d="M103 711v-33q0 -12 -11 -12h-26q-11 0 -11 12v33q0 12 11 12h26q11 0 11 -12zM0 623h-48v84q0 57 32 87.5t90 30.5h27q13 0 13 -11v-19q0 -11 -13 -11h-23q-78 0 -78 -78v-83z" />
    <glyph glyph-name="uni09400930094D" 
d="M140 753v-121q0 -9 9 -9h85q12 0 12 -11v-19q0 -12 -12 -12h-84q-10 0 -10 -9v-560q0 -12 -11 -12h-26q-11 0 -11 12v560q0 9 -10 9h-83q-12 0 -12 12v19q0 11 12 11h83q10 0 10 9v119q0 81 -92 81q-49 0 -71.5 -20.5t-22.5 -68.5v-41q0 -12 -11 -12h-25q-12 0 -12 12v42
q0 132 141 132q88 0 118 -53q28 51 99 51h29q12 0 12 -11v-19q0 -12 -12 -12h-28q-77 0 -77 -79z" />
    <glyph glyph-name="uni09400902" 
d="M205 791h32q11 0 11 -12v-37q0 -12 -11 -12h-32q-11 0 -11 12v37q0 12 11 12zM150 623h84q12 0 12 -11v-19q0 -12 -12 -12h-84q-10 0 -10 -9v-560q0 -12 -11 -12h-26q-11 0 -11 12v560q0 9 -10 9h-83q-12 0 -12 12v19q0 11 12 11h83q10 0 10 9v111q0 48 -22.5 68.5
t-70.5 20.5t-70.5 -20.5t-22.5 -68.5v-41q0 -12 -11 -12h-25q-12 0 -12 12v42q0 132 141 132t141 -127v-117q0 -9 10 -9z" />
    <glyph glyph-name="uni09400930094D0902" 
d="M257 745v-33q0 -12 -11 -12h-26q-11 0 -11 12v33q0 12 11 12h26q11 0 11 -12zM140 753v-121q0 -9 9 -9h85q12 0 12 -11v-19q0 -12 -12 -12h-84q-10 0 -10 -9v-560q0 -12 -11 -12h-26q-11 0 -11 12v560q0 9 -10 9h-83q-12 0 -12 12v19q0 11 12 11h83q10 0 10 9v119
q0 81 -92 81q-49 0 -71.5 -20.5t-22.5 -68.5v-41q0 -12 -11 -12h-25q-12 0 -12 12v42q0 132 141 132q88 0 118 -53q28 51 99 51h29q12 0 12 -11v-19q0 -12 -12 -12h-28q-77 0 -77 -79z" />
    <glyph glyph-name="uni0940.aLong" 
d="M150 623h84q12 0 12 -11v-19q0 -12 -12 -12h-84q-10 0 -10 -9v-560q0 -12 -11 -12h-26q-11 0 -11 12v560q0 9 -10 9h-83q-12 0 -12 12v19q0 11 12 11h83q10 0 10 9v111q0 48 -22.5 68.5t-70.5 20.5h-245q-49 0 -71 -20t-22 -69v-41q0 -12 -11 -12h-26q-11 0 -11 12v42
q0 132 140 132h246q141 0 141 -127v-117q0 -9 10 -9z" />
    <glyph glyph-name="uni09400930094D.aLong" 
d="M140 632q0 -9 10 -9h84q12 0 12 -11v-19q0 -12 -12 -12h-84q-10 0 -10 -9v-560q0 -12 -11 -12h-26q-11 0 -11 12v560q0 9 -10 9h-83q-12 0 -12 12v19q0 11 12 11h83q10 0 10 9v119q0 81 -93 81h-245q-49 0 -71 -20t-22 -69v-41q0 -12 -11 -12h-26q-11 0 -11 12v42
q0 132 140 132h246q80 0 115 -48q25 46 99 46h28q12 0 12 -11v-19q0 -12 -12 -12h-23q-78 0 -78 -77v-123z" />
    <glyph glyph-name="uni09400902.aLong" 
d="M219 786h33q11 0 11 -11v-38q0 -12 -11 -12h-33q-11 0 -11 12v38q0 11 11 11zM150 623h84q12 0 12 -11v-19q0 -12 -12 -12h-84q-10 0 -10 -9v-560q0 -12 -11 -12h-26q-11 0 -11 12v560q0 9 -10 9h-83q-12 0 -12 12v19q0 11 12 11h83q10 0 10 9v111q0 48 -22.5 68.5
t-70.5 20.5h-245q-49 0 -71 -20t-22 -69v-41q0 -12 -11 -12h-26q-11 0 -11 12v42q0 132 140 132h246q141 0 141 -127v-117q0 -9 10 -9z" />
    <glyph glyph-name="uni09400930094D0902.aLong" 
d="M140 755v-123q0 -9 10 -9h84q12 0 12 -11v-19q0 -12 -12 -12h-84q-10 0 -10 -9v-560q0 -12 -11 -12h-26q-11 0 -11 12v560q0 9 -10 9h-83q-12 0 -12 12v19q0 11 12 11h83q10 0 10 9v119q0 81 -93 81h-245q-49 0 -71 -20t-22 -69v-41q0 -12 -11 -12h-26q-11 0 -11 12v42
q0 132 140 132h246q80 0 115 -48q25 46 99 46h28q12 0 12 -11v-19q0 -12 -12 -12h-23q-78 0 -78 -77zM258 745v-33q0 -12 -11 -12h-26q-11 0 -11 12v33q0 12 11 12h26q11 0 11 -12z" />
    <glyph glyph-name="uni09470930094D" horiz-adv-x="0" 
d="M-134 691v73q0 54 30.5 82t84.5 28h29q12 0 12 -11v-19q0 -12 -12 -12h-25q-77 0 -77 -78v-122q0 -9 8 -9v-23h-30q-70 77 -129 164l-61 90q-3 4 -3 9q0 9 10 9h30q11 0 18 -10l111 -171h4z" />
    <glyph glyph-name="uni09470902" horiz-adv-x="0" 
d="M-80 623h5v-23h-42q-58 61 -128 164l-62 90q-2 6 -2 9q0 9 10 9h29q11 0 18 -10l148 -225q9 -14 24 -14zM-10 779v-37q0 -12 -10 -12h-33q-11 0 -11 12v37q0 12 11 12h33q10 0 10 -12z" />
    <glyph glyph-name="uni09470901" horiz-adv-x="0" 
d="M-80 623h5v-23h-39q-41 36 -129 164l-61 90q-3 4 -3 9q0 9 10 9h27q11 0 18 -10l148 -225q9 -14 24 -14zM76 687h-77q-119 0 -119 122v7q0 14 12 14h22q11 0 11 -14v-6q0 -44 18 -62.5t61 -18.5h68q43 0 60.5 18.5t17.5 62.5v6q0 14 13 14h20q13 0 13 -14v-6
q0 -123 -120 -123zM63 876v-32q0 -12 -11 -12h-27q-11 0 -11 12v32q0 12 11 12h27q11 0 11 -12z" />
    <glyph glyph-name="uni09470930094D0902" horiz-adv-x="0" 
d="M11 738v-32q0 -12 -11 -12h-26q-11 0 -11 12v32q0 12 11 12h26q11 0 11 -12zM-134 691v73q0 54 30.5 82t84.5 28h29q12 0 12 -11v-19q0 -12 -12 -12h-25q-77 0 -77 -78v-122q0 -9 8 -9v-23h-32q-70 80 -127 164l-61 90q-3 4 -3 9q0 9 10 9h30q11 0 18 -10l111 -171h4z
" />
    <glyph glyph-name="uni09480930094D" horiz-adv-x="0" 
d="M-85 623v-18h-52q-68 75 -126 159l-61 90q-3 4 -3 9q0 9 10 9h23q14 0 20 -11l144 -222l3 1q0 1 -4.5 10t-8 17t-8.5 22t-9.5 28t-8.5 31q-9 40 -9 76v37q0 11 11 11h29q11 0 11 -11v-167h5q3 180 110 180h24q12 0 12 -11v-19q0 -11 -12 -11h-23q-84 0 -84 -151v-50
q0 -9 7 -9z" />
    <glyph glyph-name="uni09480902" horiz-adv-x="0" 
d="M24 770v-37q0 -12 -11 -12h-33q-11 0 -11 12v37q0 12 11 12h33q11 0 11 -12zM-85 623v-18h-38q-70 73 -129 159l-62 90q-3 4 -3 9q0 9 10 9h27q13 0 20 -11l137 -214l3 1q-19 43 -19 177v36q0 11 12 11h24q11 0 11 -11v-229q0 -9 7 -9z" />
    </font>
</defs>
</svg>
